<?xml version="1.0" encoding="utf-8"?>
<!-- Generator: Adobe Illustrator 27.5.0, SVG Export Plug-In . SVG Version: 6.00 Build 0)  -->
<svg version="1.1" xmlns="http://www.w3.org/2000/svg" xmlns:xlink="http://www.w3.org/1999/xlink" x="0px" y="0px"
	 viewBox="0 0 500 500" style="enable-background:new 0 0 500 500;" xml:space="preserve">
<g id="Background">
	<rect y="0" style="fill:#FFFFFF;" width="500" height="500"/>
</g>
<g id="Objects">
	
		<text transform="matrix(1 0 0 1 137.3997 75.4034)" style="fill:#303030; font-family:'GrandHotel-Regular'; font-size:41.4298px;">Bird Background</text>
	
		<text transform="matrix(1 0 0 1 141.3491 101.0828)" style="fill:#303030; font-family:'OpenSans-Light'; font-size:8.7382px; letter-spacing:8;">HAND DRAWN STYLE</text>
	
		<path style="fill-rule:evenodd;clip-rule:evenodd;fill:#212121;stroke:#212121;stroke-width:1.0846;stroke-linecap:round;stroke-linejoin:round;stroke-miterlimit:10;" d="
		M38.377,372.353c0,0,25.198-7.597,40.066,9.175c0,0,8.034,8.92,25.781-0.335c0,0,19.854-8.863,30.37-7.703
		c0,0,16.523,0.503,42.17,22.252c0,0,12.501,9.439,18.803,13.064c0,0-12.467,10.084-30.814,1.172c0,0-8.14,8.069-19.676,0.832
		c0,0-5.594,5.105-14.656,0.315c0,0-0.018,2.381-3.506,1.739c0,0,1.23,7.728,11.359,14.547l21.84,8.45
		c7.214,2.791,4.06,13.649-3.519,12.098c-0.137-0.028-0.275-0.058-0.415-0.088c0,0-0.7,7.093-11.081,2.232
		c0,0-1.924,5.707-10.593,3.001c0,0-6.422,2.443-11.172-3.041c-1.133-1.309-1.88-2.904-2.338-4.573
		c-0.854-3.114-2.969-9.482-6.171-10.411c0,0-19.8-5.155-25.042-7.879c0,0-4.394,1.953-7.975-1.075c0,0-4.716,4.868-8.125,2.908
		c0,0-3.667,7.258-11.311,6.626c0,0,0.796,6.6-4.328,7.593c0,0-2.018,7.839-8.18,5.952c0,0-10.968-36.7-0.903-53.207
		c0,0,2.439-3.664,8.135-0.426c0,0-1.664-11.384-4.859-14.423C52.238,381.146,47.875,374.032,38.377,372.353z"/>
	
		<path style="fill-rule:evenodd;clip-rule:evenodd;fill:#212121;stroke:#212121;stroke-width:1.0846;stroke-linecap:round;stroke-linejoin:round;stroke-miterlimit:10;" d="
		M65.184,124.495c0,0,3.528-2.391,6.635-0.518c0,0,1.672,0.991,3.968-1.297c0,0,2.641-2.329,4.322-2.657c0,0,2.577-0.72,7.592,1.401
		c0,0,2.388,0.856,3.537,1.112c0,0-1.439,2.161-4.706,1.669c0,0-0.867,1.64-3,1.08c0,0-0.618,1.059-2.25,0.756
		c0,0,0.113,0.369-0.457,0.438c0,0,0.563,1.134,2.458,1.699l5.584,0.371c0,0,0.479,1.729-1.829,1.927c0,0,0.235,1.13-1.605,0.881
		c0,0-0.021,0.974-1.492,0.975c0,0-1.142,0.898-2.307-0.281c0,0-0.886-1.569-1.606-1.554c0,0-3.67,0.384-4.251-0.009
		c0,0-0.584,0.515-1.284,0.219c0,0-0.493,0.981-1.115,0.842c0,0-0.217,1.299-1.428,1.571c0,0,0.442,0.981-0.302,1.382
		c0,0,0.067,1.309-0.977,1.315c0,0-3.468-5.142-2.709-8.179c0,0,0.2-0.684,1.237-0.458c0,0-0.808-1.68-1.448-1.995
		C67.751,125.184,66.734,124.295,65.184,124.495z"/>
	
		<path style="fill-rule:evenodd;clip-rule:evenodd;fill:#212121;stroke:#212121;stroke-width:1.0846;stroke-linecap:round;stroke-linejoin:round;stroke-miterlimit:10;" d="
		M401.262,338.397c0,0,7.688-5.05,14.337-0.908c0,0,3.578,2.191,8.603-2.674c0,0,5.771-4.941,9.409-5.598
		c0,0,5.587-1.473,16.341,3.265c0,0,5.128,1.919,7.598,2.508c0,0-3.174,4.618-10.207,3.455c0,0-1.926,3.512-6.51,2.233
		c0,0-1.367,2.266-4.878,1.562c0,0,0.229,0.8-1.004,0.932c0,0,1.182,2.466,5.254,3.745l12.037,0.974c0,0,0.98,3.746-4.007,4.099
		c0,0,0.472,2.448-3.49,1.849c0,0-0.077,2.103-3.25,2.06c0,0-2.493,1.904-4.97-0.679c0,0-1.864-3.414-3.416-3.405
		c0,0-7.933,0.712-9.172-0.151c0,0-1.28,1.092-2.778,0.43c0,0-1.097,2.102-2.437,1.785c0,0-0.506,2.797-3.13,3.343
		c0,0,0.923,2.135-0.696,2.975c0,0,0.103,2.827-2.149,2.805c0,0-7.32-11.204-5.589-17.734c0,0,0.453-1.47,2.684-0.951
		c0,0-1.689-3.649-3.061-4.35C406.781,339.966,404.612,338.016,401.262,338.397z"/>
	
		<path style="fill-rule:evenodd;clip-rule:evenodd;fill:#212121;stroke:#212121;stroke-width:1.0846;stroke-linecap:round;stroke-linejoin:round;stroke-miterlimit:10;" d="
		M204.042,337.348c0,0,20.237-11.448,45.548,12.623c0,0,28.088,10.617,48.045,37.141c0,0,31.045,25.295,36.602,27.714
		c0,0-3.281,5.563-13.137,0.264c0,0-4.876,4.76-14.539-3.44c0,0-6.868,3.254-12.743-4.899c0,0-1.931-3.242-5.242-8.967
		c-3.812-6.591-8.982-6.623-8.982-6.623s2.061,5.334-0.203,5.238c0,0,7.109,9.767,2.666,10.879c0,0,6.451,5.638,3.624,9.158
		c0,0,6.251,6.269,4.234,11.074c0,0,5.529,10.522-3.379,7.608c0,0-29.06-8.894-38.966-36.341
		c-9.906-27.447-7.989-33.501-7.989-33.501s-15.015-12.738-20.487-20.334C219.094,344.944,210.73,337.711,204.042,337.348z"/>
	
		<path style="fill-rule:evenodd;clip-rule:evenodd;fill:#212121;stroke:#212121;stroke-width:1.0846;stroke-linecap:round;stroke-linejoin:round;stroke-miterlimit:10;" d="
		M70.011,174.488c0,0,6.599-3.734,14.852,4.115c0,0,9.159,3.462,15.667,12.111c0,0,10.123,8.249,11.936,9.037
		c0,0-1.07,1.814-4.284,0.086c0,0-1.591,1.553-4.741-1.122c0,0-2.19,0.657-4.106-2.001c0,0-1.512,2.069-2.951-1.592
		c0,0,0.562-1.195-0.851-2.68l-0.886-0.408c0,0,0.673,1.739-0.066,1.707c0,0,2.318,3.185,0.869,3.547c0,0,2.104,1.839,1.182,2.987
		c0,0,2.038,2.044,1.381,3.611c0,0,1.802,3.432-1.102,2.481c0,0-9.476-2.9-12.706-11.85c-3.231-8.95-2.605-10.925-2.605-10.925
		s-4.896-4.153-6.681-6.63C74.919,176.964,72.192,174.605,70.011,174.488z"/>
	
		<path style="fill-rule:evenodd;clip-rule:evenodd;fill:#212121;stroke:#212121;stroke-width:1.0846;stroke-linecap:round;stroke-linejoin:round;stroke-miterlimit:10;" d="
		M181.325,211.598c0,0,19.045-0.254,25.811,12.327c0,0,3.338,6.894,19.383-4.179c0,0,11.32-5.551,23.517,11.883
		c0,0,16.96,19.618,13.431,19.296c-3.529-0.322-10.362-4.13-10.362-4.13s-1.347,2.236-6.53-0.767c0,0-3.096,0.993-7.31-1.781
		c0,0-1.746,0.819-5.158-0.145c0,0-3.103,2.048-6.475-1.521c0,0-2.332,1.754-6.372-0.43c0,0,10.471,16.545,28.548,23.877
		c0,0,0.455,8.018-8.535,3.788c0,0-2.549,3.639-8.475-0.956c0,0-0.949,3.009-3.499,0.217c0,0-2.069,0.857-3.68-2.194
		c0,0-4.616,0.992-7.086-13.819c0,0-21.944-5.846-26.663-31.512C191.872,221.552,192.798,219.538,181.325,211.598z"/>
	
		<path style="fill-rule:evenodd;clip-rule:evenodd;fill:#212121;stroke:#212121;stroke-width:1.0846;stroke-linecap:round;stroke-linejoin:round;stroke-miterlimit:10;" d="
		M317.402,289.345c0,0,5.943-7.472,15.13-1.945c0,0,6.287,2.744,20.12-2.93c0,0,9.881-4.049,12.401-2.214
		c0,0,13.811,4.268,28.662,2.358c0,0-1.886,9.502-17.317,5.866c0,0-3.385,5.117-10.73,3.557c0,0-2.081,4.157-8.966,2.22
		c0,0,1.202,1.753,5.665,3.758c0,0-0.847,4.943-8.195,3.991c0,0-2.159,3.481-6.532,1.07c0,0-2.329,3.707-5.622,2.318
		c0,0-2.485,2.889-4.645,0.941l-0.781-3.369c0,0-3.42,0.329-7.191-1.731c0,0-2.745,3.401-5.02,2.242c0,0-2.768,3.425-5.381,2.561
		c0,0-1.97,3.491-5.353,3.142c0,0-0.255,2.316-3.888,0.908c0,0-3.173,3.878-6.106,2.883c0,0-3.031,3.014-5.799,0.837
		c0,0,8.953-12.455,9.531-16.226c0,0-1.372-2.64,17.432-5.127c0,0,0.56-2.409-4.18-4.436
		C320.638,290.019,318.677,289.202,317.402,289.345z"/>
	
		<path style="fill-rule:evenodd;clip-rule:evenodd;fill:#212121;stroke:#212121;stroke-width:1.0846;stroke-linecap:round;stroke-linejoin:round;stroke-miterlimit:10;" d="
		M160.532,148.527c0,0,4.199-3.03,8.184,1.203c0,0,2.88,2.354,10.935,1.421c0,0,5.752-0.665,6.799,0.662
		c0,0,6.585,4.254,14.618,5.435c0,0-2.378,4.684-9.902,0.523c0,0-2.518,2.175-6.124,0.283c0,0-1.696,1.866-5.006-0.156
		c0,0,0.37,1.091,2.406,2.794c0,0-1.167,2.456-4.864,0.882c0,0-1.637,1.5-3.567-0.4c0,0-1.76,1.594-3.275,0.387
		c0,0-1.721,1.144-2.563-0.19l0.087-1.874c0,0-1.834-0.331-3.501-1.958c0,0-1.932,1.374-2.95,0.434c0,0-1.947,1.383-3.184,0.549
		c0,0-1.541,1.533-3.256,0.855c0,0-0.473,1.172-2.163-0.096c0,0-2.225,1.56-3.61,0.61c0,0-2.025,1.129-3.151-0.414
		c0,0,6.502-5.189,7.356-7.074c0,0-0.329-1.58,9.853-0.12c0,0,0.646-1.175-1.533-2.929
		C162.122,149.353,161.219,148.639,160.532,148.527z"/>
	
		<path style="fill-rule:evenodd;clip-rule:evenodd;fill:#212121;stroke:#212121;stroke-width:1.0846;stroke-linecap:round;stroke-linejoin:round;stroke-miterlimit:10;" d="
		M263.908,165.508c0,0-1.375-5.915,19.751-5.933c0,0,4.159,2.402,10.1,2.452c0,0,2.49-1.123,5.76-2.647
		c9.692-4.518,20.738-5.207,30.9-1.88c13.277,4.347,28.998,9.937,24.832,10.777c-6.954,1.403-4.965,1.305-4.965,1.305
		s-2.8,4.249-13.547,0.273c0,0-3.127,2.786-10.202,1.332c0,0,11.813,5.964,19.065,3.531c0,0,5.534,3.247-1.739,5.52
		c0,0,2.685,2.729-2.181,3.653c0,0,3.108,2.515,0.683,2.75c0,0,3.229,5.213-2.705,4.37c0,0-3.381,3.033-7.827-2.952
		c0,0-4.891-5.567-10.505-7.774c0,0-27.711,9.251-42.696-12.497C278.633,167.789,273.411,161.687,263.908,165.508z"/>
	
		<path style="fill-rule:evenodd;clip-rule:evenodd;fill:#212121;stroke:#212121;stroke-width:1.0846;stroke-linecap:round;stroke-linejoin:round;stroke-miterlimit:10;" d="
		M384.133,406.433c0,0,1.384-3.764,13.057,3.878c0,0,1.427,2.832,4.688,5.014c0,0,0.001,0,0.003,0
		c9.925,1.566,18.886,6.858,25.048,14.794c4.704,6.059,8.775,11.784,6.643,10.929c-4.348-1.743-3.215-1.078-3.215-1.078
		s-3.085,1.333-7.579-4.756c0,0-2.736,0.406-6.117-2.96c0,0,4.364,7.573,9.249,8.857c0,0,1.881,3.797-2.958,2.417
		c0,0,0.493,2.481-2.528,1.229c0,0,0.804,2.516-0.618,1.766c0,0-0.104,4.049-3.077,1.435c0,0-2.966,0.449-3.254-4.467
		c0,0-0.685-4.844-2.985-8.097c0,0-18.653-4.929-19.052-22.367C391.438,413.026,390.765,407.765,384.133,406.433z"/>
	
		<path style="fill-rule:evenodd;clip-rule:evenodd;fill:#212121;stroke:#212121;stroke-width:1.0846;stroke-linecap:round;stroke-linejoin:round;stroke-miterlimit:10;" d="
		M90.835,270.4c0,0-14.842,6.359-21.47,12.422c0,0-14.338,29.153-8.752,39.134c0,0,5.293,1.152,8.209-6.725
		c0,0,6.575-1.94,7.598-6.708c0,0,6.097-2.193,7.991-6.79c0,0,7.656-1.655,8.355-5.804c0,0,5.303-2.625,5.466-6.589
		c0,0,5.525,7.757,15.506,9.053c0,0-3.616,16.607,1.106,12.797c0,0,3.784-2.367,3.098-4.115c0,0,4.756-0.453,5.075-2.833
		c0,0,2.353-1.065,2.19-3.235c0,0,2.104,0.959,3.894-2.614c0,0,3.527,0.856,2.68-2.924c0,0,4.164-2.867-0.986-3.721l-7.673-1.349
		c0,0,1.508-8.205-4.806-15.368c0,0,1.851,2.107,6.54-3.623c0,0,3.386,0.027,6.355-3.944c0,0,3.843,0.377,5.655-3.203
		c0,0,6.096-0.806,6.331-5.182c0,0,6.038-0.221,7.956-5.082c0,0,9.011-1.136,9.84-6.705c0,0-4.368-6.665-40.604-2.764
		c0,0-15.107,8.144-16.147,17.27c0,0-3.733-8.402-11.153-7.965c0,0-2.891-4.098-6.328-4.098c0,0-0.74,4.163,2.286,6.469
		C89.048,256.205,85.702,263.917,90.835,270.4z"/>
	
		<path style="fill-rule:evenodd;clip-rule:evenodd;fill:#212121;stroke:#212121;stroke-width:1.0846;stroke-linecap:round;stroke-linejoin:round;stroke-miterlimit:10;" d="
		M422.108,209.411c0,0-2.471,7.697-2.357,12.193c0,0,6.308,14.993,11.915,16.16c0,0,2.172-1.622,0.155-5.311
		c0,0,1.427-3.122-0.04-5.075c0,0,1.173-3.024,0.058-5.25c0,0,1.89-3.437,0.551-5.064c0,0,0.75-2.866-0.695-4.23
		c0,0,4.746,0.459,8.514-2.887c0,0,5.088,6.82,5.198,3.784c0,0,0.348-2.208-0.537-2.522c0,0,1.392-1.946,0.595-2.847
		c0,0,0.371-1.24-0.503-1.891c0,0,1.054-0.481,0.292-2.329c0,0,1.481-1.052-0.226-1.974c0,0,0.285-2.515-1.73-0.849l-3.03,2.457
		c0,0-2.605-3.265-7.387-3.23c0,0,1.404-0.008,0.779-3.661c0,0,1.123-1.271,0.597-3.698c0,0,1.404-1.328,0.647-3.189
		c0,0,1.698-2.568,0.12-4.094c0,0,1.9-2.356,0.693-4.676c0,0,2.53-3.779,0.698-5.921c0,0-3.953-0.539-14.38,14.437
		c0,0-1.884,8.384,1.223,11.774c0,0-4.401-1.348-6.673,1.599c0,0-2.499-0.253-3.628,1.046c0,0,1.331,1.647,3.197,1.26
		C416.157,205.425,417.972,209.222,422.108,209.411z"/>
</g>
<g id="Designed_By_Freepik">
	<g>
		<g>
			<path style="fill:#303030;" d="M178.584,485.159v-0.16c-0.219,0.249-0.434,0.453-0.646,0.609
				c-0.212,0.157-0.442,0.276-0.69,0.357c-0.248,0.082-0.519,0.122-0.812,0.122c-0.389,0-0.749-0.082-1.08-0.247
				c-0.331-0.164-0.619-0.399-0.859-0.704c-0.243-0.307-0.426-0.665-0.551-1.077c-0.126-0.414-0.188-0.859-0.188-1.339
				c0-1.017,0.248-1.809,0.744-2.376c0.496-0.567,1.148-0.851,1.958-0.851c0.468,0,0.863,0.081,1.185,0.241
				c0.321,0.16,0.635,0.407,0.94,0.74v-2.398c0-0.333,0.065-0.584,0.199-0.755c0.132-0.171,0.322-0.257,0.568-0.257
				s0.435,0.079,0.567,0.235c0.134,0.157,0.2,0.388,0.2,0.693v7.165c0,0.31-0.071,0.542-0.214,0.697
				c-0.143,0.154-0.327,0.231-0.553,0.231c-0.223,0-0.406-0.08-0.551-0.24C178.656,485.685,178.584,485.457,178.584,485.159
				 M175.388,482.773c0,0.44,0.068,0.815,0.206,1.125c0.137,0.31,0.324,0.543,0.562,0.698c0.238,0.157,0.498,0.236,0.779,0.236
				c0.286,0,0.547-0.075,0.784-0.224c0.235-0.148,0.424-0.377,0.565-0.685c0.141-0.307,0.211-0.691,0.211-1.151
				c0-0.433-0.07-0.805-0.211-1.116c-0.141-0.311-0.331-0.55-0.572-0.714c-0.24-0.165-0.503-0.246-0.788-0.246
				c-0.297,0-0.563,0.084-0.797,0.252c-0.234,0.168-0.416,0.41-0.545,0.726C175.452,481.99,175.388,482.356,175.388,482.773"/>
			<path style="fill:#303030;" d="M185.748,483.185h-3.177c0.004,0.368,0.078,0.694,0.223,0.976
				c0.145,0.281,0.337,0.494,0.577,0.637c0.241,0.143,0.505,0.214,0.794,0.214c0.194,0,0.372-0.022,0.532-0.067
				c0.162-0.047,0.317-0.117,0.468-0.215c0.151-0.097,0.289-0.201,0.416-0.313c0.126-0.112,0.291-0.264,0.494-0.453
				c0.083-0.07,0.202-0.107,0.357-0.107c0.167,0,0.301,0.047,0.404,0.139c0.103,0.091,0.156,0.219,0.156,0.386
				c0,0.147-0.058,0.318-0.173,0.515c-0.116,0.196-0.289,0.385-0.521,0.565c-0.233,0.181-0.523,0.33-0.875,0.45
				c-0.351,0.118-0.754,0.178-1.211,0.178c-1.043,0-1.854-0.298-2.433-0.893c-0.58-0.595-0.87-1.402-0.87-2.422
				c0-0.48,0.072-0.926,0.215-1.337c0.143-0.41,0.351-0.762,0.624-1.056c0.274-0.294,0.611-0.519,1.012-0.676
				c0.4-0.156,0.846-0.234,1.333-0.234c0.634,0,1.179,0.133,1.633,0.401c0.455,0.267,0.795,0.613,1.021,1.038
				c0.226,0.425,0.339,0.858,0.339,1.297c0,0.409-0.117,0.675-0.351,0.796C186.503,483.123,186.172,483.185,185.748,483.185
				 M182.57,482.262h2.946c-0.039-0.555-0.19-0.972-0.45-1.247c-0.26-0.275-0.602-0.414-1.026-0.414
				c-0.405,0-0.738,0.14-0.997,0.419C182.784,481.3,182.626,481.714,182.57,482.262"/>
			<path style="fill:#303030;" d="M193.151,483.963c0,0.449-0.108,0.833-0.328,1.152c-0.217,0.319-0.54,0.562-0.967,0.726
				c-0.426,0.165-0.945,0.247-1.556,0.247c-0.584,0-1.084-0.09-1.501-0.268c-0.416-0.178-0.724-0.402-0.922-0.669
				c-0.199-0.269-0.297-0.537-0.297-0.808c0-0.179,0.063-0.33,0.19-0.458c0.127-0.126,0.288-0.189,0.483-0.189
				c0.17,0,0.3,0.041,0.392,0.125c0.092,0.083,0.18,0.2,0.262,0.351c0.167,0.29,0.367,0.505,0.599,0.648
				c0.232,0.143,0.548,0.215,0.949,0.215c0.325,0,0.592-0.073,0.801-0.218c0.208-0.146,0.312-0.311,0.312-0.497
				c0-0.286-0.108-0.493-0.325-0.624c-0.216-0.131-0.573-0.257-1.068-0.376c-0.56-0.139-1.014-0.285-1.366-0.438
				c-0.351-0.152-0.632-0.354-0.842-0.604c-0.21-0.25-0.315-0.558-0.315-0.922c0-0.326,0.097-0.634,0.292-0.924
				c0.195-0.288,0.481-0.52,0.861-0.691c0.378-0.174,0.835-0.261,1.371-0.261c0.42,0,0.799,0.044,1.133,0.132
				c0.336,0.086,0.616,0.204,0.84,0.352c0.224,0.146,0.395,0.309,0.511,0.487c0.117,0.179,0.176,0.353,0.176,0.523
				c0,0.187-0.063,0.339-0.187,0.459c-0.126,0.118-0.302,0.179-0.533,0.179c-0.167,0-0.308-0.048-0.425-0.145
				c-0.117-0.095-0.251-0.236-0.401-0.427c-0.124-0.158-0.267-0.286-0.435-0.382c-0.167-0.096-0.393-0.142-0.679-0.142
				c-0.294,0-0.538,0.062-0.732,0.188c-0.194,0.124-0.291,0.279-0.291,0.466c0,0.172,0.071,0.31,0.213,0.42
				c0.144,0.109,0.335,0.2,0.578,0.272c0.242,0.07,0.575,0.157,1,0.261c0.503,0.124,0.915,0.271,1.235,0.441
				c0.318,0.17,0.561,0.372,0.727,0.604C193.069,483.401,193.151,483.665,193.151,483.963"/>
			<path style="fill:#303030;" d="M194.81,478.727c-0.225,0-0.419-0.069-0.579-0.209c-0.162-0.138-0.242-0.334-0.242-0.589
				c0-0.23,0.082-0.419,0.247-0.568c0.165-0.15,0.357-0.223,0.574-0.223c0.211,0,0.398,0.066,0.56,0.202
				c0.163,0.135,0.245,0.331,0.245,0.589c0,0.25-0.08,0.445-0.239,0.586C195.217,478.655,195.029,478.727,194.81,478.727
				 M195.615,480.404v4.695c0,0.326-0.078,0.572-0.233,0.738c-0.155,0.167-0.35,0.25-0.589,0.25c-0.238,0-0.432-0.085-0.58-0.256
				c-0.149-0.17-0.223-0.415-0.223-0.732v-4.648c0-0.321,0.074-0.563,0.223-0.727c0.148-0.162,0.342-0.244,0.58-0.244
				c0.238,0,0.434,0.082,0.589,0.244C195.537,479.889,195.615,480.115,195.615,480.404"/>
			<path style="fill:#303030;" d="M202.732,480.673v4.719c0,0.54-0.058,1.004-0.173,1.394c-0.114,0.388-0.299,0.71-0.553,0.964
				c-0.254,0.253-0.587,0.441-0.997,0.565c-0.411,0.124-0.921,0.184-1.533,0.184c-0.56,0-1.06-0.078-1.501-0.234
				c-0.439-0.158-0.778-0.359-1.018-0.607c-0.237-0.248-0.357-0.503-0.357-0.765c0-0.198,0.068-0.36,0.203-0.485
				c0.135-0.125,0.298-0.188,0.488-0.188c0.238,0,0.446,0.105,0.625,0.315c0.086,0.106,0.177,0.216,0.27,0.325
				c0.093,0.109,0.197,0.202,0.309,0.28c0.114,0.076,0.249,0.134,0.408,0.172c0.158,0.036,0.341,0.057,0.548,0.057
				c0.42,0,0.747-0.059,0.979-0.176c0.232-0.117,0.395-0.281,0.488-0.492c0.094-0.209,0.148-0.435,0.164-0.675
				s0.028-0.626,0.036-1.158c-0.251,0.351-0.538,0.616-0.866,0.799c-0.327,0.182-0.717,0.274-1.169,0.274
				c-0.543,0-1.018-0.139-1.425-0.417c-0.406-0.277-0.719-0.666-0.936-1.166c-0.219-0.501-0.328-1.077-0.328-1.731
				c0-0.487,0.066-0.929,0.199-1.321c0.134-0.394,0.323-0.725,0.569-0.994c0.246-0.271,0.529-0.474,0.85-0.61
				c0.322-0.137,0.675-0.205,1.06-0.205c0.46,0,0.859,0.089,1.197,0.264c0.337,0.178,0.65,0.455,0.94,0.832v-0.221
				c0-0.282,0.069-0.5,0.208-0.655c0.139-0.153,0.318-0.232,0.537-0.232c0.313,0,0.521,0.103,0.624,0.307
				C202.68,479.992,202.732,480.288,202.732,480.673 M198.024,482.731c0,0.659,0.144,1.157,0.431,1.494
				c0.287,0.338,0.66,0.506,1.116,0.506c0.27,0,0.524-0.072,0.764-0.218c0.241-0.145,0.436-0.363,0.588-0.654
				c0.15-0.292,0.225-0.646,0.225-1.063c0-0.662-0.146-1.179-0.438-1.547c-0.292-0.369-0.675-0.554-1.151-0.554
				c-0.465,0-0.836,0.178-1.116,0.53C198.164,481.578,198.024,482.082,198.024,482.731"/>
			<path style="fill:#303030;" d="M205.314,480.381v0.196c0.285-0.377,0.598-0.654,0.938-0.83c0.339-0.177,0.729-0.266,1.169-0.266
				c0.429,0,0.811,0.094,1.148,0.28c0.337,0.188,0.59,0.451,0.756,0.791c0.108,0.199,0.177,0.413,0.208,0.644
				c0.032,0.23,0.049,0.523,0.049,0.881v3.023c0,0.326-0.075,0.572-0.224,0.738c-0.149,0.167-0.342,0.25-0.58,0.25
				c-0.243,0-0.438-0.085-0.59-0.256c-0.151-0.17-0.226-0.415-0.226-0.732v-2.708c0-0.535-0.075-0.945-0.224-1.228
				c-0.149-0.283-0.445-0.427-0.89-0.427c-0.29,0-0.553,0.087-0.792,0.259c-0.238,0.174-0.413,0.411-0.524,0.712
				c-0.079,0.242-0.119,0.693-0.119,1.357v2.035c0,0.33-0.077,0.577-0.229,0.741c-0.153,0.165-0.35,0.247-0.592,0.247
				c-0.235,0-0.427-0.085-0.578-0.256c-0.151-0.17-0.227-0.415-0.227-0.732v-4.695c0-0.31,0.068-0.541,0.203-0.693
				c0.135-0.152,0.32-0.229,0.553-0.229c0.144,0,0.272,0.034,0.388,0.103c0.114,0.067,0.207,0.168,0.276,0.303
				C205.279,480.022,205.314,480.186,205.314,480.381"/>
			<path style="fill:#303030;" d="M215.198,483.185h-3.177c0.004,0.368,0.078,0.694,0.223,0.976
				c0.145,0.281,0.337,0.494,0.578,0.637c0.239,0.143,0.504,0.214,0.793,0.214c0.194,0,0.373-0.022,0.533-0.067
				c0.16-0.047,0.316-0.117,0.468-0.215c0.149-0.097,0.289-0.201,0.417-0.313c0.126-0.112,0.29-0.264,0.493-0.453
				c0.083-0.07,0.202-0.107,0.357-0.107c0.167,0,0.302,0.047,0.405,0.139c0.104,0.091,0.155,0.219,0.155,0.386
				c0,0.147-0.058,0.318-0.173,0.515c-0.116,0.196-0.289,0.385-0.52,0.565c-0.233,0.181-0.523,0.33-0.875,0.45
				c-0.351,0.118-0.755,0.178-1.211,0.178c-1.044,0-1.855-0.298-2.434-0.893c-0.579-0.595-0.869-1.402-0.869-2.422
				c0-0.48,0.071-0.926,0.213-1.337c0.143-0.41,0.352-0.762,0.625-1.056c0.274-0.294,0.612-0.519,1.012-0.676
				c0.4-0.156,0.846-0.234,1.333-0.234c0.634,0,1.178,0.133,1.633,0.401c0.454,0.267,0.795,0.613,1.021,1.038
				c0.227,0.425,0.339,0.858,0.339,1.297c0,0.409-0.117,0.675-0.351,0.796C215.952,483.123,215.623,483.185,215.198,483.185
				 M212.02,482.262h2.945c-0.04-0.555-0.189-0.972-0.449-1.247c-0.26-0.275-0.602-0.414-1.026-0.414
				c-0.405,0-0.738,0.14-0.998,0.419C212.232,481.3,212.076,481.714,212.02,482.262"/>
			<path style="fill:#303030;" d="M221.821,485.159v-0.16c-0.218,0.249-0.434,0.453-0.646,0.609
				c-0.212,0.157-0.441,0.276-0.689,0.357c-0.248,0.082-0.519,0.122-0.812,0.122c-0.39,0-0.749-0.082-1.081-0.247
				c-0.331-0.164-0.618-0.399-0.86-0.704c-0.242-0.307-0.426-0.665-0.55-1.077c-0.126-0.414-0.188-0.859-0.188-1.339
				c0-1.017,0.248-1.809,0.744-2.376c0.496-0.567,1.148-0.851,1.958-0.851c0.468,0,0.863,0.081,1.184,0.241
				c0.321,0.16,0.635,0.407,0.94,0.74v-2.398c0-0.333,0.066-0.584,0.2-0.755c0.132-0.171,0.322-0.257,0.568-0.257
				c0.246,0,0.435,0.079,0.568,0.235c0.132,0.157,0.199,0.388,0.199,0.693v7.165c0,0.31-0.071,0.542-0.214,0.697
				c-0.143,0.154-0.327,0.231-0.553,0.231c-0.222,0-0.406-0.08-0.551-0.24C221.894,485.685,221.821,485.457,221.821,485.159
				 M218.625,482.773c0,0.44,0.067,0.815,0.205,1.125c0.137,0.31,0.325,0.543,0.563,0.698c0.237,0.157,0.497,0.236,0.778,0.236
				c0.286,0,0.547-0.075,0.783-0.224c0.236-0.148,0.425-0.377,0.565-0.685c0.141-0.307,0.212-0.691,0.212-1.151
				c0-0.433-0.071-0.805-0.212-1.116c-0.14-0.311-0.331-0.55-0.571-0.714c-0.24-0.165-0.502-0.246-0.788-0.246
				c-0.297,0-0.563,0.084-0.798,0.252c-0.234,0.168-0.416,0.41-0.545,0.726C218.689,481.99,218.625,482.356,218.625,482.773"/>
			<path style="fill:#303030;" d="M228.461,477.994v2.481c0.306-0.316,0.617-0.561,0.935-0.728c0.317-0.169,0.71-0.253,1.179-0.253
				c0.539,0,1.012,0.128,1.419,0.383c0.406,0.257,0.722,0.628,0.946,1.114c0.224,0.485,0.337,1.061,0.337,1.729
				c0,0.491-0.063,0.941-0.187,1.353c-0.126,0.411-0.308,0.767-0.545,1.068c-0.239,0.301-0.527,0.535-0.866,0.699
				c-0.34,0.165-0.714,0.247-1.123,0.247c-0.25,0-0.486-0.029-0.704-0.09c-0.221-0.058-0.409-0.137-0.563-0.234
				c-0.154-0.097-0.286-0.196-0.396-0.301c-0.109-0.102-0.254-0.258-0.432-0.464v0.16c0,0.306-0.073,0.537-0.22,0.694
				c-0.146,0.157-0.333,0.234-0.56,0.234c-0.23,0-0.413-0.077-0.55-0.234c-0.137-0.157-0.206-0.389-0.206-0.694v-7.094
				c0-0.329,0.066-0.578,0.199-0.746c0.133-0.169,0.319-0.254,0.556-0.254c0.251,0,0.442,0.081,0.578,0.241
				C228.394,477.468,228.461,477.696,228.461,477.994 M228.539,482.821c0,0.647,0.148,1.144,0.443,1.489
				c0.295,0.349,0.683,0.523,1.163,0.523c0.409,0,0.762-0.177,1.057-0.532c0.296-0.355,0.443-0.865,0.443-1.527
				c0-0.428-0.061-0.798-0.184-1.106c-0.123-0.31-0.297-0.55-0.524-0.718c-0.226-0.168-0.491-0.253-0.792-0.253
				c-0.309,0-0.585,0.085-0.827,0.253c-0.242,0.168-0.432,0.412-0.571,0.732C228.608,482,228.539,482.381,228.539,482.821"/>
			<path style="fill:#303030;" d="M235.383,486.291l0.149-0.364l-2-5.034c-0.122-0.289-0.185-0.5-0.185-0.631
				c0-0.139,0.036-0.268,0.107-0.387c0.072-0.119,0.17-0.215,0.294-0.285c0.126-0.072,0.255-0.108,0.391-0.108
				c0.234,0,0.41,0.075,0.53,0.224c0.119,0.148,0.224,0.362,0.315,0.64l1.376,3.998l1.303-3.719c0.102-0.3,0.196-0.537,0.279-0.708
				c0.083-0.171,0.171-0.285,0.264-0.344c0.094-0.061,0.226-0.091,0.396-0.091c0.123,0,0.241,0.033,0.355,0.099
				c0.113,0.066,0.2,0.154,0.261,0.266c0.061,0.11,0.093,0.228,0.093,0.35c-0.016,0.075-0.042,0.183-0.078,0.323
				c-0.036,0.138-0.079,0.279-0.13,0.421l-2.119,5.548c-0.183,0.487-0.362,0.87-0.536,1.147c-0.175,0.278-0.405,0.492-0.694,0.641
				c-0.288,0.148-0.675,0.223-1.164,0.223c-0.476,0-0.833-0.051-1.07-0.153c-0.239-0.104-0.358-0.292-0.358-0.566
				c0-0.186,0.057-0.331,0.17-0.431c0.113-0.102,0.281-0.153,0.503-0.153c0.087,0,0.173,0.013,0.256,0.037
				c0.102,0.022,0.193,0.035,0.268,0.035c0.186,0,0.333-0.027,0.44-0.084c0.107-0.056,0.203-0.15,0.289-0.289
				C235.173,486.759,235.272,486.556,235.383,486.291"/>
			<path style="fill:#303030;" d="M258.919,479.623h0.388v-0.488c0-0.51,0.063-0.913,0.192-1.214c0.128-0.3,0.348-0.518,0.656-0.654
				c0.307-0.136,0.728-0.204,1.263-0.204c0.953,0,1.425,0.229,1.425,0.697c0,0.149-0.05,0.278-0.15,0.386
				c-0.098,0.105-0.215,0.16-0.35,0.16c-0.064,0-0.175-0.012-0.331-0.037c-0.148-0.021-0.283-0.034-0.391-0.034
				c-0.292,0-0.479,0.088-0.566,0.26c-0.08,0.172-0.122,0.418-0.122,0.741v0.388h0.397c0.62,0,0.927,0.186,0.927,0.561
				c0,0.263-0.079,0.433-0.244,0.505c-0.164,0.071-0.392,0.106-0.683,0.106h-0.397v4.305c0,0.32-0.076,0.565-0.231,0.732
				c-0.151,0.171-0.348,0.255-0.592,0.255c-0.229,0-0.42-0.084-0.575-0.255c-0.152-0.167-0.228-0.412-0.228-0.732v-4.305h-0.447
				c-0.243,0-0.428-0.053-0.56-0.164c-0.131-0.106-0.198-0.25-0.198-0.425C258.102,479.815,258.375,479.623,258.919,479.623"/>
			<path style="fill:#303030;" d="M264.238,483.742v1.357c0,0.329-0.083,0.576-0.234,0.74c-0.154,0.166-0.35,0.247-0.586,0.247
				c-0.24,0-0.432-0.082-0.581-0.251c-0.149-0.165-0.227-0.41-0.227-0.736v-4.525c0-0.73,0.263-1.096,0.79-1.096
				c0.271,0,0.465,0.085,0.585,0.257c0.118,0.171,0.186,0.421,0.199,0.757c0.192-0.336,0.391-0.586,0.594-0.757
				c0.208-0.172,0.478-0.257,0.821-0.257c0.344,0,0.671,0.085,0.993,0.257c0.323,0.171,0.482,0.397,0.482,0.679
				c0,0.197-0.069,0.364-0.205,0.489c-0.137,0.132-0.283,0.196-0.441,0.196c-0.063,0-0.207-0.039-0.434-0.112
				c-0.228-0.071-0.432-0.109-0.603-0.109c-0.239,0-0.435,0.065-0.585,0.188c-0.152,0.128-0.27,0.312-0.353,0.556
				c-0.08,0.247-0.138,0.542-0.171,0.879C264.254,482.841,264.238,483.254,264.238,483.742"/>
			<path style="fill:#303030;" d="M271.708,483.183h-3.18c0.007,0.369,0.078,0.696,0.222,0.977c0.148,0.279,0.34,0.493,0.58,0.638
				c0.241,0.142,0.504,0.212,0.795,0.212c0.194,0,0.372-0.02,0.532-0.069c0.159-0.043,0.316-0.116,0.468-0.213
				c0.151-0.097,0.288-0.2,0.416-0.314c0.127-0.109,0.292-0.261,0.495-0.451c0.084-0.07,0.203-0.108,0.355-0.108
				c0.169,0,0.301,0.046,0.406,0.139c0.104,0.093,0.153,0.22,0.153,0.387c0,0.147-0.056,0.318-0.168,0.514
				c-0.117,0.198-0.29,0.386-0.524,0.567c-0.234,0.18-0.525,0.331-0.875,0.447c-0.351,0.12-0.755,0.18-1.211,0.18
				c-1.047,0-1.857-0.296-2.435-0.892c-0.579-0.596-0.871-1.404-0.871-2.423c0-0.48,0.072-0.927,0.217-1.338
				c0.142-0.413,0.35-0.762,0.625-1.058c0.274-0.295,0.608-0.519,1.012-0.675c0.398-0.156,0.843-0.234,1.333-0.234
				c0.633,0,1.178,0.133,1.633,0.404c0.454,0.265,0.799,0.611,1.022,1.036c0.226,0.427,0.34,0.857,0.34,1.3
				c0,0.406-0.119,0.671-0.353,0.793C272.461,483.122,272.133,483.183,271.708,483.183 M268.528,482.259h2.946
				c-0.039-0.555-0.188-0.971-0.447-1.244c-0.263-0.278-0.602-0.414-1.027-0.414c-0.405,0-0.737,0.138-0.998,0.419
				C268.743,481.299,268.584,481.712,268.528,482.259"/>
			<path style="fill:#303030;" d="M278.467,483.183h-3.178c0.004,0.369,0.078,0.696,0.222,0.977
				c0.145,0.279,0.338,0.493,0.576,0.638c0.24,0.142,0.506,0.212,0.798,0.212c0.192,0,0.371-0.02,0.529-0.069
				c0.161-0.043,0.316-0.116,0.47-0.213c0.151-0.097,0.289-0.2,0.416-0.314c0.125-0.109,0.291-0.261,0.494-0.451
				c0.084-0.07,0.204-0.108,0.355-0.108c0.169,0,0.304,0.046,0.407,0.139c0.104,0.093,0.151,0.22,0.151,0.387
				c0,0.147-0.054,0.318-0.172,0.514c-0.11,0.198-0.285,0.386-0.521,0.567c-0.231,0.18-0.526,0.331-0.873,0.447
				c-0.351,0.12-0.757,0.18-1.214,0.18c-1.044,0-1.853-0.296-2.435-0.892c-0.578-0.596-0.87-1.404-0.87-2.423
				c0-0.48,0.073-0.927,0.218-1.338c0.143-0.413,0.351-0.762,0.625-1.058c0.272-0.295,0.608-0.519,1.011-0.675
				c0.4-0.156,0.846-0.234,1.334-0.234c0.632,0,1.177,0.133,1.638,0.404c0.451,0.265,0.793,0.611,1.016,1.036
				c0.225,0.427,0.342,0.857,0.342,1.3c0,0.406-0.12,0.671-0.352,0.793C279.22,483.122,278.891,483.183,278.467,483.183
				 M275.289,482.259h2.945c-0.039-0.555-0.19-0.971-0.448-1.244c-0.264-0.278-0.604-0.414-1.028-0.414
				c-0.405,0-0.737,0.138-0.999,0.419C275.5,481.299,275.342,481.712,275.289,482.259"/>
			<path style="fill:#303030;" d="M282.026,480.394v0.194c0.304-0.376,0.623-0.653,0.955-0.83c0.324-0.178,0.701-0.268,1.117-0.268
				c0.498,0,0.962,0.13,1.383,0.387c0.42,0.26,0.751,0.637,0.995,1.132c0.244,0.498,0.366,1.084,0.366,1.764
				c0,0.498-0.069,0.959-0.21,1.379c-0.139,0.419-0.337,0.768-0.581,1.053c-0.247,0.281-0.536,0.502-0.871,0.655
				c-0.34,0.151-0.696,0.228-1.082,0.228c-0.463,0-0.855-0.093-1.17-0.28c-0.315-0.184-0.615-0.46-0.902-0.818v2.438
				c0,0.712-0.262,1.072-0.779,1.072c-0.308,0-0.507-0.091-0.609-0.275c-0.095-0.188-0.146-0.454-0.146-0.809V480.4
				c0-0.31,0.065-0.538,0.199-0.693c0.136-0.149,0.322-0.229,0.556-0.229c0.23,0,0.417,0.079,0.56,0.235
				C281.955,479.872,282.026,480.096,282.026,480.394 M285.211,482.753c0-0.428-0.066-0.797-0.196-1.103
				c-0.131-0.309-0.313-0.544-0.543-0.706c-0.229-0.165-0.49-0.249-0.771-0.249c-0.448,0-0.827,0.178-1.134,0.528
				c-0.309,0.355-0.464,0.875-0.464,1.563c0,0.643,0.153,1.148,0.461,1.508c0.307,0.359,0.681,0.537,1.137,0.537
				c0.269,0,0.52-0.078,0.749-0.232c0.233-0.159,0.417-0.393,0.555-0.705C285.143,483.577,285.211,483.197,285.211,482.753"/>
			<path style="fill:#303030;" d="M288.48,478.723c-0.228,0-0.42-0.071-0.578-0.21c-0.164-0.14-0.244-0.334-0.244-0.587
				c0-0.23,0.083-0.42,0.249-0.57c0.164-0.146,0.354-0.223,0.573-0.223c0.213,0,0.398,0.066,0.56,0.2
				c0.162,0.138,0.244,0.335,0.244,0.593c0,0.25-0.079,0.445-0.236,0.586C288.889,478.651,288.7,478.723,288.48,478.723
				 M289.284,480.4v4.701c0,0.323-0.077,0.569-0.231,0.734c-0.156,0.169-0.352,0.251-0.59,0.251s-0.429-0.083-0.581-0.255
				c-0.147-0.173-0.224-0.416-0.224-0.73v-4.654c0-0.319,0.076-0.561,0.224-0.723c0.152-0.166,0.343-0.246,0.581-0.246
				s0.434,0.08,0.59,0.246C289.207,479.887,289.284,480.113,289.284,480.4"/>
			<path style="fill:#303030;" d="M294.522,485.345l-1.431-2.359l-0.883,0.832v1.295c0,0.313-0.083,0.553-0.248,0.72
				c-0.162,0.171-0.355,0.255-0.568,0.255c-0.25,0-0.448-0.082-0.59-0.251c-0.142-0.165-0.215-0.411-0.215-0.736v-6.932
				c0-0.358,0.072-0.633,0.207-0.822c0.14-0.191,0.343-0.283,0.598-0.283c0.25,0,0.447,0.085,0.595,0.257
				c0.147,0.17,0.222,0.422,0.222,0.753v3.943l1.827-1.918c0.228-0.236,0.396-0.402,0.519-0.488
				c0.118-0.087,0.263-0.131,0.431-0.131c0.205,0,0.373,0.065,0.513,0.194c0.132,0.128,0.2,0.291,0.2,0.483
				c0,0.238-0.223,0.558-0.661,0.954l-0.863,0.791l1.667,2.621c0.121,0.196,0.212,0.341,0.265,0.442
				c0.053,0.1,0.081,0.2,0.081,0.289c0,0.259-0.07,0.46-0.213,0.611c-0.14,0.148-0.327,0.222-0.554,0.222
				c-0.199,0-0.354-0.052-0.461-0.161C294.852,485.818,294.704,485.623,294.522,485.345"/>
			<path style="fill:#303030;" d="M298.053,486.087c-0.244,0-0.455-0.079-0.635-0.239c-0.178-0.155-0.268-0.379-0.268-0.666
				c0-0.242,0.086-0.45,0.257-0.624c0.172-0.175,0.38-0.263,0.632-0.263c0.248,0,0.461,0.088,0.64,0.259
				c0.175,0.172,0.266,0.384,0.266,0.628c0,0.283-0.091,0.506-0.266,0.663C298.5,486.008,298.291,486.087,298.053,486.087"/>
			<path style="fill:#303030;" d="M306.136,484.076c0,0.2-0.06,0.418-0.183,0.647c-0.119,0.232-0.306,0.449-0.555,0.657
				c-0.247,0.209-0.559,0.377-0.938,0.504c-0.375,0.127-0.801,0.192-1.27,0.192c-1.008,0-1.792-0.295-2.356-0.878
				c-0.56-0.586-0.842-1.372-0.842-2.356c0-0.669,0.127-1.257,0.388-1.77c0.255-0.51,0.629-0.907,1.116-1.187
				c0.487-0.28,1.075-0.42,1.751-0.42c0.421,0,0.807,0.061,1.16,0.186c0.352,0.122,0.646,0.282,0.893,0.475
				c0.243,0.197,0.43,0.404,0.558,0.622c0.13,0.22,0.192,0.427,0.192,0.618c0,0.193-0.071,0.359-0.214,0.494
				c-0.148,0.135-0.323,0.203-0.525,0.203c-0.138,0-0.25-0.035-0.339-0.105c-0.091-0.07-0.191-0.182-0.301-0.339
				c-0.198-0.3-0.404-0.528-0.624-0.677c-0.215-0.152-0.488-0.228-0.823-0.228c-0.478,0-0.866,0.186-1.161,0.563
				c-0.293,0.374-0.44,0.891-0.44,1.538c0,0.306,0.038,0.589,0.114,0.845c0.073,0.255,0.183,0.474,0.326,0.654
				c0.145,0.18,0.315,0.316,0.517,0.409c0.204,0.097,0.428,0.142,0.668,0.142c0.325,0,0.605-0.075,0.837-0.226
				c0.236-0.151,0.44-0.381,0.617-0.69c0.1-0.183,0.205-0.325,0.32-0.429c0.114-0.103,0.256-0.156,0.423-0.156
				c0.198,0,0.363,0.077,0.493,0.227C306.069,483.744,306.136,483.905,306.136,484.076"/>
			<path style="fill:#303030;" d="M313.147,482.784c0,0.482-0.076,0.931-0.223,1.34c-0.155,0.409-0.371,0.761-0.658,1.052
				c-0.284,0.294-0.627,0.52-1.022,0.678c-0.401,0.155-0.846,0.234-1.34,0.234c-0.492,0-0.936-0.079-1.329-0.24
				c-0.391-0.155-0.734-0.385-1.02-0.678c-0.288-0.298-0.507-0.647-0.659-1.051c-0.144-0.402-0.22-0.849-0.22-1.335
				c0-0.492,0.078-0.943,0.226-1.352c0.151-0.411,0.369-0.76,0.65-1.049c0.282-0.29,0.622-0.512,1.023-0.671
				c0.402-0.155,0.845-0.234,1.329-0.234c0.49,0,0.939,0.079,1.34,0.24c0.398,0.156,0.74,0.385,1.029,0.676
				c0.287,0.297,0.504,0.645,0.651,1.047C313.072,481.85,313.147,482.294,313.147,482.784 M311.516,482.784
				c0-0.663-0.146-1.179-0.436-1.547c-0.29-0.373-0.684-0.557-1.174-0.557c-0.319,0-0.599,0.083-0.843,0.247
				c-0.242,0.164-0.426,0.407-0.557,0.729c-0.131,0.322-0.197,0.698-0.197,1.127c0,0.426,0.064,0.795,0.193,1.111
				c0.13,0.32,0.314,0.563,0.555,0.73c0.242,0.168,0.523,0.253,0.849,0.253c0.49,0,0.884-0.185,1.174-0.559
				C311.37,483.951,311.516,483.436,311.516,482.784"/>
			<path style="fill:#303030;" d="M319.346,482.904v2.159c0,0.343-0.075,0.596-0.231,0.768c-0.157,0.171-0.358,0.256-0.613,0.256
				c-0.246,0-0.447-0.085-0.597-0.256c-0.154-0.173-0.232-0.426-0.232-0.768v-2.589c0-0.409-0.013-0.729-0.039-0.955
				c-0.029-0.221-0.105-0.411-0.228-0.554c-0.124-0.147-0.319-0.22-0.583-0.22c-0.533,0-0.883,0.182-1.051,0.553
				c-0.168,0.36-0.255,0.885-0.255,1.569v2.195c0,0.337-0.076,0.593-0.227,0.767c-0.156,0.171-0.355,0.258-0.604,0.258
				c-0.247,0-0.449-0.087-0.605-0.258c-0.157-0.174-0.235-0.43-0.235-0.767v-4.649c0-0.307,0.068-0.539,0.21-0.695
				c0.142-0.161,0.329-0.24,0.557-0.24c0.224,0,0.408,0.077,0.56,0.224c0.147,0.148,0.221,0.355,0.221,0.616v0.154
				c0.285-0.336,0.587-0.584,0.906-0.741c0.323-0.162,0.678-0.241,1.073-0.241c0.407,0,0.759,0.082,1.051,0.245
				c0.294,0.163,0.535,0.41,0.728,0.737c0.275-0.332,0.569-0.579,0.883-0.741c0.313-0.16,0.659-0.241,1.042-0.241
				c0.442,0,0.827,0.09,1.149,0.263c0.319,0.175,0.559,0.427,0.718,0.749c0.139,0.296,0.208,0.758,0.208,1.389v3.173
				c0,0.343-0.077,0.596-0.23,0.768c-0.155,0.171-0.36,0.256-0.613,0.256c-0.248,0-0.447-0.087-0.604-0.258
				c-0.157-0.174-0.236-0.43-0.236-0.767v-2.733c0-0.35-0.015-0.628-0.044-0.838c-0.028-0.211-0.109-0.389-0.239-0.53
				c-0.133-0.144-0.333-0.216-0.597-0.216c-0.214,0-0.418,0.066-0.61,0.193c-0.192,0.124-0.344,0.298-0.452,0.509
				C319.408,481.723,319.346,482.208,319.346,482.904"/>
			<path style="fill:#303030;" d="M243.713,482.391c-0.001-0.003-0.001-0.006-0.001-0.011
				C243.712,482.385,243.712,482.388,243.713,482.391"/>
			<path style="fill:#303030;" d="M243.795,482.91h0.002c-0.031-0.147-0.055-0.295-0.074-0.439
				C243.742,482.616,243.766,482.764,243.795,482.91"/>
			<path style="fill:#303030;" d="M244.333,484.418c-0.003-0.006-0.007-0.013-0.011-0.021
				C244.326,484.405,244.33,484.412,244.333,484.418"/>
			<path style="fill:#303030;" d="M244.282,484.317c-0.014-0.027-0.028-0.057-0.041-0.083
				C244.254,484.264,244.268,484.29,244.282,484.317"/>
			<path style="fill:#303030;" d="M243.946,483.491c0.08,0.251,0.175,0.493,0.286,0.726c-0.112-0.236-0.206-0.48-0.284-0.726
				H243.946z"/>
			<path style="fill:#303030;" d="M250.002,476.165c0.314,0,0.546,0.025,0.812,0.069l0.076-0.478c0,0-0.734-0.225-1.698-0.146
				l-0.077-0.261c0.3-0.063,0.525-0.33,0.525-0.648c0-0.365-0.297-0.661-0.663-0.661c-0.366,0-0.661,0.296-0.661,0.661
				c0,0.317,0.224,0.585,0.524,0.648l0.083,0.29c-1.024,0.141-1.839,0.541-1.839,0.541l0.144,0.44
				c0.619-0.205,1.157-0.331,1.644-0.384C249.351,476.188,249.71,476.165,250.002,476.165"/>
			<path style="fill:#303030;" d="M244.321,478.583l0.004-0.006c0.024-0.03,0.048-0.06,0.071-0.089l-0.196-0.142l-0.306-0.224
				c-0.017,0.025-0.498,0.467-0.878,1.283c-0.016-0.025-0.035-0.05-0.056-0.074c-0.114-0.124-0.272-0.188-0.475-0.185h-0.009
				c-0.126,0-0.211-0.041-0.268-0.092c0.056-0.071,0.09-0.16,0.09-0.259c0-0.23-0.188-0.419-0.42-0.419
				c-0.231,0-0.418,0.189-0.418,0.419c0,0.231,0.187,0.419,0.418,0.419c0.036,0,0.07-0.007,0.105-0.013
				c0.104,0.114,0.266,0.214,0.506,0.209c0.123-0.001,0.213,0.03,0.274,0.098c0.069,0.075,0.093,0.186,0.1,0.268
				c-0.001,0.001-0.001,0.004-0.002,0.004c-0.273,0.744-0.195,1.672-0.195,1.672l0.663,0.026c0.014-0.338,0.062-0.929,0.233-1.397
				C243.891,479.174,244.304,478.606,244.321,478.583"/>
			<path style="fill:#303030;" d="M255.767,476.719c-0.229,0-0.42,0.186-0.42,0.419c0,0.036,0.007,0.07,0.016,0.104
				c-0.114,0.104-0.214,0.269-0.211,0.509c0.001,0.122-0.029,0.212-0.098,0.272c-0.053,0.047-0.118,0.072-0.185,0.088
				c-0.493-0.691-1.101-1.112-1.101-1.112l-0.475,0.51c0.359,0.327,0.727,0.736,1.082,1.247c0.247,0.353,0.501,0.809,0.713,1.263
				l0.641-0.306c0,0-0.292-0.724-0.705-1.372c0.072-0.025,0.145-0.064,0.207-0.12c0.126-0.114,0.188-0.274,0.185-0.476
				c-0.002-0.13,0.042-0.219,0.093-0.277c0.071,0.056,0.161,0.09,0.258,0.09c0.232,0,0.42-0.188,0.42-0.419
				C256.186,476.905,255.999,476.719,255.767,476.719"/>
			<path style="fill:#303030;" d="M254.102,482.484c-0.883,0.43-2.337,0.999-4.249,1.266c-0.751,0.103-1.479,0.143-2.148,0.143
				c-0.871,0-1.641-0.066-2.232-0.14c-0.674-0.085-1.201-0.189-1.524-0.262c0.077,0.245,0.171,0.489,0.284,0.726
				c0.002,0.006,0.004,0.013,0.008,0.018c0.014,0.026,0.027,0.056,0.042,0.083c0.013,0.028,0.027,0.056,0.041,0.08
				c0.003,0.008,0.007,0.015,0.011,0.021c0.189,0.357,0.418,0.685,0.676,0.971c0.903,0.987,1.822,1.143,1.83,1.143l0.015,0.003
				l0.014,0.004c0.008,0.004,0.823,0.266,2.062,0.266c1.218,0,2.416-0.245,3.556-0.73c0.844-0.432,1.643-1.088,2.038-1.672
				c0.306-0.454,0.527-0.937,0.658-1.438c0.069-0.267,0.125-0.693,0.092-1.143C255.027,481.987,254.634,482.226,254.102,482.484"/>
			<path style="fill:#303030;" d="M244.604,478.792c-0.026,0.037-0.409,0.579-0.711,1.411c-0.227,0.624-0.217,1.531-0.217,1.542
				v0.001c0,0.214,0.012,0.425,0.036,0.634c0,0.005,0,0.008,0.001,0.011c0.002,0.027,0.007,0.053,0.009,0.08
				c0.019,0.145,0.043,0.292,0.075,0.439c0.438,0.111,3.057,0.722,5.983,0.314c1.834-0.255,3.227-0.797,4.072-1.207
				c0.701-0.341,1.154-0.649,1.328-0.775c-0.173-0.645-0.653-1.655-1.092-2.285c-1.257-1.796-2.611-2.257-3.307-2.371
				c-0.265-0.043-0.478-0.068-0.779-0.068c-0.28,0-0.628,0.022-1.092,0.071c-0.465,0.049-0.985,0.171-1.587,0.374
				c-0.845,0.282-1.608,0.727-2.21,1.283l-0.02,0.018C245.004,478.347,244.818,478.52,244.604,478.792 M252.293,478.374
				c0.601,0,1.092,0.489,1.092,1.092c0,0.603-0.49,1.093-1.092,1.093c-0.603,0-1.092-0.49-1.092-1.093
				C251.201,478.863,251.69,478.374,252.293,478.374 M247.128,478.33c0.976,0,1.765,0.791,1.765,1.766s-0.79,1.764-1.765,1.764
				c-0.975,0-1.765-0.789-1.765-1.764S246.154,478.33,247.128,478.33"/>
		</g>
	</g>
</g>
</svg>
