<?xml version="1.0" encoding="utf-8"?>
<!-- Generator: Adobe Illustrator 27.5.0, SVG Export Plug-In . SVG Version: 6.00 Build 0)  -->
<svg version="1.1" xmlns="http://www.w3.org/2000/svg" xmlns:xlink="http://www.w3.org/1999/xlink" x="0px" y="0px"
	 viewBox="0 0 2200 2200" style="enable-background:new 0 0 2200 2200;" xml:space="preserve">
<g id="background">
	<rect style="fill:#FFFFFF;" width="2200" height="2200"/>
</g>
<g id="Objects">
	<path style="fill:#C7DFE5;" d="M1292.879,1035.164c1.1-4.307,1.686-8.82,1.686-13.47c0-29.964-24.291-54.255-54.255-54.255
		c-7.796,0-15.207,1.648-21.907,4.609c-21.314-26.521-54.014-43.501-90.686-43.501c-57.227,0-104.799,41.338-114.485,95.783
		c-1.435-0.07-2.879-0.108-4.331-0.108c-48.007,0-86.924,38.917-86.924,86.924c0,46.509,36.526,84.486,82.456,86.811
		c7.022,43.72,44.915,77.12,90.614,77.12c32.965,0,61.865-17.381,78.051-43.476c11.539,8.27,25.68,13.14,40.96,13.14
		c30.762,0,56.911-19.733,66.49-47.23c3.131,0.365,6.315,0.559,9.545,0.559c45,0,81.479-36.479,81.479-81.479
		C1371.572,1072.524,1336.588,1036.633,1292.879,1035.164z"/>
	<path style="fill:#C7DFE5;" d="M1982.877,1084.883c0,39.133-25.703,72.266-61.15,83.43c-0.357,35.531-29.258,64.225-64.874,64.225
		c-9.988,0-19.449-2.257-27.895-6.292c-14.314,28.807-44.033,48.613-78.379,48.613c-27.603,0-52.215-12.791-68.241-32.757
		c-4.834,1.721-10.035,2.662-15.461,2.662c-25.101,0-45.5-20.07-46.055-45.039c-35.39-10.684-61.159-43.525-61.159-82.395
		c0-41.569,29.475-76.244,68.655-84.295c0.066-25.393,20.672-45.961,46.083-45.961c4.448,0,8.756,0.64,12.828,1.825
		c11.474-34.92,44.344-60.134,83.1-60.134c28.402,0,53.645,13.543,69.624,34.525c5.981-2.84,12.659-4.43,19.722-4.43
		c23.079,0,42.199,16.966,45.557,39.114C1948.916,1002.855,1982.877,1039.9,1982.877,1084.883z"/>
	<path style="fill:#C7DFE5;" d="M767.143,1118.211c0-13.742-11.14-24.883-24.883-24.883c-2.981,0-5.839,0.526-8.488,1.487
		c-2.429-11.196-12.389-19.583-24.312-19.583c-4.218,0-8.188,1.053-11.668,2.905c-7.723-21.284-26.628-37.202-49.616-40.656
		c-5.929-28.179-30.923-49.338-60.866-49.338c-9.485,0-18.469,2.132-26.513,5.928c-17.176-25.413-46.256-42.121-79.238-42.121
		c-35.815,0-67.009,19.713-83.376,48.868c-1.786-0.141-3.586-0.234-5.409-0.234c-30.091,0-55.592,19.593-64.483,46.712
		c-17.86,1.777-33.67,10.488-44.73,23.392c-4.43-1.448-9.155-2.242-14.069-2.242c-14.219,0-26.9,6.565-35.193,16.824
		c-3.463-1.363-7.231-2.121-11.179-2.121c-16.865,0-30.538,13.672-30.538,30.538s13.672,30.538,30.538,30.538
		c3.947,0,7.715-0.757,11.179-2.121c8.294,10.259,20.974,16.824,35.193,16.824c4.365,0,8.58-0.631,12.574-1.784
		c12.435,15.558,31.56,25.536,53.026,25.536c0.897,0,1.785-0.033,2.673-0.068c12.378,26.745,39.435,45.309,70.843,45.309
		c15.965,0,30.803-4.803,43.167-13.029c15.778,22.247,41.717,36.781,71.066,36.781c30.203,0,56.808-15.38,72.429-38.73
		c5.938,2.358,12.406,3.668,19.184,3.668c20.29,0,37.855-11.623,46.433-28.566c8.942,7.25,20.33,11.601,32.738,11.601
		c28.734,0,52.027-23.293,52.027-52.027c0-1.596-0.083-3.172-0.224-4.732C757.674,1141.328,767.143,1130.879,767.143,1118.211z"/>
	<path style="fill:#C7DFE5;" d="M1283.854,448.486c-4.641,0-9.183,0.41-13.611,1.157c-11.202-53.116-58.333-92.987-114.783-92.987
		c-54.048,0-99.551,36.552-113.158,86.283c-7.599-2.084-15.597-3.203-23.858-3.203c-49.706,0-90.001,40.295-90.001,90.001
		c0,47.814,37.288,86.913,84.37,89.82c7.939,36.549,40.455,63.931,79.382,63.931c30.139,0,56.426-16.423,70.452-40.796
		c12.29,16.335,31.836,26.901,53.852,26.901c34.237,0,62.487-25.551,66.773-58.62c0.195,0.001,0.387,0.015,0.583,0.015
		c44.874,0,81.251-36.377,81.251-81.251S1328.728,448.486,1283.854,448.486z"/>
	<path style="fill:#C7DFE5;" d="M608.92,437.986c-2.687,0-5.338,0.11-7.952,0.329c-17.276-49.104-64.058-84.314-119.085-84.314
		c-65.301,0-119.03,49.598-125.539,113.18c-6.106-1.444-12.486-2.212-19.031-2.212c-45.429,0-82.248,36.819-82.248,82.248
		c0,45.429,36.819,82.248,82.248,82.248c10.306,0,20.163-1.904,29.254-5.364c20.18,36.963,59.399,62.041,104.478,62.041
		c45.302,0,84.682-25.326,104.773-62.589c10.321,3.807,21.464,5.912,33.103,5.912c52.87,0,95.74-42.87,95.74-95.74
		C704.66,480.856,661.79,437.986,608.92,437.986z"/>
	<path style="fill:#C7DFE5;" d="M1997.127,527.091c0-53.336-43.238-96.574-96.574-96.574c-3.166,0-6.294,0.163-9.381,0.461
		c-23.259-35.138-63.12-58.326-108.414-58.326c-64.327,0-117.703,46.754-128.083,108.128c-0.619-0.016-1.235-0.047-1.859-0.047
		c-24.851,0-46.636,13.084-58.874,32.731c-3.325-0.948-6.822-1.487-10.45-1.487c-21.031,0-38.08,17.049-38.08,38.08
		c0,21.031,17.049,38.08,38.08,38.08c3.628,0,7.125-0.539,10.45-1.487c10.919,17.53,29.441,29.822,50.96,32.268
		c6.37,36.904,38.514,64.983,77.237,64.983c26.835,0,50.512-13.49,64.646-34.05c13.821,11.402,31.538,18.251,50.854,18.251
		c31.57,0,58.858-18.3,71.859-44.865C1958.638,618.721,1997.127,577.409,1997.127,527.091z"/>
	<path style="fill:#C7DFE5;" d="M730.015,1675.215c-2.578,0-5.082,0.315-7.483,0.894c-7.142-12.468-18.873-21.962-32.9-26.175
		c-4.542-36.088-35.32-64.008-72.64-64.008c-8.371,0-16.406,1.423-23.898,4.01c-24.516-35.614-65.56-58.967-112.065-58.967
		c-53.651,0-100.037,31.079-122.156,76.212c-4.508-0.662-9.116-1.016-13.808-1.016c-35.042,0-65.595,19.13-81.849,47.502
		c-3.991-0.963-8.153-1.486-12.44-1.486c-29.201,0-52.872,23.672-52.872,52.872s23.672,52.872,52.872,52.872
		c6.095,0,11.944-1.044,17.392-2.942c17.086,24.051,45.148,39.758,76.897,39.758c6.969,0,13.754-0.779,20.292-2.213
		c1.595,22.267,20.152,39.84,42.825,39.84c12.942,0,24.538-5.732,32.412-14.787c16.562,14.423,38.19,23.177,61.877,23.177
		c30.446,0,57.505-14.445,74.744-36.84c9.814,7.664,22.154,12.244,35.57,12.244c31.084,0,56.433-24.515,57.789-55.265
		c0.903,0.043,1.811,0.069,2.724,0.069c19.097,0,35.977-9.448,46.254-23.915c3.277,1.141,6.795,1.77,10.461,1.77
		c17.564,0,31.803-14.239,31.803-31.803C761.818,1689.454,747.58,1675.215,730.015,1675.215z"/>
	<path style="fill:#C7DFE5;" d="M1343.104,1677.198c-2.929-40.574-36.75-72.588-78.07-72.588c-4.841,0-9.572,0.462-14.17,1.303
		c-11.658-46.083-53.395-80.185-103.101-80.185c-50.609,0-92.958,35.353-103.707,82.709c-0.877-0.028-1.757-0.046-2.641-0.046
		c-35.647,0-66.026,22.551-77.653,54.164c-0.952-0.059-1.908-0.099-2.875-0.099c-25.37,0-45.936,20.566-45.936,45.936
		c0,21.467,14.727,39.49,34.627,44.529c-0.014,0.468-0.036,0.935-0.036,1.407c0,25.37,20.566,45.936,45.936,45.936
		c9.779,0,18.837-3.065,26.286-8.274c12.532,31.635,43.4,54.01,79.495,54.01c25.938,0,49.174-11.556,64.85-29.797
		c9.753,6.998,21.701,11.131,34.621,11.131c21.865,0,40.962-11.808,51.295-29.388c8.422,9.706,20.839,15.853,34.698,15.853
		c25.37,0,45.936-20.566,45.936-45.936c25.37,0,45.936-20.566,45.936-45.936C1378.596,1700.152,1363.439,1681.929,1343.104,1677.198
		z"/>
	<path style="fill:#C7DFE5;" d="M2007.419,1686.183c0-29.422-23.851-53.273-53.273-53.273c-2.631,0-5.216,0.199-7.745,0.567
		c-6.439-22.181-26.895-38.4-51.153-38.4c-1.686,0-3.351,0.088-4.996,0.241c-17.967-29.674-50.553-49.508-87.774-49.508
		c-42.932,0-79.681,26.396-94.958,63.835c-0.148-0.001-0.293-0.011-0.441-0.011c-20.858,0-38.904,11.994-47.65,29.455
		c-0.491-0.013-0.98-0.037-1.474-0.037c-12.862,0-24.659,4.559-33.864,12.148c-4.843-1.835-10.091-2.849-15.577-2.849
		c-13.775,0-26.065,6.337-34.128,16.251c-3.079-1.094-6.392-1.694-9.846-1.694c-16.247,0-29.417,13.171-29.417,29.417
		c0,16.247,13.171,29.417,29.417,29.417c3.454,0,6.767-0.6,9.846-1.694c8.063,9.914,20.353,16.251,34.128,16.251
		c5.486,0,10.734-1.013,15.577-2.849c9.206,7.589,21.002,12.148,33.864,12.148c3.143,0,6.216-0.288,9.209-0.81
		c4.067,25.385,26.06,44.784,52.592,44.784c6.172,0,12.092-1.062,17.605-2.992c11.417,22.448,34.718,37.836,61.627,37.836
		c22.697,0,42.837-10.942,55.438-27.837c10.43,5.946,22.49,9.36,35.355,9.36c37.963,0,69-29.584,71.355-66.953
		C1987.252,1735.56,2007.419,1713.234,2007.419,1686.183z"/>
</g>
</svg>
