<?xml version="1.0" encoding="utf-8"?>
<!-- Generator: Adobe Illustrator 27.5.0, SVG Export Plug-In . SVG Version: 6.00 Build 0)  -->
<svg version="1.1" xmlns="http://www.w3.org/2000/svg" xmlns:xlink="http://www.w3.org/1999/xlink" x="0px" y="0px"
	 viewBox="0 0 750 500" style="enable-background:new 0 0 750 500;" xml:space="preserve">
<g id="BACKGROUND">
	<rect style="fill:#FFFFFF;" width="750" height="500"/>
</g>
<g id="OBJECTS">
	<path style="fill:#09203F;" d="M376.935,326.378c0,0-38.666-124.758-40.478-125.664c-1.813-0.906-3.927,6.344-3.927,6.344
		l1.208,2.719c0,0-3.323,3.323-3.323,5.135c0,1.812,1.208,3.927,1.208,3.927s-2.417,5.135-3.323,9.062c-0.906,3.927,0,6.948,0,6.948
		l2.115,2.115l-2.517,11.177c0,0-25.274-30.812-28.295-30.812s-3.323,6.041-3.323,6.041s0.302,7.552,0,8.76
		c-0.302,1.208,1.813,3.021,1.813,3.021s-1.585,5.014-1.07,8.491c0.515,3.477,2.447,5.538,2.447,5.538l1.159,9.53
		c0.644,3.22,2.447,5.666,2.447,5.666s0,4.507,0.901,6.825c0.902,2.318,2.962,5.28,2.962,5.28s0.129,7.083,1.674,10.56
		c1.545,3.477,3.348,4.894,3.348,4.894s7.598,20.476,8.371,22.408c0.773,1.932,0.773,8.242,1.932,9.916
		c1.159,1.674,1.545,5.666,1.545,5.666s-0.773,3.863,0.515,5.924c1.288,2.06,0.773,5.409,2.318,6.954s10.56,0,10.56,0l-3.219,9.143
		c0,0-11.719,12.105-16.87,23.18c-5.151,11.075-22.141,39.256-22.141,39.256l5.035-3.625c0,0-6.444,8.458-5.035,8.055
		c1.41-0.403,6.042-4.43,6.042-4.43s-3.222,5.035-2.014,6.646c1.208,1.611,6.444-2.618,6.444-2.618s-2.014,11.076-1.41,11.479
		c0.604,0.403,5.035,0.403,7.854-1.813c2.819-2.215,5.84-7.048,5.84-7.048s-1.812,8.66-1.208,11.479
		c0.604,2.819,4.431,7.048,4.431,7.048s5.437-1.813,6.847-4.632s4.833-17.923,4.833-17.923s-2.014,18.326,0,22.555
		c2.014,4.229,6.646,6.444,6.646,6.444s4.833-0.806,5.84-5.84c1.007-5.035,1.611-30.812,1.611-30.812s4.229,20.743,6.444,24.77
		c2.215,4.028,11.68,8.66,11.68,8.66s1.41-5.236,1.812-10.069c0.403-4.833-16.312-49.742-16.312-49.742s19.534-4.229,26.583-8.458
		c7.048-4.229,9.465-10.069,9.465-10.069s5.437-0.201,9.667-7.653c4.229-7.451,13.896-20.944,16.916-23.764
		c3.021-2.819,9.465-9.666,15.909-10.673c6.444-1.007,43.902,5.236,44.506,4.632c0.604-0.604-10.673-5.84-20.743-7.451
		c-10.069-1.611-23.965-4.632-23.965-4.632c-5.035-2.417-11.076-8.458-20.139-9.465c-9.062-1.007-13.291-0.806-18.125,4.229
		C385.595,314.697,376.935,326.378,376.935,326.378z"/>
	<path style="fill:#09203F;" d="M317.777,75.633c0,0,40.852-28.922,41.937-27.476c1.084,1.446-37.599,32.899-37.599,32.899
		s-0.362,9.038-6.869,18.076c-6.507,9.038-9.038,14.461-9.038,28.199s-6.508,24.222-15.546,36.876
		c-9.038,12.653-48.083,19.161-48.083,19.161s-7.23,2.169-4.7,12.292c2.531,10.123,11.569,32.537,10.846,38.683
		c-0.723,6.146-2.892,10.123-2.892,10.123l-6.508-10.123c0,0-1.075,9.761-1.983,10.123c-0.909,0.362-4.885-7.23-4.885-7.23
		s-2.531,6.894-5.061,7.243c-2.531,0.349-7.953-10.497-7.953-10.497l-6.507,9.038c-2.169-2.169-4.7-11.93-4.7-11.93
		s-3.615,5.784-5.423,3.254c-1.808-2.531,0-12.292,0-12.292s-5.784,6.146-6.869,3.254c-1.085-2.892,7.23-40.491,7.23-40.491
		c5.784-11.569,26.03-28.922,26.03-28.922s-6.869,1.085-7.592-1.446c-0.723-2.531,1.085-3.977,1.085-3.977
		s-13.376-1.478-15.546-4.173c-2.169-2.696,1.446-3.419,1.446-3.419s-19.161-5.423-19.884-7.954
		c-0.723-2.531,3.977-3.977,3.977-3.977s-13.376-7.23-15.184-10.846c-1.808-3.615,1.808-3.977,1.808-3.977
		s-14.461-13.376-14.461-16.63c0-3.254,5.423-0.362,5.423-0.362s-13.738-14.099-13.015-15.907c0.723-1.808,5.423-0.361,5.423-0.361
		l-9.761-15.907c1.808-3.254,86.766,37.96,86.766,37.96l-1.808-8.677c1.446-1.808,3.977-0.361,3.977-0.361s-6.507-12.653-4.7-15.184
		c1.808-2.531,4.7,2.169,4.7,2.169s-5.784-13.015-4.338-14.823c1.446-1.808,4.338,0.723,4.338,0.723s-5.784-10.846-3.615-14.461
		c2.169-3.615,4.338-1.084,4.338-1.084s-1.808-17.715,0.723-19.884c2.531-2.169,37.598,57.121,37.598,57.121
		S289.216,59.003,317.777,75.633z"/>
	<path style="fill:#09203F;" d="M417.695,56.607c0,0,27.808,16.906,33.676,26.307c5.868,9.401,5.835,29.882,3.414,40.95
		c-2.421,11.068-6.369,24.701-3.042,39.538c3.327,14.837,8.356,22.663,8.356,22.663s-2.601,5.434-1.469,8.33
		c1.132,2.896,2.047,3.599,2.047,3.599l0.039-3.73c0.562-1.237,2.438-1.603,2.438-1.603s-1.7,7.105-0.382,8.85
		c1.318,1.745,2.709,2.486,2.709,2.486s-1.589-5.834-0.254-6.61c1.335-0.776,3.32,0.581,3.32,0.581s1.096,3.989,0.366,5.159
		c-0.73,1.17,2.814-0.385,3.013-2.624c0.198-2.239,1.507,4.651-0.204,8.258s-5.303,21.06-5.221,31.583
		c0.082,10.523,3.368,14.067,3.368,14.067l4.618-3.757c0.787-2.388,2.738-6.464,2.738-6.464s-0.437,9.262,0.603,12.579
		c1.04,3.317,3.762,6.208,3.762,6.208s4.702-6.564,4.56-7.125c-0.142-0.561-1.614-7.15-1.614-7.15l2.678,3.499
		c0,0,2.966-10.699,3.828-17.284c0.863-6.585,1.923-25.156,1.92-25.952c-0.003-0.795,4.839-7.593,5.476-12.927
		c0.637-5.334,0.823-19.506,0.823-19.506s8.08-3.441,11.911-4.811s21.883-1.57,22.247-4.845c0.363-3.275,19.409-0.346,20.433-1.799
		c1.024-1.453,20.248-0.956,20.248-0.956c1.817-2.251,23.147-1.293,23.75-2.839c0.603-1.546,21.459-2.457,21.923-3.768
		c0.463-1.311-41.074-19.979-80.205-20.524c18.442-1.018,19.93-3.782,19.93-3.782s4.497-1.096,5.492-2.664
		c0.995-1.567,5.487-1.115,6.698-2.615c1.211-1.501,3.504-1.087,4.012-3.007c0.508-1.919-9.528-10.117-39.226-9.55
		c-29.697,0.567-50.188,13.123-50.846,12.097c-0.658-1.027-1.383-7.806-1.383-7.806s5.731-6.427,3.354-18.158
		s-10.016-15.962-19.752-18.268c-9.736-2.306-17.332-7.94-24.978-14.556C435.223,62.066,415.977,51.516,417.695,56.607z"/>
	<path style="fill:#09203F;" d="M113.7,276.794c0,0-48.98-55.533-51.049-53.809c-2.07,1.725,0,10.348,0,10.348l5.174,6.898
		c0,0-3.018-1.371-3.018,1.016s5.133,15.517,5.133,15.517s-2.387-2.626-2.507-1.194c-0.119,1.432,5.013,14.324,5.013,14.324
		s-2.148-0.477-2.148,1.074c0,1.552,7.639,14.443,7.639,14.443s-2.507-1.91-2.387,0c0.119,1.91,7.878,12.056,7.878,12.056
		s-2.745,0.358-2.387,1.313c0.358,0.955,12.056,11.817,12.056,11.817s-2.626,0.836-2.387,1.79
		c0.239,0.955,14.443,9.549,14.443,9.549s-3.939-0.955-3.82,0.478c0.119,1.432,4.774,5.491,5.849,6.087
		c1.074,0.597,1.552,3.581,3.82,4.297c2.268,0.716,3.342,1.313,3.342,1.313s-5.729,1.552-5.252,3.103
		c0.478,1.552,5.968,2.029,5.968,2.029s-5.625,11.563-4.405,24.433c1.219,12.87,8.806,38.475,11.922,48.229
		c3.116,9.754,14.496,48.636,14.36,47.823c-0.136-0.813,2.98-5.826,2.303-12.87c-0.677-7.045-2.574-14.631-2.574-14.631l4.877,4.064
		c0,0-0.135-4.606,0-7.858c0.135-3.251-7.045-19.644-7.045-19.644s9.89,8.128,11.922,8.128c2.032,0,3.658-1.761,3.658-1.761
		l-7.722-12.464c0,0,10.703,4.606,12.193,4.064c1.49-0.542-0.813-11.38-5.419-16.934c-4.606-5.555-16.393-15.038-16.393-15.038
		l1.626-5.69c0,0,7.587-4.064,11.516-7.993c3.929-3.929,13.818-18.425,17.07-27.366c3.251-8.941,12.057-15.715,17.205-17.07
		c5.148-1.355,8.806-0.677,8.806-0.677l38.746,19.102l-39.152-24.521c0,0-3.793-6.638-6.909-9.212
		c-3.116-2.574-8.806-5.419-17.883-2.574c-9.077,2.845-15.851,8.128-15.851,8.128s-11.922-50.803-17.07-67.331
		c-5.148-16.528-10.432-31.159-11.651-31.159s0.406,13.412,0.406,13.412s-1.49-0.542-2.168,0s2.439,18.831,2.439,18.831
		s-3.116-8.671-4.335-7.993c-1.219,0.677-0.948,11.786-0.271,15.173c0.677,3.387,1.626,6.367,1.626,6.367s-2.709-3.793-3.387-2.98
		c-0.677,0.813-0.542,7.722,0.271,9.89c0.813,2.168,2.709,6.232,2.709,6.232s-2.709-2.439-3.116-1.761
		C112.957,266.271,113.7,276.794,113.7,276.794z"/>
	<path style="fill:#09203F;" d="M691.485,431.937c0,0,3.667-0.611,4.583-1.528c0.917-0.917-14.971-17.415-24.443-36.664
		c-9.472-19.249-14.36-37.581-20.777-46.441c-6.416-8.861-18.026-15.277-18.026-15.277s14.054,2.444,17.416-1.528
		c3.361-3.972,2.139-15.888,2.139-15.888s14.666-20.165,17.11-24.748c2.444-4.583,0.306-6.722,0.306-6.722s7.638-11.61,8.86-14.971
		c1.222-3.361-1.528-3.361-1.528-3.361s5.805-4.277,6.416-8.86c0.611-4.583-1.528-5.194-1.528-5.194s4.888-7.638,5.194-9.777
		c0.305-2.139-2.139-2.75-2.139-2.75s7.944-12.221,6.111-13.444c-1.833-1.222-4.583-1.528-4.583-1.528s8.25-10.694,7.638-13.444
		c-0.611-2.75-40.025,30.248-57.441,58.357c-17.416,28.109-21.693,37.275-21.693,37.275s0.306-4.583-0.917-6.722
		c-1.222-2.139-3.361-2.139-3.361-2.139s2.139-11.61,1.528-13.138c-0.611-1.528-3.667-1.528-3.667-1.528s3.361-5.5,2.75-8.555
		c-0.611-3.055-3.666-2.139-3.666-2.139s3.361-18.943,2.444-21.388c-0.917-2.444-19.86,38.497-19.86,38.497
		s-19.555-13.138-38.803,10.083c0,0-44.914,4.889-47.358,6.416c-2.444,1.528,5.194,2.139,10.694,1.222
		c5.5-0.917,19.249-2.5,30.248-0.18c10.999,2.319,12.617,8.225,18.332,18.818c2.861,5.304,10.141,11.402,10.141,11.402
		s6.58,21.097,8.413,23.236c1.833,2.139,5.278,12.414,25.749,20.664c4.99,2.011,9.721,3.547,14.03,4.724
		c-0.381,0.525-0.678,1.098-0.82,1.748c-0.108,0.492-0.124,1-0.118,1.504c0.018,1.49,0.232,2.978,0.635,4.413
		c0.081,0.291,0.333,0.653,0.596,0.505c0.139-0.079,0.171-0.26,0.195-0.419c0.198-1.313,0.86-2.526,1.796-3.467
		c0.932,2.442,2.122,4.003,4.802,4.519c0.317,0.061,0.732,0.076,0.868-0.217c0.065-0.14,0.036-0.303,0.006-0.454
		c-0.092-0.462-0.206-0.963-0.57-1.263c-0.263-0.217-0.615-0.291-0.906-0.468c-0.553-0.337-0.821-1.018-0.832-1.665
		c-0.011-0.647,0.194-1.277,0.396-1.892c1.155-0.118,2.295-0.349,3.417-0.648c0.276,0.052,0.544,0.101,0.813,0.151
		c0.958,2.046,0.84,4.57-0.347,6.496c0.626,0.228,1.348-0.009,1.855-0.441c0.507-0.432,0.838-1.032,1.132-1.63
		c0.6-1.217,1.101-2.471,1.448-3.751c5.182,0.752,8.27,0.811,8.27,0.811s38.192,45.83,39.414,48.58
		c1.222,2.75-5.5-14.971-5.5-14.971s17.11,23.221,19.86,24.137C700.957,447.213,691.485,431.937,691.485,431.937z"/>
</g>
</svg>
