<?xml version="1.0" encoding="utf-8"?>
<!-- Generator: Adobe Illustrator 27.5.0, SVG Export Plug-In . SVG Version: 6.00 Build 0)  -->
<svg version="1.1" xmlns="http://www.w3.org/2000/svg" xmlns:xlink="http://www.w3.org/1999/xlink" x="0px" y="0px"
	 viewBox="0 0 500 500" style="enable-background:new 0 0 500 500;" xml:space="preserve">
<g id="BACKGROUND">
	<rect style="fill:#FFFFFF;" width="500" height="500"/>
</g>
<g id="OBJECTS">
	<path d="M176.14,137.56c-0.564-0.025-1.105,0.225-1.653,0.34c-1.448,0.384-2.879,0.832-4.28,1.364
		c-7.671,2.793-14.356,8.727-17.257,16.444c-0.926,2.593-0.929,5.369-1.171,8.077c-0.031,1.002-1.047,1.447-1.69,2.06
		c-2.321,1.88-4.299,4.14-6.119,6.497c-1.321,1.691-2.609,3.422-3.771,5.23c0.701-3.2,1.042-6.462,0.811-9.735
		c-0.108-1.47,1.077-2.551,1.611-3.824c0.366-0.616,0.321-1.213-0.005-1.645c0.15-0.105,0.262-0.257,0.285-0.443
		c0.331-1.059,0.839-2.055,1.325-3.05c2.35-4.077,3.576-8.137,3.201-12.878c-0.18-2.946-0.675-5.862-0.97-8.798
		c-0.497-4.656-1.097-9.457-3.599-13.523c-0.471-0.827-1.016-1.622-1.591-2.382c-0.612-0.963-1.491-1.483-2.373-0.498
		c-1.385,1.654-2.291,3.672-3.225,5.604c-1.327,2.856-2.393,5.844-3.099,8.914c-1.601,6.985-0.839,14.403,1.922,21
		c0.734,2.127,2.008,3.96,3.323,5.758c-1.025,1.024-0.415,3.073,0.744,3.865c0.314,0.225,0.668,0.538,1.081,0.406
		c0.173-0.053,0.135,0.069,0.13,0.091c-0.329,1.446-0.014,2.96-0.121,4.431c-0.027,1.711-0.247,3.422-0.495,5.112
		c-0.172,1.161-0.371,2.317-0.495,3.485c-0.014,0.25-0.077,0.511-0.016,0.759c0.002,0.005,0.006,0.008,0.008,0.013
		c-0.125,0.24-0.267,0.469-0.386,0.712c-1.116,2.457-2.077,4.979-2.967,7.527c-0.319-1.442-0.868-2.826-1.716-4.054
		c-1.086-1.8-2.874-2.943-4.275-4.458c-1.254-1.187-1.98,1.276-2.479,2.098c-1.226,2.662-1.146,5.781-0.504,8.589
		c0.732,3.028,2.643,5.923,5.622,7.099c0.156,0.068,0.319,0.12,0.481,0.175c-0.183,0.693-0.38,1.382-0.554,2.077
		c-1.148,5.091-2.178,10.217-2.97,15.377c-1.176-3.667-2.27-7.361-3.306-11.068c-1.876-6.382-3.554-12.82-4.979-19.316
		c0.111-0.045,0.219-0.102,0.332-0.149c3.14-1.165,5.702-6.076,6.654-9.145c0.603-1.842,1.036-3.753,1.02-5.702
		c-0.005-0.652,0.117-1.474-0.442-1.943c-1.149-0.769-3.62,0.848-4.349,1.81c-1.158,1.508-2.031,3.235-2.883,4.931
		c-0.709,1.368-0.864,2.919-1.027,4.428c-0.01,0.551-0.1,1.151-0.145,1.746c-0.33-1.647-0.668-3.293-0.959-4.948
		c-0.84-4.52-1.631-9.054-2.256-13.61c0.061,0,0.121,0.017,0.183-0.001c2.046-1.018,4.131-2.176,5.684-3.885
		c3.105-3.386,3.833-8.137,3.702-12.577c0.064-0.82-0.611-1.309-1.326-0.848c-1.716,0.871-3.399,1.842-4.855,3.111
		c-2.17,1.953-3.503,4.729-4.144,7.546c-0.001,0.003-0.002,0.007-0.002,0.011c-0.437-4.621-0.621-9.262-0.636-13.904
		c1.546-0.189,3.104-0.473,4.539-1.096c4.497-1.574,7.648-5.415,8.921-9.937c0.193-0.795,0.854-1.691,0.452-2.502
		c-0.201-0.303-0.525-0.381-0.869-0.344c-0.937,0.111-1.874,0.256-2.797,0.449c-4.45,0.749-7.629,3.292-9.71,7.257
		c-0.181,0.356-0.33,0.726-0.501,1.087c0.045-3.036,0.089-6.074,0.283-9.106c0.037-0.422,0.091-0.843,0.133-1.265
		c0.059,0.006,0.118,0.011,0.174,0.018c1.444,0.298,2.939,0.188,4.331-0.295c3.356-1.001,5.828-3.322,7.352-6.432
		c0.738-1.259,1.633-2.531,1.881-3.993c0.049-0.685-0.647-0.985-1.227-1.034c-0.765-0.147-1.542-0.209-2.321-0.194
		c-3.624,0.001-6.693,2.214-8.485,5.26c-0.394,0.531-0.743,1.088-1.077,1.653c0.06-0.397,0.126-0.793,0.19-1.19
		c0.055-0.083,0.111-0.166,0.165-0.249c2.139-3.017,3.703-6.369,5.387-9.646c2.444-4.249,5.392-8.243,8.827-11.743
		c0.173,0.185,0.474,0.27,0.725,0.204c0.601-0.161,1.206-0.345,1.775-0.599c0.628-0.258,1.39-0.833,1.128-1.599
		c0.759-0.316,1.523-0.624,2.288-0.921c3.141-1.263,6.331-2.41,9.398-3.845c3.042-1.466,5.363-4.035,7.484-6.598
		c1.751-2.212,2.88-4.827,4.136-7.336c0.811-1.668,1.488-3.398,2.008-5.179c0.309-1.15,1.193-3.342-0.524-3.726
		c-0.598-0.056-1.173,0.197-1.748,0.327c-1.8,0.493-3.584,1.04-5.373,1.579c-3.993,1.213-7.949,2.627-11.642,4.588
		c-1.746,0.868-3.008,2.392-4.188,3.901c-1.598,1.916-2.825,4.092-3.811,6.379c-0.88,2.204-2.633,6.053-2.427,8.821
		c-0.777,0.386-0.62,1.904-0.334,3.357c-3.246,2.954-5.88,6.524-8.262,10.196c-1.673,2.808-2.853,5.875-4.434,8.735
		c0.135-0.733,0.268-1.467,0.412-2.198c1.418-6.456,2.658-12.955,4.315-19.356c0.852-3.218,1.896-6.38,2.725-9.605
		c0.996-3.852,1.853-7.736,2.701-11.623c0.423-1.778,0.841-3.569,1.451-5.294c0.038-0.175,0.18-0.283,0.263-0.429
		c0.056-0.12,0.059-0.236,0.037-0.344c0.111-0.082,0.215-0.177,0.307-0.275c0.274-0.263,0.541-0.532,0.8-0.81
		c0.561-0.601,1.104-1.223,1.61-1.87c0.162-0.18,0.329-0.413,0.436-0.657c0.51-0.065,0.938-0.588,1.368-0.852
		c2.021-1.503,3.395-3.613,4.814-5.652c0.895-1.228,1.847-2.422,2.632-3.726c2.359-4.344,2.867-9.437,2.976-14.306
		c0.049-3.098,0.027-6.201-0.123-9.297c-0.201-1.34,0.2-4.178-1.235-4.82c-0.899-0.256-1.676,0.513-2.417,0.914
		c-4.326,2.846-7.66,6.916-11.256,10.588c-4.523,4.535-4.215,11.397-3.535,17.298c0.256,3.027,0.998,5.978,1.497,8.961
		c0.049,0.198,0.191,0.346,0.364,0.425c-0.124,0.382-0.153,0.792-0.174,1.192c-0.018,1.086-0.017,2.19,0.182,3.257
		c0.031,0.08,0.076,0.142,0.129,0.194c-0.05,0.136-0.098,0.273-0.149,0.401c-0.367,1.01-0.691,2.033-0.985,3.066
		c-1.196,4.187-2.206,8.427-3.367,12.622c-0.078,0.288-0.173,0.571-0.254,0.858c-0.293-3.423-0.832-6.843-2.027-10.062
		c0.294-0.342,0.281-0.855,0.419-1.272c0.123-0.745,0.4-1.551,0.377-2.322c0.099-0.24,0.212-0.474,0.298-0.718
		c0.567-1.648,0.923-3.358,1.306-5.056c1.644-7.248-0.599-15-4.924-20.916c-2.396-3.106-7.043-8.847-11.123-9.214
		c-1.357-0.088-1.503,0.753-1.665,1.847c-0.238,1.392-0.403,2.795-0.565,4.197c-0.402,3.822-0.711,7.748,0.087,11.537
		c1.057,4.682,3.315,9.024,5.859,13.061c1.427,2.093,3.244,3.91,5.24,5.461c-0.529,0.386-0.708,1.106-0.008,1.519
		c2.91,1.363,3.445,1.594,4.166,4.837c0.58,2.562,0.959,5.169,1.269,7.776c0.098,0.892,0.192,1.785,0.298,2.677
		c-0.558,1.804-1.12,3.606-1.619,5.427c-0.269,1.004-0.514,2.014-0.761,3.023c-0.084-1.099-0.248-2.19-0.597-3.241
		c-0.407-1.432-1.001-2.864-2.035-3.964c-2.006-1.998-4.524-3.419-7.057-4.643c-0.671-0.213-1.613-1.007-2.2-0.279
		c-0.237,0.328-0.168,0.72-0.111,1.094c0.147,0.96,0.302,1.921,0.464,2.878c0.537,3.274,2.346,6.486,5.282,8.157
		c1.196,0.652,2.549,0.893,3.824,1.333c0.422,0.156,0.857,0.313,1.258,0.507c0.037,0.167-0.008,0.375,0.051,0.542
		c0.07,0.209,0.26,0.341,0.467,0.373c-0.811,3.534-1.549,7.086-2.33,10.626c-1.255,5.456-2.25,10.974-2.854,16.542
		c-0.11,1.385-0.173,2.773-0.229,4.161c-0.245-0.641-0.483-1.284-0.746-1.917c-1.013-2.285-1.974-4.598-3.08-6.84
		c-1.575-2.888-2.913-5.899-4.52-8.769c-0.83-1.574-1.734-3.103-2.643-4.631c0.021-0.006,0.04-0.003,0.062-0.01
		c2.874-2.497,5.67-5.209,5.303-9.371c-0.029-1.4-0.432-2.751-0.797-4.093c-0.221-0.639-0.295-1.434-0.857-1.88
		c-0.776-0.5-1.638,0.801-2.221,1.233c-1.544,1.387-2.15,3.434-2.475,5.419c-0.38,2.429-0.624,5.079,0.266,7.421
		c-0.01,0.01-0.013,0.022-0.022,0.032c-0.181-0.306-0.364-0.611-0.544-0.918c-1.299-2.29-2.497-4.641-3.943-6.847
		c-1.494-2.527-3.619-4.706-4.788-7.41c-0.072-0.215-0.086-0.447,0.002-0.66c0.136-0.435,0.19-0.891,0.196-1.346
		c-0.025-1.143-0.26-2.829-1.532-3.202c-0.095-0.015-0.198-0.008-0.306,0.014c-0.849-2.361-1.437-4.858-2.186-7.27
		c-1.275-4.339-2.831-8.81-5.817-12.287c-1.657-1.784-3.328-3.607-5.317-5.028c-1.178-0.797-2.497-1.358-3.807-1.905
		c-2.692-1.086-5.249-2.483-7.996-3.434c-1.092-0.404-2.155-0.884-3.251-1.282c-0.299-0.109-0.624-0.256-0.949-0.196
		c-1.034,0.249-0.74,1.527-0.575,2.298c0.211,0.998,0.443,2,0.74,2.976c0.875,2.829,1.7,5.675,2.47,8.534
		c1.721,6.895,3.227,10.349,8.292,15.474c2.685,2.927,6.33,4.769,10.051,6.021c1.577,0.345,3.156,1.047,4.778,1.075
		c0.017,0.124,0.047,0.238,0.102,0.335c0.351,0.606,1.106,0.554,1.71,0.509c0.664-0.034,1.333-0.075,1.994-0.119
		c0.547,1.555,1.523,2.943,2.47,4.287c0.854,1.209,1.68,2.437,2.487,3.679c-0.935-0.39-1.922-0.687-2.338-0.86
		c-2.349-0.817-5.07-0.917-7.212,0.5c-0.732,0.478-1.523,0.884-2.24,1.374c-0.733,0.937,0.568,1.776,1.25,2.258
		c1.139,0.779,2.363,1.439,3.622,2.004c1.531,0.637,3.205,0.77,4.84,0.911c1.77,0.133,3.521-0.407,4.987-1.385
		c1.852,3.187,3.836,6.292,5.672,9.492c0.06,0.1,0.112,0.204,0.171,0.305c-0.278-0.138-0.538-0.249-0.725-0.317
		c-2.698-1.109-5.695-1.146-8.528-0.613c-1.96,0.365-3.878,1.137-5.458,2.362c-1.006,0.863-2.44,1.683-0.793,2.822
		c3.175,2.176,7.096,3.88,11.012,3.21c1.333-0.247,2.459-1.038,3.567-1.776c0.981-0.634,1.894-1.362,2.823-2.068
		c0.459,0.932,0.919,1.863,1.426,2.77c1.591,3.093,2.899,6.331,4.25,9.536c0.216,0.555,0.421,1.115,0.644,1.669
		c0.076,0.191,0.226,0.307,0.4,0.356c-0.028,1.075-0.059,2.15-0.079,3.224c-0.287,10.148,0.27,20.311,1.902,30.336
		c0.274,1.734,0.558,3.468,0.848,5.201c-0.788-1.48-1.572-2.963-2.33-4.459c-2.652-5.34-5.217-10.835-9.39-15.19
		c-0.02-0.022-0.043-0.041-0.064-0.062c0.205-0.107,0.356-0.317,0.459-0.527c0.347-0.579,0.714-1.146,1.029-1.743
		c1.195-2.075,1.406-4.52,1.368-6.869c-0.049-2.274-0.828-4.464-1.693-6.543c-0.464-0.952-1.311-4.169-2.634-2.226
		c-2.875,4.421-4.49,9.316-2.547,14.063c-0.015-0.014-0.03-0.028-0.045-0.042c-1.53-1.513-3.218-2.873-5.1-3.926
		c-2.325-1.348-4.49-3.1-7.158-3.723c-0.69-0.174-1.398-0.244-2.106-0.308c-0.001-0.09-0.002-0.18-0.022-0.268
		c-0.141-0.827-0.314-1.65-0.524-2.462c-0.232-0.776-0.519-2.27-1.634-1.913c-0.131,0.078-0.239,0.181-0.342,0.289
		c-1.219-2.554-2.232-5.197-3.324-7.806c-1.507-4.19-5.196-5.856-8.567-8.299c-3.366-2.463-7.156-4.528-11.447-4.411
		c-1.87-0.031-3.732,0.168-5.595,0.268c-0.931,0.031-1.864,0.034-2.796,0.032c-0.869-0.096-1.376,0.368-1.172,1.235
		c0.835,2.826,2.761,5.189,4.307,7.657c1.676,2.376,3.185,4.877,5.047,7.116c1.037,1.245,2.095,2.473,3.19,3.668
		c1.541,1.698,3.467,2.978,5.424,4.146c3.619,2.364,8.081,2.597,12.291,2.19c0.115,0.204,0.304,0.371,0.608,0.476
		c1.333,0.061,2.679-0.291,3.974-0.584c0.041-0.013,0.075-0.039,0.112-0.06c0.2,0.037,0.402,0.065,0.601,0.107
		c1.533,0.342,2.965,1.027,4.27,1.891c0.84,0.548,1.64,1.158,2.478,1.71c0.141,0.093,0.286,0.179,0.429,0.268
		c-0.172-0.02-0.322-0.039-0.435-0.057c-1.377-0.119-2.762-0.15-4.135,0.033c-3.135,0.536-6.31,2.195-7.901,5.043
		c-0.84,1.323,0.658,1.873,1.701,2.136c1.122,0.317,2.273,0.53,3.417,0.745c2.372,0.459,4.939,0.578,7.162-0.515
		c1.805-0.777,3.195-2.189,4.587-3.531c0.126-0.125,0.271-0.262,0.396-0.41c3.178,2.868,6.284,5.882,8.652,9.444
		c-0.783,0.072-1.563,0.168-2.338,0.298c-0.332,0.039-0.683,0.149-1.01,0.036c-0.909-0.424-1.751-1.001-2.732-1.268
		c-0.675-0.156-1.102,0.032-1.359,0.411c-1.044-0.006-2.088-0.048-3.132-0.052c-3.129,0-6.285-0.397-9.396,0.081
		c-5.224,0.838-8.933,5.005-11.884,9.082c-1.886,2.202-3.036,4.85-4.04,7.541c-0.872,2.176-1.844,4.322-2.47,6.588
		c-0.117,0.614-0.51,1.268-0.285,1.892c0.654,1.34,4.996,0.583,6.389,0.56c4.336-0.451,8.755-1.092,12.773-2.854
		c3.78-1.706,7.095-4.823,9.47-8.191c1.582-2.281,2.432-4.954,3.908-7.294c0.121-0.203,0.242-0.406,0.367-0.604
		c0.149-0.235,0.365-0.478,0.285-0.774c-0.009-0.034-0.032-0.059-0.047-0.089c0.691-0.069,1.161-0.966,1.565-1.48
		c0.381-0.646,0.988-1.296,1.033-2.065c-0.027-0.047-0.019-0.066,0.027-0.056c1.203-0.15,2.395-0.378,3.583-0.62
		c0.203,0.339,0.415,0.67,0.604,1.019c2.093,3.469,3.965,7.06,5.98,10.573c0.606,1.159,1.32,2.259,1.909,3.425
		c0.187,0.466,0.409,1.016,0.916,1.033c0.676,3.815,1.421,7.617,2.261,11.399c-0.397-0.561-0.843-1.084-1.398-1.514
		c-2.431-1.905-5.584-2.49-8.545-3.07c-1.587-0.236-3.196-0.27-4.789-0.08c-0.665,0.039-1.581,0.158-1.612,0.997
		c0.266,2.002,1.671,3.716,3.02,5.148c3.659,3.855,9.519,5.932,14.638,4.074c1.645,6.514,3.542,12.965,5.599,19.359
		c0.834,2.494,1.686,4.989,2.576,7.472c-0.02,0.113-0.043,0.225-0.061,0.339c-0.005,0.026-0.009,0.053-0.015,0.08
		c-0.442-0.355-0.901-0.688-1.402-0.96c-2.977-1.556-7.388-0.749-10.632-0.349c-1.08,0.18-2.112,0.584-3.107,1.031
		c-1.132,0.411-1.559,1.199-0.642,2.139c1.407,1.614,3.06,3.086,5.144,3.725c4.198,1.261,8.79,1.456,12.953-0.038
		c2.052,5.243,4.333,10.39,7.043,15.319c0.081,0.14,0.17,0.276,0.252,0.416c-0.082-0.038-0.164-0.078-0.244-0.115
		c-2.939-1.329-6.047-2.436-9.304-2.492c-2.397-0.076-4.832,0.078-7.119,0.848c-1.811,0.382-1.18,1.851-0.149,2.738
		c2.52,2.484,5.741,4.314,9.16,5.226c2.866,0.579,5.823-0.302,8.515-1.251c0.57-0.235,1.13-0.499,1.706-0.72
		c1.774,2.88,3.586,5.736,5.453,8.557c2.118,3.403,4.285,6.772,6.588,10.053c0.272,0.386,0.537,0.775,0.809,1.16
		c0.16,0.226,0.297,0.505,0.557,0.628c0.198,0.093,0.405,0.078,0.608,0.017c0.343-0.15,0.607-0.46,0.605-0.852
		c-0.004-0.367-0.291-0.643-0.459-0.949c-1.187-1.929-2.383-3.854-3.618-5.753c-2.695-4.39-5.633-8.656-8.381-13.025
		c0.043-0.006,0.072,0.016,0.119,0.003c5.14-5.325,4.96-11.972,4.065-18.861c-0.174-1.256-0.359-2.518-0.709-3.74
		c-0.225-0.812-1.127-0.827-1.549-0.167c-2.043,2.262-3.853,4.779-4.931,7.648c-0.906,2.171-1.296,4.529-1.085,6.875
		c0.035,0.57,0.125,1.132,0.236,1.691c-1.346-2.483-2.579-5.027-3.608-7.68c-1.884-4.449-3.561-8.98-5.093-13.561
		c0.699-3.602,1.352-7.212,2.182-10.79c0.498-2.519,1.082-5.021,1.713-7.512c1.185,0.337,2.318,0.849,3.523,1.12
		c2.497,0.418,4.986-0.488,7.229-1.507c1.719-0.748,3.258-1.886,4.405-3.374c0.839-1.039,1.648-2.106,2.404-3.205
		c0.536-0.737,1.409-2.2,0.122-2.654c-1.555-0.407-3.181-0.554-4.784-0.612c-3.645-0.232-7.571,0.221-10.427,2.712
		c-0.151,0.137-0.302,0.275-0.451,0.416c1.098-3.505,2.312-6.972,3.728-10.361c0.957-2.178,2.225-4.202,3.613-6.131
		c0.402,0.944,1.661,2.075,2.143,2.422c2.896,2.234,6.319,2.064,9.578,0.766c1.458-0.597,3.034-1.176,4.152-2.324
		c0.352-0.436,0.167-1.039-0.271-1.333c-0.83-0.707-1.792-1.235-2.785-1.677c-1.414-0.696-2.959-1.021-4.503-1.278
		c-1.922-0.425-3.952-0.371-5.757,0.479c-0.161,0.074-0.331,0.148-0.502,0.224c1.22-1.562,2.487-3.087,3.883-4.496
		c0.691-0.7,1.413-1.366,2.125-2.045c0.576-0.6,1.327-1.064,1.763-1.783c0.212,0.291,0.587,0.343,0.915,0.253
		c0.957-0.198,1.906-0.414,2.849-0.672c3.316-0.92,6.654-2.122,9.368-4.297c2.927-2.124,4.472-5.473,5.914-8.682
		c1.85-3.997,3.485-8.09,4.741-12.315C176.955,138.789,177.087,137.736,176.14,137.56z"/>
	<path d="M344.666,179.228c1.091,0.49,2.124,0.893,2.305,0.971c2.288,0.99,3.926,3.011,6.35,3.87
		c4.223,1.528,11.21-0.568,15.237-2.337c4.715-2.188,7.679-6.685,9.431-11.432c0.494,0.422,0.964,0.868,1.379,1.346
		c2.461,2.792,3.679,6.407,4.819,9.891c0.503,1.582,0.918,3.194,1.093,4.849c0.007,0.055,0.008,0.119,0.012,0.177
		c-3.576,8.095-8.064,15.77-14.516,21.935c-3.918,3.809-8.466,6.888-13.183,9.622c-2.565,1.423-5.192,2.742-7.834,4.019
		c-1.588,0.477-1.545,2.631,0.078,2.991c1.021,0.075,1.912-0.622,2.847-0.951c2.572-1.151,5.085-2.45,7.479-3.936
		c4.954-3.055,9.701-6.505,13.732-10.723c3.906-4.082,7.175-8.758,10.014-13.633c1.819-3.123,3.271-6.518,4.671-9.844
		c0.722-1.715,1.412-3.444,2.083-5.18c0.723-1.87,0.627-3.155,2.645-3.721c2.501-0.7,4.93-0.948,7.543-0.597
		c0.664,0.089,1.308,0.251,1.952,0.416c-0.389,0.979-0.156,2.632-0.129,3.407c0.205,3.301,1.646,6.651,4.526,8.452
		c8.167,4.962,18.137,3.888,27.26,5.039c2.874-0.131,0.73-4.056,0.199-5.553c-1.864-4.75-5.99-8.021-10.094-10.806
		c-4.203-2.577-9.177-6.189-14.297-5.926c-2.837,0.301-4.306,3.165-6.981,3.303c-1.808,0.093-3.67-0.577-5.547-0.438
		c-1.736,0.13-3.561,0.325-5.126,1.138c1.265-0.658,2.515-7.392,2.974-8.857c1.155-3.686,2.154-7.453,2.938-11.232
		c0.594-0.308,1.154-0.724,1.779-0.973c1.822-0.868,3.726-1.439,5.671-1.805c0.248,2.361,0.716,4.787,2.292,6.63
		c4.453,5.311,11.512,7.741,18.264,8.225c5.063,0.402,10.307-0.468,14.863-2.75c2.97-1.556,5.531-3.758,8.316-5.608
		c1.07-0.725,2.171-1.402,3.281-2.067c0.881-0.488,2.188-1.383,1.503-2.523c-0.238-0.384-0.695-0.583-1.077-0.791
		c-1.403-0.774-2.832-1.499-4.23-2.28c-3.478-1.976-7.074-3.737-10.516-5.772c-4.043-2.21-7.815-5.114-12.331-6.3
		c-5.661-1.425-11.609,0.673-15.982,4.329c-1.33,1.112-6.041,4.634-4.575,6.972c-1.264,0.284-2.509,0.65-3.717,1.119
		c-0.454,0.176-3.041,1.018-3.13,1.48c0.807-4.213,0.976-8.876,2.007-13.18c1.119-4.669,3.559-7.868,7.128-11.05
		c0.449-0.418,0.945-0.773,1.418-1.157c1.386,1.716,4.045,3.6,4.917,4.102c2.797,1.745,6.191,1.697,9.313,1.046
		c4.267-0.801,8.167-3.095,10.981-6.396c2.53-2.901,4.676-6.106,6.743-9.347c1.663-2.712,3.638-5.278,4.884-8.222
		c0.834-2.086-0.444-2.744-2.304-2.156c-2.536,0.491-5.096,0.891-7.654,1.241c-4.091,0.568-8.194,1.122-12.226,2.032
		c-6.791,1.46-14.892,4.864-14.868,12.975c-0.04,0.641-0.039,1.284-0.007,1.925c-2.933,2.239-5.521,4.917-7.76,7.878
		c0.532-6.23,0.12-10.854,2.803-16.652c1.508-3.258,2.925-6.573,4.961-9.548c0.537-0.809,1.09-1.607,1.659-2.395
		c0.882,1.682,2.584,2.878,4.53,2.735c6.457,0.092,11.422-4.541,15.519-9.002c4.819-4.823,7.924-10.97,11.278-16.829
		c1.278-2.304,2.513-4.63,3.777-6.942c0.661-0.907,0.66-2.282-0.727-2.267c-3.204,0.784-6.388,1.737-9.641,2.35
		c-4.026,0.64-7.932,1.806-11.467,3.875c-10.028,5.204-17.988,9.502-15.881,22.418c0.14,1.044,0.181,2.103,0.238,3.166
		c-1.182,1.743-2.275,3.545-3.246,5.415c-0.95,1.833-1.718,3.752-2.555,5.639c0.266-5.6,0.393-11.206,0.269-16.817
		c-0.053-2.555-0.142-5.13-0.056-7.685c0.067-1.988,1.22-3.217,2.287-4.808c1.382-1.945,2.865-3.816,4.327-5.701
		c1.685-2.183,3.411-4.336,5.181-6.451c0.211,0.333,0.585,0.491,0.932,0.66c0.785,0.367,1.651,0.532,2.504,0.651
		c3.402,0.342,7.246-0.391,9.765-2.835c2.333-2.69,4.281-5.709,5.986-8.83c1.655-3.052,3.104-6.211,4.533-9.374
		c0.556-1.287,2.06-3.921-0.175-4.347c-4.066,0.556-8.062,1.748-12.159,2.217c-2.838,0.404-5.764,0.962-8.109,2.724
		c-3.124,2.329-4.991,6.062-5.66,9.846c-0.467,2.434-0.626,4.93-0.454,7.405c0.087,0.407,0.099,1.121,0.184,1.801
		c-1.197,1.496-2.37,3.013-3.507,4.551c-1.856,2.645-4.092,5.134-5.587,8.003c0.074-3.748,0.218-7.494,0.449-11.237
		c0.184-3.418,0.54-6.827,0.596-10.252c-0.094-0.814-0.422-2.159,0.092-2.854c0.28-0.379,1.154-0.684,1.55-0.994
		c0.543-0.426,1.037-0.911,1.492-1.431c1.797-2.053,2.918-4.613,3.974-7.098c1.307-3.075,2.325-6.111,2.4-9.479
		c0.072-3.203-1.897-6.911-3.166-9.793c-1.12-2.571-2.121-5.205-3.46-7.67c-1.001-1.977-3.073-2.768-4.35-0.568
		c-3.928,5.403-8.132,11.348-8.214,18.289c0.002,5.396,1.674,10.924,5.158,15.104c0.684,0.815,1.442,1.58,2.247,2.281
		c0.034,0.032,0.071,0.061,0.105,0.092c-0.039,0.105-0.066,0.217-0.061,0.335c0.14,0.645,0.187,1.328,0.149,1.992
		c-0.249,5.35-1.055,10.657-1.425,16c-0.462-0.471-0.868-0.855-1.064-1.05c-1.171-1.105-2.442-2.09-3.732-3.051
		c-0.055-0.484-0.52-0.882-1.023-0.756c-0.029-0.021-0.058-0.043-0.088-0.065c0.18-1.257,0.085-2.571,0.047-3.842
		c-0.04-3.51-1.552-6.821-3.98-9.326c-2.163-1.864-5.182-2.502-7.947-2.892c-5.465-0.48-10.894,0.802-16.29,1.505
		c-1.084,0.163-2.186,0.168-3.277,0.22c-0.888,0.11-1.395,0.949-1.405,1.791c0.416,5.986,6.236,10.769,10.237,14.743
		c2.024,1.958,4.475,3.43,7.152,4.304c2.907,1.015,6.066,0.684,8.932-0.302c2.292-0.775,4.74-1.785,6.455-3.538
		c1.546,1.131,3.053,2.313,4.457,3.612c0.46,0.447,0.913,0.906,1.347,1.382c-0.507,7.613-0.38,15.244-0.428,22.869
		c-0.007,7.94-0.549,15.864-1.125,23.78c-0.013,0.177-0.026,0.355-0.038,0.533c-1.184-2.629-2.44-5.226-3.673-7.831
		c-1.933-4.354-3.368-7.286-4.687-9.547c0.108-0.018,0.222-0.049,0.348-0.104c0.35-0.257,0.381-0.816,0.068-1.114
		c-0.312-1.446-0.071-2.98,0.024-4.452c1.007-9.731-2.526-12.957-10.352-17.718c-2.225-1.379-4.495-2.716-6.951-3.644
		c-4.479-1.755-9.235-2.749-13.526-4.981c-0.873-0.392-1.727-0.828-2.61-1.191c-3.074-0.628-1.976,3.874-1.769,5.631
		c0.915,5.771,0.962,11.716,2.842,17.297c1.088,3.041,2.862,5.981,5.479,7.932c2.543,1.701,5.512,2.666,8.41,3.58
		c2.085,0.6,4.191,1.169,6.352,1.413c2.342,0.254,4.663-0.3,6.868-1.061c0.784-0.3,1.645-0.507,2.401-0.885
		c3.202,5.541,5.668,11.486,8.592,17.179c0.633,1.289,1.253,2.585,1.864,3.885c-0.325,4.371-0.693,8.739-1.246,13.086
		c-0.513,4.159-1.307,8.263-2.297,12.32c-0.827-1.13-1.682-2.133-1.944-2.473c-2.54-3.086-5.062-5.66-7.786-7.862
		c0.087-0.241,0.084-0.503-0.016-0.74c-0.146-0.607-0.283-1.218-0.468-1.815c-2.151-6.831-3.569-9.019-10.271-11.823
		c-3.622-1.746-7.488-2.85-11.335-3.965c-3.637-1.131-7.236-2.4-10.938-3.299c-0.993-0.244-1.985-0.482-2.982-0.701
		c-0.533-0.124-1.092-0.216-1.606,0.028c-1.238,0.608-0.824,2.151-0.393,3.163c0.893,2.332,1.701,4.697,2.676,6.999
		c3.159,7.975,8.909,14.235,17.415,16.399c5.439,1.48,10.596-0.819,15.238-3.498c0.017,0.013,0.035,0.022,0.051,0.035
		c3.036,2.302,5.753,4.994,8.334,7.786c1.202,1.295,2.423,2.59,3.449,4.029c-1.412,5.36-3.151,10.638-5.077,15.84
		c-0.806,2.23-1.667,4.453-2.569,6.663c0.74-1.815-2.527-8.017-3.538-9.602c-1.116-1.75-2.554-3.248-3.751-4.936
		c-1.145-1.615-1.687-3.295-2.994-4.815c-1.237-1.44-2.885-2.607-4.793-2.899c-2.332-0.313-4.797-0.273-7.025,0.544
		c-3.078,1.205-5.793,3.146-8.537,4.954c-3.344,2.176-6.452,4.684-9.523,7.223c-1.546,1.284-3.05,2.35-4.619,3.596
		C341.464,177.67,343.123,178.536,344.666,179.228z"/>
	<path d="M146.324,359.757c3.145,0.581,6.298-0.21,9.294-1.142c2.509-0.787,4.637-2.514,7.191-3.143
		c5.513,4.268,12.969,4.586,19.166,7.507c3.323,1.479,6.195,3.744,9.33,5.559c3.907,2.003,7.859,3.972,11.932,5.616
		c1.939,0.664,3.92,1.179,5.906,1.675c-0.934,0.592-1.822,1.267-2.694,1.925c-2.157,1.803-3.98,4.15-6.62,5.276
		c-2.936,1.129-6.396,1.415-9.391,0.372c-1.861-0.903-3.108-2.685-4.847-3.78c-2.977-1.912-6.331-3.197-9.71-4.2
		c-3.533-1.068-8.161-1.976-10.809,1.311c-2.981,3.905-3.878,9.773-2.231,14.401c0.871,2.587,2.333,5.214,4.964,6.323
		c4.744,1.84,10.091,0.418,14.281-2.169c3.282-1.871,5.882-4.633,8.806-6.97c0.769-0.688,1.983-0.798,2.647-1.477
		c1.685-0.107,3.496-0.121,5.166-0.642c4.86-1.112,7.651-5.512,11.47-8.302c0.656-0.501,1.361-0.934,2.111-1.269
		c2.503,0.626,4.995,1.289,7.409,2.229c2.908,0.961,5.755,2.211,8.011,4.341c2.416,1.997,4.67,4.592,7.471,6.068
		c-2.592,1.644-4.487,4.773-7.97,3.855c-2.889-0.761-4.717-3.846-7.266-5.209c-2.649-1.417-6.741-3.007-9.703-1.63
		c-4.254,1.972-6.264,10.19-1.131,12.259c5.922,2.377,10.268-0.647,15.047-3.761c1.055,0.96,2.533,1.443,3.936,1.085
		c0.284-0.056,0.796-0.191,1.379-0.383c-1.314,1.93-2.609,3.884-4.282,5.457c-2.156,2.017-4.756,3.633-6.333,6.2
		c-1.781,3.036-2.784,8.075,0.158,10.691c3.182,2.113,6.714-1.395,7.635-4.379c0.687-2.225,1.461-4.422,2.139-6.649
		c1.737-5.704,2.59-10.999,7.253-15.083c-0.246,2.174,0.043,4.407,0.708,6.491c0.025,0.084,0.053,0.169,0.08,0.251
		c0.053,0.169,0.061,0.108-0.067,0.239c-1.846,1.435-3.419,3.233-4.134,5.5c-1.731,4.778-0.965,11.637,5.181,12.206
		c3.064-0.008,5.377-2.672,6.487-5.308c0.872-2.168,0.629-4.621-0.224-6.759c-1.005-2.568-2.781-4.909-4.913-6.548
		c-0.557-2.117-0.996-4.358-0.774-6.55c0.86,0.197,1.744,0.603,2.496,0.789c3.79,1.308,7.647,2.468,11.336,4.052
		c3.302,1.372,6.179,3.621,8.052,6.697c2.673,4.39,3.871,6.764,3.737,11.916c-0.122,4.714-0.674,9.395-0.733,14.115
		c-0.096,7.693,0.078,15.486,2.659,22.823c0.46,1.538,0.93,3.072,1.405,4.605c0.131,0.718,0.601,1.379,1.376,1.454
		c1.087,0.13,1.86-1.066,1.465-2.028c-0.25-1.1-0.524-2.196-0.817-3.284c-1.096-3.84-2.282-7.687-2.613-11.687
		c-0.566-6.841-0.053-13.349,3.586-19.273c2.293-3.733,4.193-8.833,9.098-5.675c4.461,2.871,1.973,7.247,0.878,11.242
		c-0.648,2.193-1.226,4.556-0.572,6.816c0.693,2.307,2.447,4.377,4.729,5.223c4.087,1.643,8.174-1.94,9.315-5.721
		c1.194-4.117-2.991-6.792-5.371-9.458c-1.248-1.256-2.125-2.892-2.971-4.549c3.079,1.597,6.571,2.533,9.821,3.663
		c2.813,0.978,5.903,1.668,8.328,3.488c3.527,2.647,2.408,3.953,3.025,7.726c0.275,2.919,2.32,5.556,4.94,6.8
		c5.98,2.13,12.352-5.011,8.856-10.597c-2.332-3.725-8.12-4.309-11.958-5.465c-6.309-1.9-12.759-3.936-18.841-6.078
		c-1.779-0.627-3.777-1.069-5.2-2.374c-0.288-0.238-0.174-0.673-0.506-0.899c-2.036-1.358-3.313-2.044-5.637-2.672
		c-0.179-0.048-0.365-0.1-0.507-0.221c-1.411-1.204,5.213-7.216,6.102-8.126c0.311-0.319,0.652-0.606,0.969-0.919
		c0.759,0.246,1.49-0.247,2.247-0.306c0.293,0.161,0.664,0.155,0.947-0.021c1.546,0.172,2.991,0.931,4.369,1.629
		c2.836,2.358,3.968,4.464,5.432,7.692c1.944,5.085,5.615,7.044,10.902,7.23c4.223,0.143,9.961,0.462,12.318-3.798
		c2.503-4.879-1.947-9.87-6.487-11.328c-2.894-1.128-6.047-1.059-9.081-0.677c-3.716,0.343-6.311,2.063-9.816,0.199
		c-1.269-0.675-6.287-4.859-7.753-3.536c1.837-1.659,3.71-3.281,5.602-4.875c1.591-1.341,3.266-2.573,4.91-3.847
		c1.397-1.083,3.225-3.355,4.881-3.92c3.636-1.238,7.799,1.136,11.522,0.902c4.22-0.265,7.814-1.482,11.119-4.104
		c2.288-1.815,3.74-4.481,4.265-7.336c2.597-15.22-12.333-14.517-20.498-6.312c-3.684,3.475-7.034,8.556-6.397,13.775
		c-0.047,0.041-0.11,0.046-0.151,0.098c-4.262,4.175-9.488,7.164-13.899,11.17c-2.79,2.389-5.587,4.79-8.076,7.494
		c-2.453,2.686-4.657,5.581-6.956,8.395c-0.103,0.128-0.199,0.262-0.301,0.391c0.671-2.368,0.71-4.842,0.664-7.293
		c0.01-2.638-0.035-5.275-0.179-7.911c-0.144-2.645-0.531-6.087,0.937-8.457c2.006-3.241,6.888-2.012,9.952-3.979
		c3.16-2.033,5.835-5.085,7.135-8.635c1.572-4.302-1.257-10.025-6.002-10.552c-2.783-0.15-5.265,1.73-7.312,3.421
		c-4.547,4.158-7.557,11.687-4.683,17.517c-0.544,0.396-0.745,1.217-1.08,1.785c-1.405,2.832-1.329,6.035-1.08,9.106
		c0.167,2.635,0.154,5.275,0.196,7.914c0.127,3.162-0.233,5.999-1.032,9.035c-0.701,2.663-2.353,4.431-3.346,6.954
		c-0.24,0.61-0.518,1.017-1.184,1.075c-1.137-2.465-0.074-7.228-0.087-10.044c-0.001-3.595-1.229-6.944-2.471-10.262
		c-0.884-2.638-1.782-5.274-2.625-7.924c-0.849-2.861-1.001-5.852-1.205-8.811c-0.288-3.974-0.849-7.931-1.695-11.824
		c-0.54-2.484-2.074-4.855-1.002-7.375c1.189-2.797,4.588-5.366,6.693-7.476c0.335-0.335,0.722-0.625,1.058-0.963
		c0.241-0.242,7.342-0.249,8.129-0.291c2.612-0.144,5.292-0.47,7.656-1.667c4.087-2.239,6.897-7.271,7.988-11.687
		c1.047-4.325-0.782-10.163-5.742-10.839c-6.288-0.642-11.648,4.016-15.454,8.513c-3.037,3.601-5.26,7.577-3.811,12.396
		c0.095,0.477,0.35,0.988,0.192,1.471c-1.88,1.779-3.847,3.512-5.481,5.54c-0.358,0.454-1.46,1.796-2.388,3.22
		c-0.261-1.235-0.502-2.474-0.689-3.724c-1.376-7.728-1.269-11.253,2.925-18.126c2.23-3.353,4.783-6.519,7.679-9.321
		c3.937-3.511,8.048-6.835,11.724-10.637c1.916-1.982,3.99-3.685,5.328-6.152c0.902-1.664,1.22-3.398,2.946-4.416
		c2.812-1.659,6.096-1.921,8.558,0.548c2.454,2.461,1.056,6.504,3.244,9.425c2.134,2.725,6.676,1.742,7.888-1.368
		c0.831-2.686-0.867-5.618-2.908-7.299c-1.538-1.322-3.481-1.989-5.275-2.859c2.815,0.022,5.552-1.37,7.816,0.041
		c2.367,1.475,3.825,3.192,6.692,3.989c4.124,1.147,7.709-0.987,6.894-5.561c-1.095-8.124-9.154-6.05-14.359-3.212
		c-4.544,2.907-4.818,2.661-10.104,2.357c-0.28-0.044-0.527,0.055-0.737,0.202c-0.716,0.082-1.439,0.231-2.104,0.271
		c-2.915,0.712-5.94,1.927-6.213-2.071c-0.149-2.184,1.172-5.202,2.477-6.828c1.284-1.6,3.043-2.79,4.226-4.473
		c0.746,0.56,2.04,0.197,2.919,0.234c1.278-0.143,2.683-0.069,3.852-0.65c-0.064,0.464,0.158,0.854,0.459,1.186
		c1.753,2.166,4.233,3.835,7.099,3.843c4.436,0.086,9.712-2.868,9.908-7.719c0.162-5.49-5.876-7.505-10.328-5.723
		c-1.853,0.69-3.423,1.963-4.902,3.237c-1.19,1.027-2.272,2.188-3.22,3.438c-0.087,0.101-0.076,0.095-0.213,0.12
		c-1.559,0.192-3.125,0.413-4.693,0.499c1.752-3.593,2.732-7.506,4.075-11.26c0.003-0.01,0.012-0.037,0.016-0.05
		c0.033-0.054,0.086-0.089,0.107-0.153c1.152,0.388,2.063-1.021,2.95-1.593c2.715-2.353,5.814-4.49,7.428-7.804
		c0.576-1.144,0.95-2.505,0.814-3.792c-0.542-4.48-6.722-7.102-10.404-4.615c-5.11,3.97-7.336,12.17-3.051,17.414
		c-1.487,3.325-2.588,6.813-4.021,10.159c-0.778,2.266-3.581,5.635-5.901,5.117c-2.088-0.466-3.962-3.271-4.862-4.983
		c-0.044-0.084-0.062-0.182-0.093-0.274c2.267-3.585,4.037-7.971,3.026-12.242c-0.543-2.537-2.446-4.964-5.179-5.179
		c-4.662-0.312-8.348,4.328-8.475,8.722c-0.232,5.491,3.876,8.966,8.733,10.458c0.378,0.116,1.782,3.117,2.306,3.632
		c0.813,0.799,3.136,1.423,3.64,2.144c1.072,1.536-1.096,4.983-1.44,7.017c-1.276,9.354-2.116,9.638-8.752,15.929
		c-3.511,3.552-7.569,6.492-11.111,10.003c-3.468,3.604-6.458,7.731-8.576,12.27c-0.357,0.765-1.098,4.337-2.232,4.178
		c-1.292-0.181-1.313-3.359-1.375-4.375c-0.209-3.423,0.545-6.866,1.418-10.154c0.358-1.347,1.628-2.076,2.503-3.068
		c4.767-5.347,8.208-12.928,6.827-20.181c-0.723-4.576-4.655-9.569-9.754-8.133c-4.394,1.463-7.155,5.885-8.741,10.015
		c-2.417,6.055,0.074,12.735,3.879,17.628c0.767,1.146,1.557,2.35,1.802,3.731c0.137,1.146-0.183,2.294-0.164,3.446
		c-0.052,2.193-0.044,4.391,0.187,6.572c-1.19-1.584-2.415-3.141-3.747-4.602c-3.672-4.096-8.636-6.641-12.852-10.091
		c-2.643-2.232-5.468-4.243-8.055-6.536c-1.474-1.588-2.503-3.584-3.263-5.601c-0.124-0.347-0.229-0.699-0.335-1.051
		c0.15-0.025,0.296-0.074,0.416-0.177c0.46-0.58,0.539-1.548,1.047-2.209c1.053-1.705,2.445-3.184,3.937-4.513
		c3.131-2.79,7.615-3.195,10.812-6.034c1.734-1.349,2.619-3.612,2.536-5.782c-0.559-4.131-4.888-5.55-7.74-2.421
		c-1.252,1.4-2.097,3.152-2.537,4.97c-0.479,1.67-0.469,3.572-1.403,5.065c-2.111,1.777-4.369,3.434-5.974,5.727
		c-0.431,0.621-1.253,1.81-1.73,2.944c-0.621-2.704-1.094-5.453-2.355-7.95c-1.441-2.729-5.688-4.715-3.447-8.303
		c2.872-4.598,6.389-10.92,2.738-16.017c-1.324-2.108-4.302-2.29-6.067-0.635c-1.967,1.622-2.739,4.282-3.166,6.702
		c-0.284,1.56,0.264,6.89,1.547,9.738c-0.414-0.919-4.057-1.669-5.024-2.461c-1.916-1.569-1.825-2.975-1.535-5.238
		c0.633-4.932-0.006-8.555-4.742-11.095c-1.922-1.065-4.365-1.43-6.322-0.258c-3.288,1.667-4.909,5.373-2.703,8.606
		c1.809,2.652,5.134,3.901,7.924,5.181c2.709,1.243,4.436,3.723,6.995,4.964c3.291,1.595,5.816,2.724,8.053,4.77
		c-1.564,0.087-3.122,0.319-4.666,0.579c-1.637,0.188-3.275,0.913-4.93,0.673c-2.87-0.969-5.197-3.058-7.574-4.862
		c-2.219-1.67-5.003-3.38-7.889-2.754c-4.645,1.372-6.923,7.891-3.159,11.36c1.385,1.092,3.127,1.669,4.845,1.994
		c4.236,0.801,7.494-0.67,11.191-2.45c3.072-1.48,7.839-1.889,11.438-2.249c0.875-0.115,1.769-0.216,2.657-0.232
		c0.386,0.499,0.766,1.042,1.144,1.641c2.21,3.388,2.364,7.559,3.543,11.334c0.569,1.941,1.401,3.825,2.484,5.541
		c-0.582,0.018-1.142,0.076-1.509,0.089c-4.167,0.151-7.125,4.956-11.238,4.619c-4.164-0.341-7.727-5.628-12.613-3.708
		c-4.923,2.477-4.266,8.906,1.405,9.49c1.923,0.198,3.713-0.306,5.586-1.066c2.549-1.035,4.667-1.38,7.294-1.983
		c4.185-0.96,6.728-5.087,11.432-5.331c0.356-0.058,0.812-0.031,1.21-0.098c1.053,1.07,2.24,2.004,3.404,2.951
		c2.867,2.164,5.542,4.586,8.528,6.592c2.908,1.985,5.945,3.842,8.458,6.337c2.455,2.538,4.064,5.711,6.119,8.551
		c0.783,1.082,2.515,2.343,3.029,3.498c0.607,1.363,0.33,3.511,0.447,5.014c0.509,6.5,2.496,12.733,3.784,19.092
		c0.02,0.089,0.033,0.178,0.053,0.267c-0.168-0.174-0.345-0.34-0.507-0.519c-3.251-3.841-7.923-6.138-12.757-7.304
		c-3.425-0.668-6.871-1.537-9.788-3.535c0.257-3.921,0.897-8.066,0.437-12.065c-0.433-3.466-1.299-6.989-3.098-10.013
		c-1.165-1.867-2.87-3.303-4.637-4.579c-3.1-2.608-7.743-3.471-10.725-0.215c-3.937,4.14-5.446,12.376-3.651,17.746
		c1.757,4.084,6.485,5.476,10.197,7.247c2.044,0.892,4.133,1.654,6.249,2.351c2.059,0.525,3.93,1.417,5.687,2.598
		c4.19,2.459,9.329,2.019,13.624,4.191c2.831,1.131,5.176,3.034,7.207,5.272c0.784,0.795,1.584,1.572,2.375,2.358
		c0.617,4.584,0.686,9.247,1.757,13.753c0.414,1.527,0.928,3.028,1.434,4.529c-0.536-0.672-1.103-1.319-1.737-1.903
		c-3.082-2.836-7.439-4.354-11.392-5.509c-1.542-0.451-3.242-0.466-4.74-0.992c-2.135-0.75-3.939-2.465-5.955-3.498
		c-3.403-1.743-5.657-4.485-8.698-6.841c-2.542-2.017-5.633-3.087-8.656-4.153c-4.833-1.704-17.117-1.965-18.948-7.895
		c-0.519-1.68-0.424-3.483-0.469-5.223c-0.087-0.408,0.224-0.674,0.251-1.066c-0.025-1.686,0.097-3.368,0.308-5.042
		c0.399-4.929,0.076-10.578-3.402-14.418c-4.488-4.617-12.546-6.474-18.01-2.524c-2.674,2.169-3.336,6.329-1.901,9.387
		c3.653,7.194,13.387,10.379,20.381,13.403c-0.113,1.997-0.104,4.477,0.718,6.443c-2.17-1.058-4.341-2.115-6.393-3.385
		c-2.831-1.834-5.526-3.899-8.595-5.329c-4.615-2.361-9.854-2.986-14.582-5.05c-1.434-0.625-2.843-1.308-4.226-2.029
		c-0.45-1.621-1.841-3.034-2.788-4.366c-2.09-2.559-4.563-4.871-7.536-6.369c-5.304-3.173-14.655-2.573-16.613,4.252
		C135.604,352.726,140.243,358.808,146.324,359.757z"/>
	<path d="M461.288,380.791c-2.273-1.068-4.645-1.998-6.621-3.584c-2.028-1.626-3.745-3.753-6.27-4.643
		c-1.58-0.557-3.256-0.724-4.911-0.908c-2.727-0.266-5.495-0.184-8.202,0.228c-1.576,0.259-3.104,0.73-4.613,1.246
		c-2.477,0.807-4.886,1.838-7.045,3.309c-2.338,1.597-4.574,3.431-6.289,5.702c-2.424,3.183-4.294,6.77-5.873,10.437
		c-0.612,1.444-1.198,2.899-1.832,4.334c-0.003,0.008-0.008,0.02-0.012,0.028c-1.665,1.321-3.28,2.704-4.815,4.179
		c-2.62,2.625-5.181,5.323-7.586,8.148c0.351-0.926,0.684-1.858,0.996-2.797c2.819-8.227,3.936-16.86,5.029-25.47
		c0.342-0.598,0.684-1.195,1.023-1.794c1.059-1.882,2.481-3.517,3.779-5.232c1.346-1.76,2.692-3.528,4.164-5.184
		c0.706-0.737,1.412-1.477,2.12-2.214c0.053,0.003,0.108,0.014,0.158-0.008c0.09-0.037,0.162-0.112,0.208-0.2
		c2.025,2.419,3.038,3.116,6.27,3.086c5.83-0.059,10.876-3.643,14.663-7.809c1.46-1.555,2.638-3.343,3.841-5.097
		c1.83-2.739,3.405-5.636,4.837-8.6c0.292-0.727,1.524-2.526,0.459-3.021c-0.56-0.117-1.134,0.162-1.691,0.245
		c-0.71,0.156-1.42,0.304-2.137,0.428c-3.757,0.634-7.602,0.425-11.362,1.045c-3.716,0.738-7.283,2.422-10.222,4.811
		c-3.363,2.648-5.393,6.791-5.532,11.06c-0.04,0.93-0.083,1.897,0.02,2.832c-0.906,0.953-1.805,1.912-2.703,2.869
		c-1.877,2.157-3.512,4.51-5.267,6.765c-0.836,1.018-1.584,2.097-2.272,3.215c0.228-1.771,0.462-3.54,0.718-5.301
		c0.826-5.833,1.888-11.655,1.802-17.57c0.003-0.493-0.019-0.984-0.029-1.476c0.376,0.016,0.593-0.331,0.703-0.655
		c0.325-0.702,0.67-1.397,0.994-2.1c0.909-2.066,1.931-4.075,3.075-6.022c1.967-3.48,4.202-6.8,6.404-10.137
		c0.123,0.06,0.265,0.085,0.415,0.054c3.922-1.301,8.166-1.038,12.107-2.305c4.731-1.458,9.406-3.825,12.764-7.531
		c1.5-1.885,2.65-4.025,3.689-6.191c0.914-1.843,1.604-3.773,2.046-5.784c0.423-1.826,0.86-3.749,0.576-5.626
		c-0.201-1.227-1.513-1.242-2.5-1.316c-1.961-0.209-3.931-0.308-5.897-0.445c-2.186-0.153-4.4-0.465-6.579-0.078
		c-3.552,0.579-7.183,1.782-9.853,4.283c-3.745,3.531-6.736,8.02-7.659,13.148c-0.925,4-1,8.108-1.35,12.179
		c-1.111,1.77-2.167,3.579-3.306,5.323c-2.043,3.447-3.907,7.01-5.466,10.703c-0.079,0.188-0.15,0.377-0.226,0.565
		c-0.343-6.509-1.688-12.937-3.083-19.294c-0.286-1.273-0.546-2.552-0.8-3.833c0.264-0.414,0.489-0.853,0.739-1.277
		c1.513-2.681,3.692-4.873,5.747-7.131c4.52-5.111,5.819-7.948,5.434-14.87c-0.009-1.533-0.037-3.065-0.039-4.596
		c0.009-0.347,0.04-0.691,0.078-1.035c0.029-0.275,0.146-0.613-0.054-0.846c-0.143-0.171-0.396-0.223-0.594-0.128
		c-0.086,0.058-0.168,0.105-0.258,0.156c-2.051,2.208-4.727,3.804-6.528,6.253c-1.313,1.813-2.485,3.759-3.064,5.938
		c-0.432,1.479-0.787,2.992-0.987,4.521c-0.213,1.547-0.142,3.114-0.247,4.669c-0.136,1.866-0.458,3.711-0.779,5.553
		c-0.546-2.741-1.127-5.474-1.939-8.151c-0.559-1.881-1.232-3.721-1.946-5.545c0.007-0.138,0.015-0.271,0.038-0.384
		c0.185-1.614,0.43-3.222,0.657-4.831c0.146-1.114,0.291-2.001,0.349-2.817c0.109-0.351,0.211-0.703,0.313-1.056
		c0.048,0.016,0.099,0.024,0.15,0.021c0.196-0.011,0.352-0.185,0.339-0.382c-0.013-0.024-0.01-0.046,0.008-0.063
		c0.069-0.09,0.149-0.172,0.231-0.251c0.572-0.553,1.217-1.018,1.836-1.516c3.203-2.581,7.028-4.44,9.66-7.68
		c2.344-3.055,2.522-7.409,0.826-10.808c-1.572-3.811-4.382-6.877-6.966-10.021c-0.498-0.669-0.977-1.352-1.467-2.029
		c-0.483-0.904-1.293-1.093-1.805-0.125c-1.094,2.3-1.65,4.835-2.864,7.089c-1.873,3.772-4.084,7.452-4.966,11.617
		c-0.376,1.497-0.559,3.062-0.307,4.594c0.193,1.192,0.547,2.362,1.062,3.453c0.842,1.691,2.082,3.177,2.744,4.957
		c0.469,1.222,0.022,2.582-0.089,3.839c-0.214,1.444-0.411,2.891-0.57,4.341c-0.726-1.783-1.47-3.56-2.172-5.351
		c-1.642-4.188-1.165-8.419-2.298-12.787c-0.611-2.294-1.374-4.55-2.204-6.773c-0.436-1.105-0.901-2.212-1.58-3.194
		c-0.679-0.926-1.271-1.983-2.239-2.639c-1.64-1.099-3.578-1.622-5.344-2.472c-2.187-1.039-4.149-2.525-6.438-3.354
		c-3.322-1.391-7.193-0.819-10.351-2.668c-1.461-0.78-2.884-1.71-4.453-2.245c-0.329-0.053-0.651,0.118-0.727,0.452
		c-0.091,0.739,0.482,1.372,0.753,2.027c0.736,1.429,1.542,2.829,2.114,4.336c0.588,1.493,0.924,3.068,1.424,4.59
		c0.517,1.534,1.333,2.94,2.169,4.319c0.899,1.538,2.03,2.932,3.46,4.006c1.248,0.992,2.526,1.96,3.896,2.779
		c1.327,0.792,2.777,1.35,4.162,2.034c2.598,1.277,4.887,3.12,7.628,4.117c1.456,0.615,2.949,1.139,4.449,1.633
		c0.879,0.29,1.827,0.431,2.627,0.92c0.037,0.131,0.078,0.261,0.115,0.392c0.014,0.113,0.046,0.22,0.093,0.316
		c0.275,0.958,0.549,1.917,0.842,2.87c1.515,4.759,3.556,9.338,4.941,14.14c0.415,1.356,0.76,2.729,1.071,4.109
		c-0.277-0.54-0.55-1.081-0.804-1.631c-0.495-0.999-0.995-1.998-1.635-2.914c-0.964-1.289-2.107-2.432-3.249-3.562
		c-0.479-0.465-0.987-0.892-1.507-1.304c0.018-0.299,0.034-0.597,0.042-0.897c0.143-2.664-0.482-5.388-1.858-7.681
		c-1.179-1.836-3.098-3.028-5.101-3.794c-5.188-2.044-11.216-3.009-16.463-0.656c-3.015,1.235-5.601,3.277-8.478,4.777
		c-1.025,0.566-2.177,0.796-3.302,1.072c-0.549,0.184-1.642,0.182-1.446,1.022c0.081,0.264,0.325,0.462,0.521,0.64
		c0.598,0.547,1.237,1.047,1.804,1.628c0.56,0.574,1.115,1.15,1.656,1.742c1.526,1.634,2.838,3.466,4.493,4.976
		c1.936,1.78,4.164,3.19,6.371,4.603c2.445,1.579,5.3,2.377,8.188,2.593c1.234,0.103,2.473-0.046,3.695-0.218
		c1.99-0.314,3.983-0.769,5.792-1.684c1.581-0.892,3.299-1.833,4.328-3.379c0.388-0.58,0.644-1.238,0.702-1.925
		c1.372,1.302,2.771,2.624,3.66,4.317c0.547,0.974,1.024,1.988,1.545,2.976c0.702,1.337,1.461,2.659,1.881,4.12
		c0.38,1.333,0.659,2.691,0.919,4.053c0.009,0.043,0.017,0.085,0.025,0.128c0.033,0.175,0.071,0.35,0.104,0.525
		c0.109,0.586,0.232,1.171,0.357,1.755c0.013,0.12,0.049,0.234,0.102,0.337c1.836,8.224,3.44,16.594,2.95,25.057
		c-0.016,0.408-0.049,0.814-0.076,1.22c-0.348-0.537-0.673-1.087-0.949-1.665c-1.163-2.571-2.473-5.078-3.489-7.714
		c-1.262-2.972-0.298-5.422-2.908-7.905c-0.024-0.169-0.132-0.327-0.321-0.364c-0.067-0.016-0.057,0.009-0.082-0.048
		c-0.203-0.634-0.182-1.324-0.201-1.985c0.052-2.96,0.614-6.188-1.106-8.818c-1.204-2.003-3.106-3.461-5.221-4.404
		c-1.239-0.58-2.546-1.057-3.911-1.214c-2.135-0.291-4.296-0.106-6.44-0.012c-1.887,0.116-3.781,0.188-5.669,0.055
		c-0.859,0.018-3.729-0.568-3.821,0.661c-0.009,0.43,0.318,0.761,0.565,1.08c0.549,0.707,1.129,1.392,1.653,2.118
		c0.955,1.334,1.604,2.847,2.393,4.279c0.725,1.263,1.576,2.448,2.273,3.728c0.535,0.931,1.108,1.842,1.845,2.627
		c1.938,2.106,5.183,3.286,8.002,3.434c1.978-0.003,3.924-0.542,5.828-1.031c0.505-0.163,0.967-0.422,1.416-0.703
		c0.773,0.467,1.519,0.973,2.164,1.613c2.029,1.792,1.296,4.258,2.136,6.554c0.776,2.33,1.808,4.564,2.911,6.755
		c0.551,1.175,1.055,2.384,1.83,3.434c0.282,0.32,0.475,0.83,0.926,0.926c0.029,0,0.05-0.008,0.076-0.01
		c-0.459,5.112-1.571,10.148-2.157,15.25c-1.524,9.928-2.256,20.111-5.724,29.612c-1.496,4.193-3.304,8.29-5.534,12.146
		c0.483-2.185,0.966-4.371,1.362-6.574c1.159-7.154,2.801-14.221,3.851-21.39c0.206-1.745,0.452-3.505,0.317-5.264
		c-0.152-2.671-0.21-5.343-0.358-8.015c-0.082-2.197,0.02-4.419-0.407-6.587c-0.409-1.893-1.023-3.746-1.812-5.515
		c-0.753-1.638-1.757-3.144-2.623-4.723c-0.823-1.528-1.633-3.069-2.868-4.314c-0.836-0.926-1.648-1.911-2.726-2.568
		c-1.127-0.668-2.354-1.142-3.584-1.584c-2.355-0.895-4.747-1.707-7.223-2.196c-3.045-0.68-6.199-0.387-9.276-0.817
		c-2.236-0.41-4.447-0.965-6.652-1.524c-0.371-0.068-0.747-0.273-1.13-0.186c-0.979,0.37-0.207,1.45,0.127,2.053
		c0.902,1.545,1.85,3.088,2.379,4.81c1.234,4.459,1.569,9.226,3.702,13.401c2.385,4.787,4.959,8.103,9.884,10.484
		c2.784,1.251,5.428,2.87,8.368,3.734c2.716,0.758,5.565,0.48,8.337,0.786c1.546,0.19,3.164,0.468,4.423,1.449
		c0.297,0.363,0.26,0.85,0.299,1.294c0.149,1.896-0.164,3.79-0.406,5.666c-0.259,1.775-0.547,3.547-0.938,5.299
		c-1.179,5.392-2.256,10.807-3.049,16.271c-0.426,2.749-0.952,5.483-1.404,8.228c-0.006,0.042-0.014,0.083-0.021,0.125
		c-0.084,0.13-0.162,0.263-0.247,0.393c-2.401,3.784-5.306,7.208-7.866,10.883c-3.702,5.19-7.007,10.657-10.741,15.825
		c-0.078,0.102-0.16,0.202-0.239,0.304c-0.008-0.144-0.021-0.287-0.027-0.431c-0.129-2.411,0.141-4.817,0.613-7.178
		c1.082-5.742,3.072-11.305,4.347-17.006c0.072-0.048,0.135-0.113,0.173-0.207c0.74-0.836,1.585-1.579,2.331-2.412
		c1.461-1.636,2.546-3.572,3.422-5.573c0.4-0.941,0.76-1.903,0.977-2.903c0.321-1.76,0.117-3.631-0.493-5.307
		c-1.496-3.698-4.264-6.693-7.117-9.407c-1.62-1.518-3.198-3.077-4.715-4.698c-0.536-0.555-1.06-1.124-1.613-1.662
		c-0.131-0.128-0.266-0.258-0.447-0.311c-1.347-0.345-1.012,1.511-0.939,2.315c0.092,1.037,0.213,2.073,0.279,3.113
		c0.172,2.525,0.037,5.056-0.069,7.582c-0.116,3.529-0.311,7.316,1.386,10.534c0.803,1.557,2.031,2.822,3.2,4.106
		c0.901,0.965,1.782,1.957,2.735,2.872c-0.401,1.669-0.874,3.323-1.331,4.972c-1.76,6.209-3.867,12.454-4.006,18.965
		c-0.019,1.144,0.023,2.289,0.149,3.425c0.026,0.175,0.036,0.385,0.069,0.583c-1.782,2.235-3.613,4.433-5.161,6.842
		c-2.212,3.298-4.062,6.823-5.758,10.41c-1.189,2.492-2.335,5.005-3.494,7.512c-0.202,0.5-0.531,0.968-0.669,1.485
		c-0.095,0.562,0.324,1.094,0.876,1.184c0.325,0.026,0.644-0.046,0.887-0.289c0.218-0.23,0.331-0.534,0.494-0.803
		c0.672-1.228,1.336-2.464,1.936-3.728c1.736-3.62,3.373-7.299,5.408-10.765c1.543-2.676,3.238-5.266,5.152-7.693
		c1.591-1.991,3.262-3.922,4.712-6.021c3.06-4.454,5.978-9.008,9.054-13.452c0.766-0.52,1.53-1.043,2.298-1.559
		c2.997-1.992,6.097-3.845,9.378-5.333c2.454-1.187,5.121-1.691,7.816-1.865c-0.587,2.529-0.557,4.645,0.867,6.912
		c0.619,1.012,1.348,1.958,2.146,2.836c0.705,0.832,1.642,1.476,2.717,1.708c2.451,0.475,4.968,0.652,7.461,0.716
		c1.809-0.043,3.578-0.485,5.368-0.718c2.34-0.277,4.552-1.107,6.813-1.725c1.485-0.405,2.991-0.747,4.507-1.012
		c0.646-0.196,2.212-0.064,1.997-1.098c-2.714-3.842-6.068-7.247-8.528-11.283c-0.745-1.213-1.636-2.333-2.72-3.261
		c-1.066-1.002-2.242-1.939-3.648-2.407c-1.682-0.551-3.494-0.653-5.253-0.592c-1.814,0.085-3.557,0.71-5.121,1.614
		c-2.737,1.642-5.228,4.034-6.484,7.009c-1.073,0.061-2.144,0.15-3.206,0.323c-4.861,0.893-9.143,3.631-13.24,6.263
		c-0.486,0.325-0.956,0.671-1.434,1.008c1.019-1.424,2.057-2.834,3.133-4.218c3.161-4.115,5.837-8.589,8.013-13.296
		c0.339-0.156,0.475-0.685,0.727-0.973c0.581-0.863,1.181-1.713,1.86-2.502c3.628-4.005,7.504-7.798,11.652-11.264
		c0.067,0.019,0.121,0.047,0.208,0.051c0.272-0.051,0.326-0.291,0.378-0.536c0.078-0.063,0.157-0.123,0.235-0.186
		c0.89,2.179,1.636,2.495,3.525,3.854c1.047,0.801,2.167,1.532,3.451,1.887c1.876,0.612,3.791,1.086,5.692,1.615
		c2.82,0.793,5.609,1.766,8.54,2.063c1.549,0.161,3.107,0.235,4.663,0.274c1.326,0.016,2.636-0.212,3.934-0.46
		c2.785-0.525,5.524-1.415,7.928-2.942c1.566-0.964,2.826-2.323,4.032-3.692c0.937-1.051,1.858-2.122,2.633-3.3
		c2.149-3.524,3.811-7.328,5.436-11.115c0.554-1.246,1.182-2.458,1.815-3.665C462.646,381.886,462.52,381.287,461.288,380.791z"/>
	<path d="M204.999,187.384c1.037,0.826,2.223,1.431,3.398,2.032c1.621,0.771,3.24,1.595,4.989,2.032
		c3.673,0.974,7.497,0.062,10.944-1.311c1.766-0.604,3.428-1.548,5.278-1.871c0.595-0.138,1.24-0.055,1.822-0.212
		c0.147,0.24,0.307,0.472,0.436,0.723c0.641,1.271,0.646,2.72,0.947,4.087c0.092,0.382,0.142,0.859,0.322,1.223
		c-0.957,1.136-1.945,2.246-2.954,3.337c-2.799,2.952-5.434,6.051-8.181,9.048c-2.353,2.437-4.634,4.962-6.461,7.826
		c-0.488,0.692-1.095,1.566-0.426,2.35c0.689,0.82,1.899,0.433,2.291-0.458c0.491-0.728,1.019-1.43,1.538-2.139
		c1.465-2,3.201-3.771,4.926-5.545c3.666-3.992,7.259-8.052,10.874-12.09c0.866-1.017,1.681-2.074,2.481-3.143
		c0.067,0.11,0.154,0.208,0.28,0.264c0.219,0.104,0.472,0.059,0.668-0.069c2.626-0.026,4.399,2.525,5.409,4.668
		c1.658,3.455,2.554,7.331,4.93,10.404c2.371,2.953,5.78,4.939,9.282,6.266c6.753,2.492,12.338-3.472,17.476-6.918
		c2.974-1.89,6.157-3.434,9.436-4.72c0.398-0.14,0.821-0.374,0.912-0.823c0.217-0.928-0.944-1.316-1.596-1.589
		c-5.743-2.107-8.221-7.234-12.501-11.069c-4.802-3.898-11.285-5.904-17.037-2.846c-2.331,1.076-4.572,2.35-6.691,3.798
		c-1.54,1.122-3.213,2.24-4.39,3.744c-0.974-1.146-2.27-2.051-3.755-2.37c-0.428-0.088-0.957-0.154-1.435-0.08
		c1.315-1.819,2.587-3.67,3.891-5.494c1.552-2.112,3.064-4.252,4.563-6.402c0.44-0.026,0.69-0.467,1.002-0.737
		c0.851-0.867,1.731-1.702,2.633-2.518c3.708-3.211,7.441-6.495,11.77-8.852c1.447-0.77,2.939-1.486,4.472-2.071
		c1.975-0.623,4.39-0.489,5.751-2.322c3.695,2.214,7.778,3.84,12.101,4.226c2.499,0.238,5.033,0.441,7.536,0.152
		c4.098-0.6,8.093-2.113,11.263-4.827c3.243-2.712,6.086-5.971,8.31-9.567c2.719-4.768,4.396-10.039,6.085-15.239
		c0.854-2.877,2.092-5.67,2.678-8.615c0.209-2.037-1.48-2.51-2.92-1.458c-7.536,5.094-14.123,3.329-22.51,2.952
		c-4.149-0.161-8.194-0.146-11.803,2.201c-5.916,3.434-8.344,10.345-9.94,16.634c-0.834,3.275-0.716,6.675-1.195,9.999
		c-0.51,4.133-3.048,3.318-6.118,4.247c-1.014,0.343-2.003,0.765-2.975,1.211c-2.977,1.353-5.677,3.229-8.181,5.316
		c-1.372,1.15-2.713,2.337-4.021,3.559c1.811-2.677,3.536-5.415,4.856-8.373c3.114-6.98,5.067-14.468,7.381-21.733
		c2.083-6.538,5.212-14.993,9.944-19.991c3.511-3.776,8.098-6.186,12.459-8.824c4.856-2.73,8.063-7.654,9.821-12.837
		c0.828-2.629,0.865-5.427,0.766-8.16c-0.125-2.67-1.066-5.214-2.222-7.597c-3.181-5.89-6.83-11.518-9.637-17.608
		c-0.891-1.815-1.891-3.575-2.798-5.379c-0.774-1.534-0.92-3.478-1.821-4.85c-3.794,1.405-5.844,6.614-8.78,9.231
		c-6.148,5.481-13.104,10.545-17.129,17.907c-1.63,3.1-2.748,6.426-3.431,9.858c-0.616,2.658-1.018,5.371-0.798,8.105
		c0.229,7.533,6.982,12.253,11.676,17.305c0.804,0.853,1.653,1.696,2.229,2.728c2.459,4.676,0.91,10.48-0.93,14.962
		c-2.24,5.459-3.685,11.249-5.612,16.821c-1.771,5.122-3.522,10.325-6.593,14.841c-1.32,1.975-2.667,3.933-4.03,5.879
		c1.053-4.756,1.026-9.701,1.817-14.511c0.522-3.783,1.079-7.674,1.06-11.521c0.174-0.04,0.338-0.124,0.425-0.311
		c1.115-4.835,3.056-9.515,3.391-14.513c0.481-5.734-4.217-10.044-8.623-12.912c-1.347-0.991-2.68-2.007-4.129-2.852
		c-1.893-1.058-3.865-1.981-5.781-3.004c-1.987-0.965-3.944-2-5.762-3.264c-1.734-1.241-3.622-2.229-5.548-3.141
		c-2.114-1.105-4.112-2.456-6.007-3.903c-0.402-0.314-0.759-0.689-1.165-0.997c-1.019-0.59-1.572,0.259-1.417,1.201
		c0.069,2.709,0.143,5.417,0.225,8.125c0.163,5.435,0.047,10.946,1.317,16.267c0.87,3.055,2.084,6.035,3.793,8.72
		c3.098,4.488,7.537,8.202,12.793,9.829c5.631,1.677,9.272-0.75,15.089,1.885c-0.114,4.064-1.33,7.971-1.987,11.96
		c-0.522,3.092-0.607,6.223-0.809,9.347c-0.151,1.865-0.505,3.704-0.917,5.527c-0.115,0.568-0.232,1.136-0.348,1.704
		c-2.873,4.018-5.798,7.999-8.732,11.97c-0.351-1.817-0.673-3.673-1.735-5.232c-0.299-0.468-0.629-0.913-0.977-1.345
		c0.084-0.978-0.004-1.986-0.06-2.963c-0.243-2.703-1.295-5.474-3.541-7.13c-2.422-1.742-5.208-2.937-8.05-3.813
		c-3.505-1.149-6.723-2.975-9.999-4.638c-2.093-1.142-4.324-2.029-6.347-3.298c-0.738-0.454-1.445-0.954-2.103-1.52
		c-0.301-0.235-0.551-0.539-0.873-0.746c-0.568-0.309-1.188,0.164-1.331,0.727c-1.149,6.136-2.157,13.677,0.54,19.504
		C201.616,183.759,203.137,185.755,204.999,187.384z"/>
	<path d="M81.868,321.958c-0.317-2.571-2.403-6.362-5.457-4.839c-2.676,1.533-5.387,5.372-6.883,8.609
		c-0.513-0.612-1.214-1.058-1.958-1.336c-2.551-1.047-4.305,1.297-4.742,3.563c-0.149,1.186-0.152,2.396-0.124,3.589
		c0.076,1.215,0.593,2.344,0.772,3.543c0.308,2.317,0.952,4.734,1.543,7.009c0.487,1.447,0.597,2.989,1.116,4.424
		c0.334,0.77,0.456,1.598,0.59,2.423c-0.139-0.479-0.276-0.958-0.431-1.433c-1.265-3.825-2.916-7.534-3.815-11.472
		c-0.443-2.06-0.785-4.141-1.215-6.204c-0.232-1.076-0.507-2.142-0.787-3.206c0.126-1.03,0.464-2.052,0.607-3.078
		c0.581-2.374,1.014-4.795,1.888-7.085c1.409-3.653,3.05-7.213,4.443-10.872c1.534-4.362,7.187-14.249,4.692-18.364
		c-1.358-2.52-4.127-1.458-5.969-0.14c-1.14,0.792-1.849,2.037-2.548,3.203c-0.768,1.319-1.575,2.621-2.266,3.983
		c-0.631,1.417-1.114,2.897-1.58,4.376c-1.481,4.362-1.677,8.969-1.608,13.535c-0.033,0.835-0.069,1.67-0.101,2.506
		c-0.328-2.663-0.536-5.343-0.684-8.022c-0.125-2.408-0.297-4.817-0.43-7.227c0.095-1.25,0.264-2.491,0.403-3.737
		c0.066-1.63,0.22-3.29,0.724-4.847c0.387-1.616,0.747-3.256,1.729-4.636c2.289-3.297,4.657-6.542,6.895-9.877
		c1.164-1.668,2.432-3.271,3.408-5.06c1.42-2.826,5.562-9.151,4.346-12.158c-0.518-0.979-1.921-0.97-2.809-0.549
		c-2.256,1.34-3.723,3.674-5.611,5.454c-2.138,2.056-3.577,4.655-4.773,7.342c-1.653,3.341-2.737,6.9-3.844,10.448
		c0.036-0.327,0.049-0.655,0.091-0.982c0.716-4.156,1.463-8.311,2.279-12.451c0.104-0.175,0.204-0.354,0.302-0.533
		c0.038-0.069,0.08-0.135,0.117-0.205c0.403-0.841,0.969-1.576,1.551-2.299c0.88-1.211,1.684-2.475,2.492-3.735
		c2.412-3.991,5.301-7.721,7.251-11.975c1.493-3.937,3.065-8.127,2.632-12.403c-0.507-2.9-3.577-4.395-6.085-2.745
		c-4.293,2.715-6.96,9.055-8.307,13.795c-0.832,3.209-0.989,6.524-1.072,9.829c-0.142-0.764-0.329-1.516-0.662-2.22
		c-1.007-2.164-2.487-4.172-4.46-5.534c-0.034-0.034-0.049-0.002,0.031-0.049c0.609-0.349,1.163-0.795,1.662-1.285
		c1.726-2.05,1.956-5.234,0.703-7.581c-1.268-2.256-5.196-3.333-7.596-2.686c-5.123,1.578-7.682,9.535-1.758,11.85
		c1.456,0.502,3.029,0.588,4.554,0.437c0.194-0.063,0.369,0.157,0.598,0.112c1.929,1.132,3.541,3.042,4.463,5.119
		c0.413,0.817,0.594,1.721,0.795,2.608c0.423,1.586,0.744,3.193,0.866,4.833c0.107,0.678,0.09,1.37,0.157,2.045
		c0.022,0.08,0.08,0.126,0.125,0.187c-0.682,2.983-1.257,5.992-1.84,8.996c-0.269,1.247-0.462,2.508-0.673,3.766
		c-0.095-2.383-0.215-4.766-0.175-7.153c-0.162-3.819,0.183-7.77-1.027-11.45c-0.704-2.127-2.354-3.972-4.398-4.894
		c-2.485-1.234-4.856,1.145-5.672,3.355c-1.351,3.755-1.487,7.903-0.898,11.824c0.207,2.209,0.73,4.358,1.547,6.42
		c0.938,2.394,2.046,4.719,3.555,6.809c1.084,1.817,2.192,3.619,3.292,5.425c0.691,1.332,1.748,2.49,2.144,3.958
		c-0.033,0.346,0.216,0.613,0.245,0.951c0.064,0.188,0.104,0.388,0.143,0.588c0.007,1.321,0.002,2.643,0.058,3.961
		c0.346,5.916,0.478,11.856,1.261,17.735c0.271,1.916,0.615,3.819,1.017,5.709c-0.571-1.549-1.296-3.039-1.636-4.671
		c-0.274-1.032-0.448-2.081-0.608-3.137c-0.213-1.352-0.628-2.661-0.837-4.014c-0.303-2.478-0.714-4.954-1.45-7.344
		c-0.557-1.813-1.025-3.682-2.049-5.304c-0.608-1.012-1.204-2.05-2.067-2.87c-3.372-3.063-9.141-2.182-10.055,2.716
		c-0.492,2.659,0.699,5.264,1.793,7.62c0.333,0.796,0.589,1.629,1.047,2.364c0.867,1.34,2.059,2.444,2.825,3.853
		c0.85,1.457,1.725,2.913,2.876,4.157c1.19,1.268,2.18,2.693,3.233,4.071c2.007,2.348,4.689,4.384,6.491,6.865
		c0.901,1.24,1.403,2.854,1.961,4.268c0.383,0.968,0.72,3.609,1.344,4.285c-0.864-0.935-1.929-1.678-2.769-2.635
		c-1.32-1.504-2.998-2.619-4.587-3.814c-0.492-0.324-1.029-0.55-1.572-0.773c-0.011-0.016-0.044-0.108-0.045-0.11
		c-0.034-0.064-0.03-0.033,0.009-0.11c0.196-0.38,0.383-0.776,0.47-1.197c0.367-2.766-2.557-4.554-4.738-5.539
		c-1.591-0.592-3.425-0.607-5.012,0.002c-1.36,0.545-2.156,1.887-2.747,3.155c-1.438,2.581-1.23,5.6,0.508,7.983
		c1.207,1.598,3.239,2.768,5.282,2.345c2.961-0.394,5.192-1.768,5.937-4.793c0.006-0.021,0.035-0.158,0.053-0.165
		c0.315,0.167,0.648,0.367,0.95,0.572c1.046,0.817,2.103,1.622,3.153,2.435c0.664,0.577,1.213,1.272,1.87,1.855
		c1.173,0.961,2.264,2.01,3.18,3.224c0.322,0.411,0.618,0.846,0.909,1.282c0.656,2.395,1.567,4.706,2.385,7.049
		c1.225,3.245,2.001,6.63,3.004,9.944c1.186,3.686,3.041,7.097,4.645,10.609c1.293,2.859,2.408,5.807,3.982,8.531
		c0.545,0.929,1.114,1.843,1.69,2.752c-2.223-1.558-4.375-3.209-6.439-4.968c-0.574-1.685-1.269-3.315-2.064-4.908
		c-0.991-2.576-1.96-5.161-2.915-7.75c-0.963-2.681-1.941-5.355-2.896-8.037c-0.711-2.253-1.689-4.378-2.822-6.445
		c-0.686-1.631-1.928-2.893-3.051-4.223c-0.337-0.418-0.661-0.841-1.091-1.17c-0.861-0.603-1.934-1.032-2.997-0.979
		c-1.175,0.155-2.353,1.035-2.634,2.219c-0.164,0.7-0.253,1.416-0.315,2.133c-0.001,0.01-0.002,0.022-0.003,0.032
		c-0.228-0.261-0.449-0.529-0.68-0.788c-1.373-1.592-2.868-3.12-4.738-4.125c-1.701-0.999-4.673-1.583-5.561,0.718
		c-0.662,1.711,0.123,3.509,0.684,5.135c1.187,3.212,2.591,6.381,4.488,9.24c0.797,1.162,1.485,2.41,2.494,3.408
		c1.243,1.221,2.523,2.4,3.817,3.566c3.955,3.377,8.273,6.332,12.584,9.236c4.34,2.852,8.556,5.844,12.936,8.597
		c1.102,0.665,2.139,1.425,3.181,2.176c0.79,1.213,1.578,2.427,2.338,3.659c2.145,3.556,4.665,6.856,7.311,10.054
		c3.855,4.962,8.632,9.072,13.048,13.514c1.207,1.109,2.446,2.178,3.703,3.226c-1.525-0.471-3.081-0.812-4.685-0.878
		c-1.862-1.284-3.396-2.981-5.114-4.443c-2.255-1.89-4.367-3.94-6.628-5.823c-3.633-3.177-7.305-6.311-10.985-9.432
		c-1.928-1.58-3.817-3.212-5.8-4.722c-1.706-1.238-3.53-2.406-5.637-2.791c-1.772-0.379-3.667-0.488-5.363,0.246
		c-0.905,0.356-2.012,0.658-2.472,1.597c-0.573,1.409,1.127,4.381,1.96,5.625c3.111,3.379,7.181,5.735,10.947,8.316
		c2.54,1.658,5.072,3.356,7.854,4.593c2.65,1.122,5.332,2.183,8.031,3.177c-1.921-0.39-4.052-0.928-5.934-0.099
		c-1.338,0.575-2.222,2-2.22,3.445c0.057,1.605,1.482,2.807,2.896,3.326c2.455,0.899,5.064,0.239,7.484-0.441
		c3.129-0.658,6.351-1.115,9.552-0.881c3.301-0.183,6.46,0.841,9.537,1.928c6.858,5.289,14.268,9.878,21.67,14.35
		c1.936,1.142,3.89,2.257,5.857,3.352c-0.348-0.046-0.694-0.102-1.043-0.138c-1.12-0.115-2.244-0.227-3.369-0.307
		c-0.006-0.047-0.003-0.09-0.016-0.142c-0.27-0.481-0.877-0.641-1.311-0.946c-1.3-0.766-2.62-1.502-3.973-2.168
		c-2.434-1.209-4.737-2.663-7.166-3.881c-3.951-1.878-7.467-4.616-11.659-5.983c-1.874-0.753-3.94-1.055-5.873-0.328
		c-3.923,1.465-1.302,4.482,0.918,6.107c0.483,0.313,0.999,0.64,1.538,0.891c-0.633-0.076-1.267-0.146-1.905-0.195
		c-2.68-0.11-5.863-0.572-8.111,1.204c-1.422,1.353-1.237,3.729,0.066,5.099c2.814,3.083,9.819,5.23,13.957,5.415
		c3.651,0.172,7.232-0.54,10.784-1.287c3.545-0.594,6.989-1.722,10.568-2.133c0.977-0.078,1.956-0.013,2.932,0.038
		c1.505,0.095,3.018,0.023,4.518,0.205c0.785,0.083,1.565,0.188,2.347,0.291c3.966,2.125,7.992,4.137,12.11,5.946
		c0.648,0.272,1.296,0.548,1.944,0.824c-0.348-0.038-0.697-0.065-1.044-0.105c-1.821-0.256-3.651-0.383-5.485-0.493
		c-1.404-0.071-2.855-0.19-4.23,0.153c-0.313-2.303-3.26-3.796-5.302-2.688c-1.691,0.931-3.649,2.628-3.362,4.757
		c0.71,2.742,4.523,3.101,6.565,1.655c0.898-0.641,1.302-1.839,2.345-2.293c1.714-0.084,3.465,0.186,5.191,0.212
		c3.004,0.122,5.994,0.438,8.997,0.558c0.199-0.007,0.479,0.024,0.781,0.053c1.518,0.581,3.049,1.122,4.62,1.546
		c2.042,0.459,4.098,0.857,6.156,1.248c-1.917,0.218-3.842,0.389-5.773,0.364c-3.921-0.01-7.841-0.012-11.763,0.002
		c-3.87-0.095-7.751-0.265-11.616,0.066c-5.975,0.312-11.941-0.479-17.919-0.363c-2.894-0.082-5.911,0.137-8.368,1.831
		c-1.295,0.837-2.819,1.848-3.039,3.503c-0.172,1.165,0.652,2.109,1.471,2.822c3.125,2.876,8.081,4.084,12.236,4.377
		c4.214,0.25,8.502,0.056,12.647-0.757c4.939-1.186,9.463-2.761,14.298-4.228c3.253-1.209,6.688-1.747,10.048-2.567
		c0.648-0.141,1.287-0.313,1.923-0.495c-0.42,0.212-0.841,0.423-1.273,0.611c-2.171,0.851-4.418,1.634-6.147,3.269
		c-2.156,1.783-3.901,3.981-5.61,6.181c-1.423,1.902-2.858,4.107-2.794,6.571c0.037,1.802,1.466,2.916,3.219,2.608
		c5.927-1.102,9.296-8.131,12.422-12.679c1.949-2.969,5.855-6.589,9.036-8.209c1.934-0.985,1.848-0.862,3.702-0.738
		c1.105,0.074,3.498,2.071,4.698,0.778c0.106-0.114,0.154-0.27,0.183-0.423c0.246-1.297-0.712-2.586-1.912-3.135
		c-1.186-0.542-2.817,0.012-3.857-0.547c-1.419-0.764-2.436-2.779-3.428-3.994c-1.673-2.303-3.538-4.448-5.306-6.673
		c-1.503-2.163-2.865-4.425-4.169-6.712c-2.07-3.467-3.894-7.069-5.927-10.555c-1.29-2.566-2.789-5.021-4.777-7.114
		c-1.451-1.666-4.64-4.39-6.922-4.292c-1.521,0.039-2.576,1.447-2.514,2.905c-0.016,0.945,0.261,1.863,0.429,2.786
		c0.359,1.829,0.745,3.677,1.616,5.342c0.924,1.722,1.867,3.455,3.066,5.005c1.292,1.6,2.744,3.063,4.08,4.625
		c1.702,1.909,3.397,3.826,5.234,5.608c1.854,1.725,3.776,3.38,5.643,5.092c2.456,2.213,4.882,4.464,7.432,6.569
		c0.168,0.124,0.334,0.254,0.502,0.38c-2.489-0.53-4.973-1.079-7.397-1.853c-4.951-1.842-9.78-3.972-14.524-6.284
		c-0.004-0.009-0.001-0.019-0.005-0.029c-0.197-0.329-0.54-0.556-0.793-0.845c-1.166-1.166-2.3-2.367-3.417-3.579
		c-0.581-0.648-1.189-1.267-1.804-1.881c-0.493-0.88-0.837-1.856-1.235-2.786c-1.734-4.811-3.505-9.631-6.198-14.007
		c-0.555-0.941-1.118-1.879-1.689-2.809c-1.416-2.16-3.287-3.979-4.909-5.981c-1.6-1.769-5.809-4.858-7.996-2.675
		c-1.179,1.754-0.476,3.996,0.048,5.863c1.635,7.403,7.402,12.952,13.224,17.396c1.645,1.273,3.284,2.551,4.865,3.903
		c1.946,1.693,3.52,4.193,5.795,5.369c-8.456-4.37-16.624-9.321-24.578-14.516c-0.77-0.507-1.53-1.033-2.294-1.552
		c1.245-1.228,1.894-3,2.445-4.628c0.66-1.883,0.734-4.02-0.211-5.821c-0.563-1.155-2.1-1.899-3.196-0.989
		c-1.504,1.349-1.706,3.566-1.957,5.458c-0.012,0.588-0.269,2.288-0.261,3.759c-0.217-0.155-0.432-0.312-0.647-0.469
		c0.03-0.179,0.001-0.368-0.158-0.496c0.132-0.552-0.001-1.146-0.082-1.701c-0.172-1.094-0.291-2.192-0.362-3.296
		c-0.107-2.596,0.052-5.221,0.647-7.754c0.655-2.719,1.68-5.349,2.613-7.975c1.602,1.496,4.047,1.761,6.048,0.951
		c3.218-1.156,4.459-4.927,4.049-8.082c-0.023-2.174-0.902-3.954-2.818-5.053c-1.605-1.061-3.629-1.746-5.544-1.233
		c-2.223,0.672-3.96,2.836-4.983,4.841c-0.34,0.774-0.553,1.612-0.562,2.459c-0.011,0.934,0.334,1.795,0.771,2.605
		c0.458,0.836,0.895,1.713,1.568,2.402c-1.832,3.92-3.451,8.091-3.617,12.459c-0.298-2.107-0.626-4.211-1.162-6.272
		c-0.905-4.41-2.057-8.808-4.133-12.828c-0.673-1.219-1.506-2.345-2.326-3.467c-1.098-1.537-2.228-3.082-3.761-4.216
		c-4.777-3.658-5.67,2-5.112,5.665c0.413,2.353,1.361,4.562,2.185,6.793c1.287,3.681,3.082,7.157,5.139,10.464
		c1.582,2.719,3.551,5.173,5.436,7.682c0.749,1.034,1.495,2.075,2.271,3.09c-1.851-1.47-3.666-2.984-5.383-4.604
		c-3.483-3.6-7.295-6.881-10.578-10.667c-2.621-3.19-5.286-6.353-7.605-9.77c-0.057-0.087-0.112-0.175-0.169-0.262
		c-0.345-1.6-0.912-3.178-1.171-4.798c0.489-0.422,0.173-1.165,0.431-1.706c0.353-1.212,0.81-2.385,1.181-3.592
		c0.27-0.891,0.466-1.806,0.865-2.654c0.813-1.828,1.927-3.514,2.339-5.502c0.513-1.947,1.188-3.874,1.37-5.889
		c0.117-1.575-0.051-3.149-0.232-4.713c-0.132-1.094-0.119-2.203-0.325-3.288c-0.246-1.25-0.851-2.393-1.496-3.48
		c-0.71-1.507-2.105-2.269-3.735-2.363c-2.242-0.032-3.974,1.942-4.836,3.841c-1.519,3.273-1.6,7.07-1.198,10.601
		c0.426,3.341,1.518,6.519,2.371,9.759c0.407,2.065,0.857,4.124,1.271,6.188c0.18,1.329,0.462,2.635,0.803,3.926
		c-1.313-2.065-2.624-4.131-3.983-6.167c-3.183-4.766-6.41-10.238-7.254-15.998c-0.825-5.628,3.804-12.496,5.626-17.794
		c1.338-3.889,2.844-7.719,4.184-11.607C81.357,327.307,82.268,324.654,81.868,321.958z"/>
</g>
</svg>
