<?xml version="1.0" encoding="utf-8"?>
<!-- Generator: Adobe Illustrator 27.5.0, SVG Export Plug-In . SVG Version: 6.00 Build 0)  -->
<svg version="1.1" xmlns="http://www.w3.org/2000/svg" xmlns:xlink="http://www.w3.org/1999/xlink" x="0px" y="0px"
	 viewBox="0 0 500 500" style="enable-background:new 0 0 500 500;" xml:space="preserve">
<g id="BACKGROUND_1">
	<rect style="fill:#D4EEF5;" width="500" height="500"/>
	<g>
		<defs>
			<rect id="SVGID_1_" width="500" height="500"/>
		</defs>
		<clipPath id="SVGID_00000016034152821408847310000008667896127816164774_">
			<use xlink:href="#SVGID_1_"  style="overflow:visible;"/>
		</clipPath>
		<path style="clip-path:url(#SVGID_00000016034152821408847310000008667896127816164774_);fill:#DEF2FC;" d="M544.077,35.704
			c-24.364,2.192-47.301,4.324-70.962,10.345c-18.49,4.704-36.951,9.628-55.553,13.876c-15.16,3.462-30.742,6.239-46.149,8.247
			c-17.913,2.334-35.432,2.152-53.433,2.05c-16.23-0.092-32.46,0.057-48.689-0.008c-10.692-0.043-21.538-0.791-32.186,0.55
			c-3.582,0.451-37.769,5.315-36.461,13.056c4.304,2.052,10.088,2.06,14.663,3.168c12.348,2.991,23.197,4.302,36.025,4.356
			c22.522,0.095,45.124,0.453,67.564-1.377c9.392-0.766,17.567,0.633,26.838,2.001c9.506,1.403,18.975,1.705,28.532,2.523
			c8.728,0.747,16.91,2.943,25.535,4.019c9.991,1.246,20.602,0.281,30.501-1.206c18.966-2.85,38.217-5.499,56.616-11.012
			c7.414-2.222,14.609-4.004,22.165-5.653c4.899-1.069,9.643-2.858,14.682-3.048c10.049-0.378,18.645,0.798,27.316-5.689
			c4.966-3.715,4.581-7.164,5.373-12.86C556.927,55.636,547.961,38.438,544.077,35.704z"/>
		<path style="clip-path:url(#SVGID_00000016034152821408847310000008667896127816164774_);fill:#DEF2FC;" d="M-27.395,25.204
			c6.274,0.399,12.904-0.823,19.103-1.171c20.904-1.175,41.558-0.004,62.468-2.084c17.379-1.729,34.291-3.962,51.76-4.308
			c16.753-0.332,34.406-3.261,51.104-1.326c9.413,1.091,18.162,4.594,27.617,5.674c10.05,1.148,20.09,1.392,30.071,3.221
			c4.771,0.874,9.832,1.514,14.479,2.952c2.653,0.82,8.36,0.171,9.259,4.436c0.899,4.264-11.512,3.768-17.202,6.029
			c-6.931,2.755-13.535,6.003-20.818,7.815c-6.23,1.55-10.48,1.688-16.496-0.47c-7.576-2.717-14.172-3.915-22.192-4.743
			c-13.356-1.38-25.819-0.305-39.158,0.481c-6.591,0.388-13.321,0.688-19.851,1.721c-7.498,1.187-14.375,4.256-21.768,5.891
			c-14.874,3.289-30.363,4.592-45.395,7.083c-11.062,1.833-21.777,1.792-32.969,1.799c-5.581,0.003-11.165-0.061-16.745-0.011
			c-3.835,0.035-8.083,0.767-11.826-0.413c-5.139-1.62-7.387-5.354-9.082-10.11C-36.272,44.201-21.95,23.935-27.395,25.204z"/>
		<path style="clip-path:url(#SVGID_00000016034152821408847310000008667896127816164774_);fill:#DEF2FC;" d="M-20.967,144.195
			c115.014-34.824,235.823-29.049,354.395-19.849c10.162,0.788,61.506,0.64,66.485,15.794c5.278,16.066-21.625,12.47-29.247,12.768
			c-29.607,1.158-58.451,12.612-88.037,7.006c-29.515-5.592-56.636-5.014-86.545-5.664c-21.4-0.465-43.175-2.244-63.317,7.105
			c-14.126,6.557-24.251,19.09-37.168,27.438c-27.458,17.744-58.124,24.387-90.371,23.45c-10.233-0.297-22.084,2.411-24.297-9.222
			c-3.561-18.717,19.632-23.005,32.29-24.874c15.548-2.296,34.729-3.618,47.133-14.946c10.666-9.741,2.58-14.568-8.991-15.913
			c-15.361-1.786-30.878,7.626-45.735,10.725c-10.022,2.09-19.615,2.458-29.81,2.11c-0.535-3.541-2.025-6.323-4.783-8.927"/>
		<path style="clip-path:url(#SVGID_00000016034152821408847310000008667896127816164774_);fill:#DEF2FC;" d="M529.033,215.195
			c-46.538,2.043-91.348-4.609-137.973,0.842c-15.483,1.81-30.212,3.708-45.696,0.785c-18.964-3.58-34.54-9.416-54.152-8.525
			c-13.733,0.623-27.667,0.421-41.355,1.692c-16.317,1.515-31.127,7.982-46.638,12.831c-17.095,5.344-36.283,9.905-49.036,23.476
			c8.066,3.884,16.954,4.265,25.812,3.724c25.354-1.548,49.822-6.964,75.453-6.937c24.86,0.027,52.21-1.354,76.701,3.691
			c19.187,3.952,33.685,16.306,52.197,21.577c35.187,10.019,67.087,5.081,102.458-1.233c19.172-3.423,42.406-3.199,44.231-27.922"/>
		<path style="clip-path:url(#SVGID_00000016034152821408847310000008667896127816164774_);fill:#DEF2FC;" d="M-15.967,295.194
			c61.548-10.34,125.725,1.522,187.363,6.073c38.036,2.809,75.719-4.015,113.738-2.723c29.584,1.005,59.559,0.149,89.078,1.955
			c6.98,0.427,39.782,0.921,43.811,11.671c3.88,10.351-18.639,11.895-24.55,13.062c-44.026,8.692-85.21,1.325-129.301,2.959
			c-21.173,0.784-41.49,6.217-62.828,4.99c-20.322-1.169-40.383-5.311-60.335-9.049c-29.072-5.446-57.546,2.749-86.134,8.961
			c-20.828,4.526-41.117,16.231-62.23,18.194c-13.573,1.262-42.515-2.414-33.612-23.094"/>
		<path style="clip-path:url(#SVGID_00000016034152821408847310000008667896127816164774_);fill:#DEF2FC;" d="M398.143,375.365
			c-19.71-1.481-39.746-0.34-59.445,0.473c-37.581,1.551-75.154-5.599-112.261,3.341c-35.498,8.552-106.404,13.015-106.1,27.216
			c0.177,8.25,17.579,1.528,26.395,1.724c27.074,0.604,54.002,3.807,81.062,4.868c47.69,1.87,94.684-2.063,142.23-1.81
			c8.886,0.047,125.485-0.705,114.063-18.007c-4.727-7.135-18.475-4.942-25.624-6.145c-18.743-3.154-38.387-9.785-57.968-11.471
			C399.712,375.487,398.928,375.424,398.143,375.365z"/>
		<path style="clip-path:url(#SVGID_00000016034152821408847310000008667896127816164774_);fill:#DEF2FC;" d="M-7.967,431.194
			c41.469,1.136,83.014,8.375,124.44,10.975c25.361,1.592,60.678-10.806,84.397,0.637c17.812,8.593,4.115,16.232-8.692,20.876
			c-28.9,10.48-64.394,13.489-95.052,13.651c-23.698,0.125-47.156-3.448-70.87-3.378c-11.821,0.035-19.565,6.23-30.872,7.303
			c-6.055,0.575-10.986-0.08-16.155-4.465c-9.635-8.174-4.565-16.972-7.196-26.6"/>
		<path style="clip-path:url(#SVGID_00000016034152821408847310000008667896127816164774_);fill:#DEF2FC;" d="M519.033,444.194
			c-76.83,14.879-175.489-7.402-227.342,65.123c14.451,5.115,32.8,4.939,48.103,5.929c31.29,2.024,63.612,5.891,94.956,4.742
			c21.604-0.792,40.994-2.98,62.162-6.869c11.727-2.154,23.202-4.128,35.121-3.918c2.079-6.042-2.134-14.056-2.928-20.684
			c-1.224-10.219,5.532-29.127-2.073-37.324"/>
		<path style="clip-path:url(#SVGID_00000016034152821408847310000008667896127816164774_);fill:#DEF2FC;" d="M300.033,2.194
			c25.661,13.802,51.032,10.407,79.126,14.003c19.211,2.459,37.869,9.057,57.15,9.036c17.852-0.02,35.206-5.043,52.687-8.088
			c6.636-1.156,21.374-1.336,25.906-7.736c14.887-21.028-87.527-22.224-97.091-23.157c-35.93-3.505-73.17,5.016-109.777,3.941"/>
		<path style="clip-path:url(#SVGID_00000016034152821408847310000008667896127816164774_);fill:#DEF2FC;" d="M384.033,37.694
			c-5.261-1.738-12.065-4.348-13.452,3.696c-1.505,8.733,10.846,10.08,16.842,11.083c4.342,0.727,34.451,3.214,32.225-5.918
			c-1.806-7.408-34.857-8.781-42.615-10.361"/>
		<path style="clip-path:url(#SVGID_00000016034152821408847310000008667896127816164774_);fill:#DEF2FC;" d="M362.533,175.195
			c-9.745,2.513-18.622,2.21-22.836,11.834c-3.455,7.891-1.103,11.475,7.075,12.718c12.458,1.894,25.746,0.961,38.318,0.966
			c10.85,0.005,21.7,0.445,32.416-1.574c7.201-1.357,24.502-3.593,22.631-15.311c-1.535-9.609-21.628-9.749-28.515-9.703
			c-12.775,0.086-26.482,6.001-38.962,4.097c-3.101-0.473-6.83-2.296-9.662-1.065C363.039,176.17,362.551,176.183,362.533,175.195z"
			/>
		<path style="clip-path:url(#SVGID_00000016034152821408847310000008667896127816164774_);fill:#DEF2FC;" d="M42.033,231.695
			c-7.76,2.62-15.904,4.031-19.608,12.143c-2.821,6.178-1.46,7.218,4.853,9.443c9.524,3.357,21.033,2.552,30.941,2.795
			c10.881,0.267,22.077,1.386,32.953,0.615c8.139-0.577,21.268-3.477,15.88-14.646c-5.296-10.98-20.468-10.496-30.5-11.251
			c-8.298-0.624-16.499-1.432-24.743-0.71C48.067,230.411,44.711,230.79,42.033,231.695z"/>
		<path style="clip-path:url(#SVGID_00000016034152821408847310000008667896127816164774_);fill:#DEF2FC;" d="M266.033,277.694
			c17.685,0.491,35.341-0.317,52.764,3.318c13.203,2.754,26.548,4.326,39.723,7.052c5.142,1.064,33.461,8.95,32.67-0.359
			c-0.269-3.164-7.441-8.97-10.43-9.92c-5.928-1.885-14.187,1.47-20.239,1.854c-14.302,0.908-24.155-6.914-37.183-11.23
			c-13.002-4.307-23.585-2.714-36.835-1.802c-7.478,0.515-16.11-0.096-23.408,1.679c-3.047,0.741-9.648,3.266-9.228,6.897
			C254.317,279.086,263.06,277.805,266.033,277.694z"/>
		<path style="clip-path:url(#SVGID_00000016034152821408847310000008667896127816164774_);fill:#DEF2FC;" d="M396.033,345.194
			c-5.318-0.13-12.649-2.828-13.794,3.448c-1.801,9.877,17.055,10.034,22.041,10.518c20.579,1.997,41.302,0.593,61.935,0.54
			c5.05-0.013,16.462-1.005,14.171-8.895c-3.578-12.323-26.974-1.663-33.877-0.616C429.06,352.836,413.358,345.618,396.033,345.194z
			"/>
		<path style="clip-path:url(#SVGID_00000016034152821408847310000008667896127816164774_);fill:#DEF2FC;" d="M288.033,439.194
			c-10.568-0.005-19.061-1.601-27.772,4.415c-4.985,3.443-11.968,9.847-3.514,12.59c11.806,3.829,28.907-0.07,40.892-1.497
			c11.302-1.346,22.636-3.135,33.981-4.068c13.218-1.087,31.566,3.585,43.143-4.237c2.928-1.978,8.4-6.285,7.674-10.239
			c-0.668-3.636-8.858-7.118-11.856-7.53c-6.32-0.868-13.966,2.178-20.052,3.567c-7.622,1.74-15.235,3.366-22.949,4.655
			c-8.067,1.348-15.2,0.478-23.19,0.734C299.871,437.73,291.909,442.665,288.033,439.194z"/>
		<path style="clip-path:url(#SVGID_00000016034152821408847310000008667896127816164774_);fill:#DEF2FC;" d="M54.033,362.194
			c-8.924,2.639-16.494,3.642-22.883,10.441c-3.149,3.352-10.236,10.223-8.661,15.7c10.445,3.424,26.659-6.747,36.508-9.2
			c13.505-3.363,27.804-5.215,41.524-7.658c24.324-4.331,47.925,3.274,72.496,0.385c7.771-0.914,18.061-1.367,25.097-5.334
			c9.715-5.478,2.185-10.025-5.566-11.614c-6.811-1.396-13.798-0.475-20.693-0.94c-12.068-0.813-22.096,1.298-33.948,2.22
			c-21.889,1.702-42.884-2.72-64.63,1.497C67.78,358.759,59.412,360.604,54.033,362.194z"/>
		<path style="clip-path:url(#SVGID_00000016034152821408847310000008667896127816164774_);fill:#DEF2FC;" d="M116.366,60.528
			c-11.788,1.5-24.253,2.16-35.807,5.164c-10.336,2.687-25.915,6.844-32.923,15.88c-5.433,7.006,1.5,10.455,8.245,10.38
			c15.476-0.171,32.198-3.803,46.936-8.37c8.098-2.509,15.65-6.323,23.666-8.957c6.461-2.123,12.588-2.081,19.29-2.209
			c7.441-0.141,14.899,0.109,22.291,0.012c4.972-0.065,25.038-6.888,14.265-13.137c-5.158-2.992-13.029-1.854-18.694-1.795
			c-5.841,0.061-11.742,0.721-17.574,1.08c-5.94,0.365-11.502,2.142-17.455,1.619c-2.427-0.213-4.571-0.902-6.966-0.999
			C119.542,59.11,118.37,60.273,116.366,60.528z"/>
	</g>
	<g>
		<defs>
			<rect id="SVGID_00000145032129225749058610000012961441696930156181_" width="500" height="500"/>
		</defs>
		<clipPath id="SVGID_00000176039339871469522270000011530442906643511988_">
			<use xlink:href="#SVGID_00000145032129225749058610000012961441696930156181_"  style="overflow:visible;"/>
		</clipPath>
		<path style="clip-path:url(#SVGID_00000176039339871469522270000011530442906643511988_);fill:#284955;" d="M496.578,187.331
			c0,0,1.223-0.209,1.361-0.095c0.138,0.115-0.905,1.231-1.025,1.657c-0.12,0.425,1.029,2.836-1.098,5.328
			c-2.126,2.492-2.478,1.792-3.257,3.012c-0.779,1.22-0.831,6.482-1.197,6.994c-0.367,0.512-0.834-0.4-1.001-0.831
			c0,0-0.942,0.151-1.14-0.946c0,0-0.954,0.025-0.938-0.837c0,0-0.614,0.248-0.742-0.441c-0.128-0.689,2.218-2.533,2.45-4.148
			c0,0-2.451,1.057-4.531,0.963c-2.08-0.093-3.448-0.763-3.533-1.153c-0.084-0.39,0.387-0.466,0.387-0.466s-2.225-0.55-2.263-0.997
			c-0.038-0.446,0.433-0.522,0.433-0.522s-1.156-0.434-1.082-1.015c0.073-0.58,0.499-0.461,0.499-0.461s-1.725-0.732-1.279-1.761
			c0.446-1.029,1.625-0.342,1.625-0.342s-0.375-0.602,0.13-1c0.505-0.398,2.79,1.907,4.652,2.053c1.862,0.145,3.32-0.277,3.32-0.277
			s-1.662-1.932-1.394-2.395c0.268-0.463,0.798,0.093,0.798,0.093s-0.692-1.274-0.286-2.045c0.406-0.771,0.821-0.077,0.821-0.077
			s-0.073-2.16,0.483-2.69c0.556-0.53,0.925,0.01,0.925,0.01s0.611-2.001,1.444-1.951c0.833,0.05-0.277,2.161,0.686,3.951
			c0.963,1.79,1.807,1.616,2.077,1.432C494.173,188.193,494.25,186.624,496.578,187.331z"/>
		<path style="clip-path:url(#SVGID_00000176039339871469522270000011530442906643511988_);fill:#284955;" d="M493.267,64.931
			c0,0,1.707,0.503,1.813,0.738s-1.943,1.014-2.366,1.486s-0.466,4.301-4.778,6.167c-4.311,1.866-4.322,0.742-6.095,1.821
			c-1.773,1.079-5.163,7.822-5.959,8.25c-0.795,0.428-0.821-1.042-0.765-1.702c0,0-1.308-0.4-0.87-1.937c0,0-1.244-0.57-0.68-1.67
			c0,0-0.948-0.068-0.677-1.036c0.271-0.968,4.455-1.86,5.774-3.793c0,0-3.823-0.187-6.442-1.621
			c-2.619-1.434-3.958-3.16-3.82-3.716c0.138-0.556,0.792-0.356,0.792-0.356s-2.518-2.114-2.285-2.713
			c0.233-0.598,0.887-0.399,0.887-0.399s-1.214-1.289-0.753-1.99c0.461-0.701,0.933-0.278,0.933-0.278s-1.759-2.032-0.535-3.075
			c1.224-1.044,2.309,0.585,2.309,0.585s-0.102-1.012,0.799-1.205s2.389,4.218,4.694,5.581c2.305,1.363,4.45,1.74,4.45,1.74
			s-0.92-3.537-0.283-3.965c0.638-0.427,0.968,0.623,0.968,0.623s-0.087-2.077,0.923-2.813c1.01-0.736,1.106,0.42,1.106,0.42
			s1.269-2.828,2.32-3.159s1.185,0.596,1.185,0.596s2.049-2.191,3.091-1.6c1.041,0.59-1.721,2.607-1.611,5.521
			c0.11,2.914,1.307,3.223,1.77,3.155S490.716,62.55,493.267,64.931z"/>
		<path style="clip-path:url(#SVGID_00000176039339871469522270000011530442906643511988_);fill:#284955;" d="M438.207,107.495
			c0,0,2.484-1.271,2.784-1.253c0.3,0.018-0.743,2.364-0.903,3.358c-0.16,0.994-0.551,4.181-0.034,5.617
			c0.516,1.436,5.269,0.816,7.146-0.376c1.877-1.192,6.339,1.382,10.35,1.421c4.011,0.039,5.399,0.322,5.127,1.51
			c-0.272,1.188-3.431,2.003-3.431,2.003s0.922,1.359-0.343,2.388c-1.265,1.028-2.871,1.033-2.871,1.033s0.116,1.412-1.631,2.11
			c-1.747,0.698-3.629,0.285-3.629,0.285s0.046,0.906-1.701,1.604c-1.747,0.698-3.529,0.291-3.529,0.291s-0.684,1.364-2.295,1.468
			c-1.612,0.104-3.563-0.815-3.563-0.815s-1.807,1.698-1.463,4.327c0.345,2.629,1.547,6.012,0.288,6.94
			c-1.26,0.928-2.799-0.167-2.799-0.167s-0.207,1.794-1.531,2.116c-1.324,0.322-2.452-0.949-2.452-0.949s-1.237,2.234-2.883,1.233
			c-1.646-1.001,1.427-3.728,2.3-6.585c0.873-2.858-0.271-5.535-0.271-5.535s-2.201,1.574-4.329,0.243c0,0-2.689,1.344-4.299-0.257
			c0,0-3.177,1.115-5.045-1.204c0,0-2.441,0.557-3.364-0.803c0,0-4.287-0.457-5.209-1.816c-0.922-1.359,6.372-2.529,9.056-5.479
			c2.685-2.95,4.974-4.319,7.367-4.075c2.394,0.243,5.799,0.346,6.723,0s0.821-3.663,2.088-6.397
			C435.126,106.996,438.207,107.495,438.207,107.495z"/>
		<path style="clip-path:url(#SVGID_00000176039339871469522270000011530442906643511988_);fill:#284955;" d="M183.952,233.422
			c0,0,2.005-1.026,2.247-1.011c0.242,0.014-0.6,1.908-0.729,2.71c-0.129,0.802-0.444,3.374-0.028,4.533
			c0.417,1.158,4.252,0.659,5.767-0.303c1.515-0.962,5.116,1.115,8.353,1.146c3.237,0.031,4.357,0.26,4.138,1.219
			c-0.219,0.959-2.769,1.616-2.769,1.616s0.744,1.097-0.277,1.927c-1.021,0.83-2.317,0.833-2.317,0.833s0.094,1.139-1.316,1.703
			c-1.41,0.564-2.929,0.23-2.929,0.23s0.037,0.731-1.373,1.295s-2.848,0.235-2.848,0.235s-0.552,1.101-1.852,1.185
			c-1.301,0.084-2.876-0.658-2.876-0.658s-1.458,1.37-1.18,3.492c0.278,2.122,1.249,4.852,0.232,5.601
			c-1.016,0.749-2.259-0.135-2.259-0.135s-0.167,1.448-1.236,1.708c-1.068,0.26-1.978-0.766-1.978-0.766s-0.998,1.803-2.327,0.995
			c-1.328-0.808,1.151-3.008,1.856-5.314c0.704-2.306-0.219-4.467-0.219-4.467s-1.776,1.27-3.494,0.196c0,0-2.17,1.085-3.469-0.207
			c0,0-2.564,0.9-4.072-0.972c0,0-1.97,0.449-2.714-0.648c0,0-3.46-0.368-4.204-1.466c-0.744-1.097,5.142-2.041,7.309-4.422
			c2.166-2.381,4.014-3.485,5.945-3.289s4.68,0.279,5.425,0c0.745-0.279,0.662-2.956,1.685-5.163
			C181.466,233.019,183.952,233.422,183.952,233.422z"/>
		<path style="clip-path:url(#SVGID_00000176039339871469522270000011530442906643511988_);fill:#284955;" d="M413.654,182.871
			c0,0,1.597,0.617,1.625,1.155c0,0-1.404-0.034-2.018,0.397s-1.653,1.433-3.069,2.157c-0.988,0.505-1.432,4.164-4.635,6.037
			c-3.203,1.873-5.252,2.509-6.572,4.477c-1.321,1.968-1.329,4.687-2.091,4.76c-0.762,0.072-1.103-0.87-1.103-0.87
			s-0.348,1.388-1.572,1.086c-1.224-0.302-1.457-2.275-1.457-2.275s-1.168,0.773-2.106-0.051c-0.939-0.825,0.215-2.061,0.215-2.061
			s-1.495,0.294-1.865-0.798c-0.37-1.092,2.458-2.502,4.087-2.901c1.63-0.398,2.422-0.71,3.067-1.38
			c0.645-0.67,1.366-2.132,1.366-2.132s-1.792-0.424-3.908-2.104c-2.116-1.68-3.671-6.42-3.671-6.42s-1.108,0.684-1.913,0.144
			c-0.805-0.54-1.238-0.766-1.238-0.766s-1.496,0.683-2.302,0.531c-0.806-0.152-1.372-0.661-1.372-0.661s-2.092,0.023-2.687-0.636
			c-0.596-0.659,4.502-1.585,7.598-2.816c3.096-1.231,5.489-2.09,6.966-1.294c1.477,0.796,1.605,2.634,3.081,3.819
			c1.475,1.185,2.937,1.906,2.937,1.906s-0.679-7.786,0.103-9.337c0.782-1.551,3.362-0.274,5.622-1.417
			c2.259-1.144,4.429-2.347,4.741-1.554c0.311,0.793-1.457,2.461-1.457,2.461s0.477,0.45-0.213,1.284
			c-0.69,0.835-2.617,0.903-2.617,0.903s1.453,3.829,1.041,6.472C408.236,180.987,412.188,178.578,413.654,182.871z"/>
		<path style="clip-path:url(#SVGID_00000176039339871469522270000011530442906643511988_);fill:#284955;" d="M401.295,416.162
			c0,0,0.837,1.726,0.449,2.189c0,0-1.125-1.101-1.958-1.216c-0.833-0.115-2.45-0.089-4.164-0.577
			c-1.196-0.341-4.356,2.319-8.413,1.407c-4.057-0.912-6.222-1.956-8.809-1.352c-2.587,0.604-4.671,2.827-5.351,2.304
			c-0.68-0.523-0.24-1.556-0.24-1.556s-1.346,0.872-2.118-0.311c-0.772-1.183,0.544-2.979,0.544-2.979s-1.548-0.258-1.688-1.652
			c-0.139-1.393,1.752-1.525,1.752-1.525s-1.45-0.901-0.92-2.079c0.531-1.178,3.927-0.173,5.568,0.745
			c1.64,0.919,2.528,1.269,3.569,1.212c1.041-0.057,2.749-0.704,2.749-0.704s-1.145-1.716-1.596-4.711
			c-0.451-2.994,1.897-8.069,1.897-8.069s-1.431-0.286-1.678-1.344c-0.247-1.058-0.43-1.574-0.43-1.574s-1.748-0.584-2.293-1.324
			c-0.545-0.741-0.62-1.591-0.62-1.591s-1.733-1.579-1.717-2.575c0.015-0.996,4.902,2.141,8.38,3.498
			c3.479,1.357,6.097,2.482,6.699,4.263c0.602,1.781-0.697,3.387-0.393,5.485c0.304,2.099,0.951,3.807,0.951,3.807
			s5.393-6.901,7.22-7.576c1.826-0.675,2.966,2.345,5.692,3.134c2.726,0.789,5.425,1.461,5.074,2.348
			c-0.351,0.888-3.075,0.904-3.075,0.904s0.047,0.733-1.156,0.89c-1.203,0.157-2.836-1.259-2.836-1.259s-1.735,4.249-4.092,6.101
			C398.293,410.478,403.373,411.523,401.295,416.162z"/>
		<path style="clip-path:url(#SVGID_00000176039339871469522270000011530442906643511988_);fill:#284955;" d="M482.35,231.767
			c0,0,2.471,0.933,2.605,1.2c0.134,0.267-1.469,0.669-3.338,1.271c-1.869,0.602-3.338,1.338-5.205,4.277s-5.003,7.148-13.818,5.418
			s-8.882-2.198-11.553-1.528c-2.67,0.67-5.674,1.94-6.81,1.407c-1.135-0.534-0.402-1.669-0.402-1.669s-2.137,0.135-2.404-0.933
			c-0.268-1.068,1.067-2.404,1.067-2.404s-1.803,0.001-1.804-1.268c-0.001-1.269,3.071-0.603,5.208-0.003
			c2.137,0.6,7.878-1.14,9.546-4.346c0,0-1.603-0.533-0.936-2.403c0,0-1.87-1.201-0.47-4.407c0,0-1.27-2.336,0.665-4.608
			c0,0-0.736-1.936,0.999-4.007c0,0-0.068-2.671,1.4-4.208c0,0-0.87-2.804,0.532-3.94c1.401-1.136,1.472,4.273,4.011,6.541
			c2.539,2.269,3.875,3.536,4.477,5.472c0,0,0.466-2.471,2.001-2.672c0,0-0.002-2.537,1.801-3.34c0,0-0.536-1.869,0.799-2.872
			c0,0-0.536-3.472,0.799-3.94c1.335-0.468,2.943,8.278,3.28,12.417c0.337,4.14-3.466,8.549-3.132,9.484
			c0,0,1.203,0.934,3.071-0.403C476.605,228.966,480.544,228.096,482.35,231.767z"/>
		<path style="clip-path:url(#SVGID_00000176039339871469522270000011530442906643511988_);fill:#284955;" d="M275.738,317.486
			c0,0,2.104,1.801,2.105,2.202c0,0.401-3.405,0.203-4.306,0.604c-0.901,0.401-3.402,5.811-10.713,5.716
			c-7.312-0.095-6.612-1.698-9.816-1.296c-3.205,0.403-12.314,7.82-13.717,7.922c-1.402,0.101-0.502-2.003-0.002-2.905
			c0,0-1.604-1.401-0.002-3.305c0,0-1.403-1.602,0.098-2.805c0,0-1.303-0.7-0.302-1.903c1.001-1.203,7.512,0.195,10.616-1.71
			c0,0-5.31-2.701-8.117-6.405c-2.807-3.704-3.608-7.009-3.059-7.71c0.549-0.702,1.351-0.001,1.351-0.001s-2.229-4.606-1.517-5.307
			s1.514-0.001,1.514-0.001s-0.903-2.603,0.198-3.305c1.101-0.702,1.503,0.199,1.503,0.199s-1.205-4.006,1.199-4.708
			c2.403-0.703,2.906,2.302,2.906,2.302s0.5-1.503,1.902-1.203c1.402,0.3,0.706,7.512,3.112,10.915
			c2.406,3.404,5.212,5.305,5.212,5.305s0.946-5.609,2.124-5.811c1.178-0.201,0.979,1.502,0.979,1.502s1.2-3.005,3.103-3.407
			c1.903-0.402,1.303,1.301,1.303,1.301s3.604-3.207,5.306-3.008c1.703,0.199,1.303,1.602,1.303,1.602s4.306-1.806,5.408-0.304
			c1.103,1.502-4.105,2.607-5.805,6.815c-1.7,4.208-0.197,5.409,0.504,5.608C270.828,314.585,273.631,312.48,275.738,317.486z"/>
		<path style="clip-path:url(#SVGID_00000176039339871469522270000011530442906643511988_);fill:#284955;" d="M171.349,410.831
			c0,0,0.871,1.801,0.755,2.066c-0.116,0.265-2.312-0.852-3.024-0.847c-0.712,0.005-3.933,2.86-8.743,0.681
			c-4.81-2.179-3.883-3.037-6.12-3.699c-2.237-0.661-10.411,1.61-11.368,1.271c-0.957-0.339,0.247-1.471,0.839-1.922
			c0,0-0.655-1.391,0.955-2.188c0,0-0.465-1.466,0.877-1.827c0,0-0.659-0.84,0.351-1.346c1.01-0.506,4.914,2.304,7.519,1.941
			c0,0-2.732-3.324-3.517-6.587c-0.785-3.263-0.359-5.682,0.208-5.987c0.566-0.305,0.894,0.391,0.894,0.391
			s-0.142-3.693,0.532-3.951c0.674-0.258,1.002,0.438,1.002,0.438s0.156-1.984,1.088-2.13c0.932-0.146,0.936,0.567,0.936,0.567
			s0.362-2.999,2.156-2.768c1.793,0.231,1.257,2.364,1.257,2.364s0.766-0.85,1.607-0.245c0.841,0.604-1.707,5.174-1.1,8.123
			c0.607,2.949,1.913,5.018,1.913,5.018s2.25-3.438,3.087-3.23c0.837,0.208,0.213,1.277,0.213,1.277s1.664-1.641,3.039-1.356
			c1.375,0.285,0.485,1.238,0.485,1.238s3.313-1.079,4.382-0.454c1.069,0.625,0.399,1.437,0.399,1.437s3.371,0.052,3.666,1.364
			c0.295,1.313-3.47,0.537-5.813,2.829c-2.343,2.292-1.696,3.522-1.29,3.857C168.94,407.491,171.404,406.909,171.349,410.831z"/>
		<path style="clip-path:url(#SVGID_00000176039339871469522270000011530442906643511988_);fill:#284955;" d="M397.494,267.635
			c0,0,2.093,1.845,2.186,2.131c0.093,0.286-2.472,0.175-3.455,0.391c-0.983,0.216-4.092,1.02-5.238,2.027
			c-1.146,1.007,1.172,5.202,2.969,6.511c1.797,1.31,1.038,6.404,2.472,10.151c1.434,3.746,1.679,5.141,0.474,5.324
			c-1.205,0.183-3.121-2.458-3.121-2.458s-0.927,1.356-2.347,0.556c-1.42-0.801-2.013-2.293-2.013-2.293s-1.271,0.626-2.561-0.744
			c-1.29-1.37-1.595-3.272-1.595-3.272s-0.826,0.375-2.116-0.995c-1.29-1.37-1.564-3.177-1.564-3.177s-1.52-0.136-2.207-1.597
			c-0.688-1.461-0.548-3.614-0.548-3.614s-2.242-1.059-4.562,0.225c-2.32,1.284-5.027,3.643-6.352,2.812
			c-1.325-0.832-0.87-2.666-0.87-2.666s-1.745,0.464-2.53-0.649c-0.785-1.113-0.016-2.629-0.016-2.629s-2.532-0.332-2.203-2.231
			c0.328-1.898,3.991-0.039,6.97-0.274c2.979-0.235,5.05-2.281,5.05-2.281s-2.272-1.471-1.813-3.939c0,0-2.237-2.009-1.337-4.094
			c0,0-2.202-2.547-0.729-5.135c0,0-1.413-2.068-0.486-3.424c0,0-1.147-4.156-0.22-5.512c0.927-1.356,4.689,5.001,8.417,6.418
			c3.729,1.417,5.841,3.045,6.492,5.361c0.651,2.316,1.803,5.522,2.464,6.255c0.661,0.732,3.709-0.579,6.717-0.402
			S397.494,267.635,397.494,267.635z"/>
		<path style="clip-path:url(#SVGID_00000176039339871469522270000011530442906643511988_);fill:#284955;" d="M143.122,157.029
			c0,0,2.378,0.137,2.591,0.28c0.213,0.143-1.568,1.419-2.115,2.082c-0.547,0.663-2.212,2.841-2.451,4.121
			c-0.24,1.28,3.527,2.877,5.424,2.81c1.897-0.067,4.071,3.756,7.008,5.517c2.937,1.761,3.836,2.57,3.123,3.327
			c-0.713,0.757-3.391-0.007-3.391-0.007s0.092,1.399-1.284,1.61c-1.376,0.21-2.56-0.48-2.56-0.48s-0.524,1.09-2.113,0.849
			c-1.588-0.241-2.795-1.358-2.795-1.358s-0.357,0.687-1.946,0.446c-1.588-0.241-2.724-1.31-2.724-1.31s-1.092,0.709-2.324,0.09
			c-1.232-0.619-2.272-2.139-2.272-2.139s-2.064,0.47-2.946,2.555c-0.882,2.085-1.458,5.096-2.786,5.235
			c-1.328,0.139-1.989-1.332-1.989-1.332s-0.928,1.231-2.041,0.897c-1.114-0.334-1.395-1.758-1.395-1.758s-1.876,1.11-2.655-0.338
			c-0.779-1.448,2.661-2.129,4.538-3.856c1.877-1.727,2.191-4.193,2.191-4.193s-2.301,0.208-3.293-1.691
			c0,0-2.561-0.172-3.055-2.046c0,0-2.821-0.552-3.195-3.066c0,0-2.038-0.645-2.13-2.044c0,0-2.96-2.188-3.051-3.588
			c-0.092-1.399,5.784,0.89,9.036-0.123c3.251-1.013,5.528-1.031,7.185,0.182c1.657,1.213,4.12,2.76,4.95,2.904
			c0.83,0.144,2.187-2.343,4.301-3.809S143.122,157.029,143.122,157.029z"/>
		<path style="clip-path:url(#SVGID_00000176039339871469522270000011530442906643511988_);fill:#284955;" d="M34.699,289.668
			c0,0,2.514,0.626,2.712,0.822c0.199,0.196-1.962,1.2-2.68,1.798c-0.718,0.598-2.937,2.589-3.451,3.909
			c-0.515,1.319,3.189,3.786,5.23,4.097c2.041,0.311,3.592,4.835,6.375,7.31c2.783,2.475,3.581,3.52,2.666,4.185
			c-0.915,0.665-3.622-0.692-3.622-0.692s-0.184,1.514-1.697,1.461c-1.513-0.053-2.639-1.029-2.639-1.029s-0.78,1.059-2.429,0.481
			c-1.649-0.578-2.713-2.015-2.713-2.015s-0.52,0.662-2.169,0.084c-1.649-0.578-2.647-1.95-2.647-1.95s-1.31,0.537-2.502-0.373
			c-1.191-0.91-1.996-2.744-1.996-2.744s-2.301,0.086-3.664,2.136c-1.363,2.05-2.586,5.151-4.033,5.032
			c-1.448-0.119-1.857-1.825-1.857-1.825s-1.24,1.128-2.362,0.546c-1.123-0.582-1.136-2.16-1.136-2.16s-2.229,0.808-2.769-0.897
			c-0.541-1.705,3.273-1.738,5.627-3.204c2.354-1.467,3.187-4.038,3.187-4.038s-2.501-0.242-3.177-2.471c0,0-2.702-0.7-2.851-2.803
			c0,0-2.903-1.159-2.795-3.921c0,0-2.048-1.1-1.864-2.614c0,0-2.721-2.936-2.537-4.449c0.184-1.514,6.002,2.118,9.68,1.692
			c3.679-0.426,6.115,0.013,7.641,1.644c1.526,1.631,3.846,3.781,4.704,4.102c0.858,0.321,2.81-2.063,5.364-3.202
			C32.849,287.439,34.699,289.668,34.699,289.668z"/>
		<path style="clip-path:url(#SVGID_00000176039339871469522270000011530442906643511988_);fill:#284955;" d="M436.031,274.499
			c0,0,1.353,0.408,1.457,0.52c0.103,0.112-1.102,0.602-1.509,0.909c-0.407,0.307-1.67,1.334-1.985,2.039
			c-0.316,0.706,1.638,2.149,2.742,2.372c1.104,0.224,1.83,2.731,3.281,4.154c1.451,1.423,1.859,2.014,1.342,2.352
			c-0.516,0.338-1.956-0.474-1.956-0.474s-0.141,0.82-0.964,0.751c-0.823-0.069-1.411-0.631-1.411-0.631s-0.453,0.556-1.337,0.198
			c-0.883-0.359-1.426-1.17-1.426-1.17s-0.301,0.347-1.185-0.012c-0.883-0.359-1.391-1.133-1.391-1.133s-0.729,0.258-1.354-0.27
			c-0.625-0.528-1.015-1.549-1.015-1.549s-1.256-0.014-2.054,1.067c-0.798,1.081-1.546,2.739-2.332,2.636
			c-0.786-0.103-0.964-1.044-0.964-1.044s-0.706,0.582-1.302,0.235c-0.597-0.347-0.562-1.208-0.562-1.208s-1.236,0.381-1.486-0.562
			c-0.249-0.944,1.83-0.86,3.153-1.597c1.323-0.737,1.845-2.117,1.845-2.117s-1.357-0.198-1.666-1.432c0,0-1.454-0.453-1.48-1.604
			c0,0-1.552-0.709-1.42-2.212c0,0-1.087-0.654-0.946-1.475c0,0-1.405-1.672-1.265-2.493c0.141-0.82,3.215,1.314,5.232,1.18
			c2.017-0.135,3.333,0.17,4.122,1.099c0.789,0.929,1.996,2.163,2.455,2.361c0.459,0.198,1.586-1.05,3.009-1.603
			C435.081,273.234,436.031,274.499,436.031,274.499z"/>
		<path style="clip-path:url(#SVGID_00000176039339871469522270000011530442906643511988_);fill:#284955;" d="M467.617,464.303
			c0,0-0.24,1.393-0.338,1.509c-0.098,0.116-0.732-1.02-1.087-1.386c-0.354-0.367-1.528-1.494-2.267-1.721
			c-0.739-0.227-1.932,1.888-2.02,3.012c-0.087,1.123-2.487,2.15-3.721,3.764c-1.235,1.614-1.772,2.091-2.171,1.62
			c-0.399-0.471,0.231-1.999,0.231-1.999s-0.831-0.039-0.864-0.865c-0.032-0.826,0.454-1.478,0.454-1.478s-0.608-0.382-0.36-1.302
			c0.248-0.921,0.987-1.558,0.987-1.558s-0.381-0.257-0.133-1.177c0.248-0.921,0.955-1.519,0.955-1.519s-0.345-0.692,0.102-1.377
			c0.447-0.685,1.413-1.197,1.413-1.197s-0.139-1.249-1.31-1.908c-1.171-0.659-2.908-1.2-2.901-1.993
			c0.006-0.793,0.919-1.084,0.919-1.084s-0.664-0.629-0.393-1.264c0.272-0.635,1.13-0.706,1.13-0.706s-0.53-1.181,0.376-1.543
			c0.906-0.363,1.078,1.711,1.971,2.934c0.893,1.222,2.326,1.572,2.326,1.572s0.031-1.371,1.217-1.829c0,0,0.272-1.499,1.411-1.665
			c0,0,0.514-1.627,2.022-1.679c0,0,0.516-1.159,1.348-1.12c0,0,1.488-1.599,2.319-1.56c0.831,0.039-0.911,3.352-0.531,5.337
			c0.38,1.985,0.239,3.329-0.587,4.225c-0.826,0.896-1.903,2.246-2.043,2.725c-0.14,0.48,1.236,1.446,1.959,2.791
			C468.756,463.206,467.617,464.303,467.617,464.303z"/>
		<path style="clip-path:url(#SVGID_00000176039339871469522270000011530442906643511988_);fill:#284955;" d="M58.429,238.574
			c0,0,1.354,0.408,1.457,0.52c0.103,0.112-1.102,0.602-1.509,0.909c-0.407,0.307-1.67,1.334-1.985,2.039
			c-0.316,0.706,1.638,2.149,2.742,2.372c1.104,0.224,1.83,2.731,3.281,4.154c1.451,1.423,1.858,2.014,1.342,2.352
			c-0.516,0.338-1.956-0.473-1.956-0.473s-0.141,0.82-0.964,0.751c-0.823-0.069-1.411-0.631-1.411-0.631s-0.453,0.556-1.337,0.198
			c-0.883-0.359-1.425-1.17-1.425-1.17s-0.301,0.347-1.185-0.012c-0.883-0.359-1.391-1.133-1.391-1.133s-0.729,0.258-1.354-0.27
			c-0.625-0.528-1.015-1.549-1.015-1.549s-1.256-0.015-2.054,1.067c-0.797,1.081-1.546,2.739-2.332,2.636
			c-0.786-0.103-0.964-1.044-0.964-1.044s-0.706,0.582-1.302,0.235c-0.597-0.347-0.562-1.208-0.562-1.208s-1.236,0.381-1.486-0.562
			c-0.249-0.944,1.83-0.86,3.153-1.597s1.845-2.117,1.845-2.117s-1.357-0.198-1.666-1.432c0,0-1.454-0.453-1.48-1.604
			c0,0-1.552-0.709-1.42-2.212c0,0-1.087-0.654-0.946-1.475c0,0-1.405-1.673-1.265-2.493c0.141-0.82,3.215,1.314,5.232,1.18
			c2.017-0.135,3.333,0.17,4.122,1.099c0.789,0.929,1.996,2.163,2.455,2.361c0.459,0.198,1.586-1.05,3.009-1.603
			C57.48,237.31,58.429,238.574,58.429,238.574z"/>
		<path style="clip-path:url(#SVGID_00000176039339871469522270000011530442906643511988_);fill:#284955;" d="M444.544,342.923
			c0,0,1.935,0.605,2.082,0.767c0.146,0.162-1.588,0.848-2.177,1.282c-0.589,0.434-2.414,1.888-2.876,2.895
			c-0.463,1.007,2.317,3.105,3.898,3.442c1.58,0.337,2.584,3.943,4.645,6.004c2.06,2.061,2.636,2.915,1.891,3.393
			c-0.745,0.478-2.798-0.707-2.798-0.707s-0.214,1.174-1.393,1.064c-1.18-0.111-2.015-0.926-2.015-0.926s-0.658,0.791-1.92,0.264
			c-1.262-0.527-2.027-1.699-2.027-1.699s-0.437,0.493-1.699-0.034c-1.262-0.527-1.978-1.645-1.978-1.645s-1.049,0.359-1.938-0.406
			c-0.889-0.766-1.433-2.236-1.433-2.236s-1.801-0.039-2.961,1.5c-1.159,1.539-2.257,3.906-3.383,3.746
			c-1.125-0.16-1.367-1.511-1.367-1.511s-1.02,0.825-1.871,0.318c-0.85-0.507-0.789-1.74-0.789-1.74s-1.778,0.529-2.122-0.828
			c-0.344-1.357,2.637-1.207,4.544-2.245c1.907-1.038,2.676-3.009,2.676-3.009s-1.943-0.304-2.369-2.077
			c0,0-2.079-0.671-2.099-2.321c0,0-2.215-1.039-2.004-3.192c0,0-1.549-0.954-1.336-2.128c0,0-1.991-2.419-1.777-3.593
			c0.214-1.174,4.592,1.931,7.486,1.767c2.894-0.164,4.777,0.292,5.895,1.636c1.118,1.344,2.831,3.131,3.486,3.421
			c0.655,0.291,2.29-1.482,4.338-2.255C443.2,341.096,444.544,342.923,444.544,342.923z"/>
		<path style="clip-path:url(#SVGID_00000176039339871469522270000011530442906643511988_);fill:#284955;" d="M386.932,339.082
			c0,0,1.904,1.201,1.804,1.902c0,0-1.803-0.399-2.704,0.002c-0.901,0.401-2.495,1.43-4.506,2.006
			c-1.402,0.402-2.901,5.01-7.508,6.615c-4.606,1.606-7.411,1.908-9.613,4.113c-2.202,2.205-2.901,5.711-3.902,5.612
			c-1.002-0.1-1.203-1.402-1.203-1.402s-0.8,1.703-2.303,1.003c-1.503-0.7-1.304-3.304-1.304-3.304s-1.702,0.702-2.705-0.599
			c-1.002-1.301,0.799-2.605,0.799-2.605s-2.003,0.001-2.204-1.501c-0.201-1.502,3.804-2.607,6.008-2.708
			c2.203-0.102,3.305-0.303,4.306-1.004c1.001-0.702,2.302-2.405,2.302-2.405s-2.204-1-4.51-3.703
			c-2.305-2.703-3.111-9.212-3.111-9.212s-1.602,0.602-2.504-0.299c-0.902-0.901-1.403-1.301-1.403-1.301s-2.103,0.502-3.105,0.102
			c-1.002-0.4-1.603-1.201-1.603-1.201s-2.705-0.499-3.306-1.5c-0.602-1.001,6.209-0.906,10.516-1.71
			c4.306-0.804,7.611-1.307,9.315,0.094c1.704,1.401,1.405,3.805,3.009,5.707c1.604,1.902,3.307,3.203,3.307,3.203
			s1.095-10.217,2.496-12.021c1.401-1.804,4.407,0.498,7.612-0.406c3.204-0.904,6.309-1.907,6.51-0.806
			c0.201,1.102-2.502,2.806-2.502,2.806s0.501,0.701-0.6,1.603c-1.101,0.902-3.605,0.503-3.605,0.503s0.905,5.308-0.295,8.614
			C380.42,335.28,386.127,333.173,386.932,339.082z"/>
		<path style="clip-path:url(#SVGID_00000176039339871469522270000011530442906643511988_);fill:#284955;" d="M213.979,172.304
			c0,0,1.113,0.533,1.103,0.921c0,0-1.007-0.103-1.472,0.173c-0.465,0.276-1.268,0.937-2.326,1.379
			c-0.738,0.308-1.261,2.912-3.667,4.079c-2.406,1.167-3.913,1.51-4.972,2.85c-1.059,1.34-1.216,3.294-1.768,3.303
			c-0.552,0.01-0.744-0.687-0.744-0.687s-0.327,0.978-1.19,0.693c-0.863-0.286-0.92-1.716-0.92-1.716s-0.882,0.491-1.511-0.154
			c-0.629-0.645,0.27-1.469,0.27-1.469s-1.09,0.128-1.296-0.677c-0.205-0.805,1.905-1.661,3.099-1.856
			c1.193-0.195,1.78-0.375,2.281-0.821c0.5-0.446,1.1-1.456,1.1-1.456s-1.264-0.404-2.691-1.729
			c-1.427-1.325-2.279-4.818-2.279-4.818s-0.834,0.43-1.382-0.004c-0.548-0.433-0.847-0.619-0.847-0.619s-1.113,0.407-1.684,0.253
			c-0.571-0.154-0.949-0.552-0.949-0.552s-1.504-0.1-1.895-0.607c-0.391-0.507,3.323-0.888,5.617-1.599
			c2.293-0.712,4.061-1.196,5.077-0.541c1.017,0.655,1.007,1.982,2.001,2.916c0.994,0.934,2.004,1.534,2.004,1.534
			s-0.053-5.632,0.595-6.703c0.648-1.071,2.431-0.009,4.118-0.705c1.687-0.696,3.314-1.439,3.493-0.852
			c0.18,0.587-1.184,1.687-1.184,1.687s0.317,0.35-0.225,0.911c-0.542,0.561-1.931,0.503-1.931,0.503s0.83,2.832,0.387,4.708
			C210.191,170.648,213.165,169.138,213.979,172.304z"/>
		<path style="clip-path:url(#SVGID_00000176039339871469522270000011530442906643511988_);fill:#284955;" d="M130.203,291.62
			c0,0,1.145,2.08,0.695,2.676c0,0-1.461-1.289-2.497-1.379c-1.037-0.09-3.033,0.047-5.183-0.448
			c-1.499-0.345-5.235,3.144-10.307,2.275c-5.071-0.869-7.814-2.021-10.972-1.11c-3.158,0.911-5.593,3.791-6.467,3.188
			c-0.874-0.603-0.395-1.908-0.395-1.908s-1.608,1.164-2.638-0.25c-1.03-1.413,0.483-3.716,0.483-3.716s-1.93-0.221-2.191-1.934
			c-0.261-1.713,2.068-1.996,2.068-1.996s-1.85-1.021-1.269-2.511c0.581-1.49,4.842-0.464,6.928,0.567
			c2.086,1.031,3.205,1.408,4.488,1.271c1.282-0.137,3.353-1.045,3.353-1.045s-1.524-2.048-2.273-5.72
			c-0.748-3.672,1.831-10.092,1.831-10.092s-1.786-0.262-2.159-1.554c-0.373-1.292-0.631-1.917-0.631-1.917s-2.198-0.61-2.918-1.49
			c-0.721-0.881-0.867-1.927-0.867-1.927s-2.242-1.841-2.286-3.072c-0.044-1.231,6.194,2.334,10.579,3.789
			c4.386,1.456,7.693,2.678,8.55,4.841c0.857,2.163-0.646,4.229-0.136,6.804c0.51,2.574,1.418,4.645,1.418,4.645
			s6.226-8.872,8.44-9.822c2.214-0.95,3.814,2.709,7.233,3.511c3.419,0.802,6.797,1.46,6.42,2.579
			c-0.377,1.12-3.742,1.313-3.742,1.313s0.105,0.903-1.372,1.173c-1.477,0.271-3.585-1.376-3.585-1.376s-1.874,5.361-4.669,7.801
			C126.132,284.786,132.476,285.754,130.203,291.62z"/>
		<path style="clip-path:url(#SVGID_00000176039339871469522270000011530442906643511988_);fill:#284955;" d="M483.616,394.512
			c0,0,2.166,0.138,2.336,0.316s-0.993,0.879-2.317,1.802c-1.324,0.923-2.3,1.854-3.06,4.613c-0.76,2.759-2.211,6.82-9.553,7.583
			c-7.342,0.762-7.508,0.411-9.445,1.58c-1.937,1.169-3.991,2.89-5.012,2.744c-1.021-0.146-0.717-1.215-0.717-1.215
			s-1.646,0.62-2.114-0.155s0.259-2.146,0.259-2.146s-1.416,0.435-1.722-0.562c-0.306-0.997,2.268-1.213,4.091-1.256
			c1.823-0.043,5.915-2.792,6.454-5.713c0,0-1.388-0.033-1.314-1.663c0,0-1.759-0.493-1.43-3.349c0,0-1.56-1.53-0.587-3.78
			c0,0-1.044-1.344-0.18-3.389c0,0-0.697-2.082,0.087-3.643c0,0-1.358-1.994-0.531-3.223c0.828-1.23,2.185,3.003,4.725,4.174
			s3.896,1.846,4.835,3.222c0,0-0.229-2.053,0.929-2.581c0,0-0.612-1.993,0.611-3.057c0,0-0.871-1.34-0.063-2.449
			c0,0-1.257-2.599-0.321-3.288c0.936-0.689,4.305,5.795,5.566,8.967c1.261,3.171-0.666,7.551-0.178,8.205
			c0,0,1.17,0.444,2.316-1.056C478.429,393.694,481.314,392.062,483.616,394.512z"/>
		<path style="clip-path:url(#SVGID_00000176039339871469522270000011530442906643511988_);fill:#284955;" d="M485.498,315.209
			c0,0,1.566-0.024,1.698,0.095s-0.664,0.689-1.564,1.428c-0.9,0.739-1.549,1.465-1.939,3.493c-0.39,2.028-1.202,5.032-6.441,5.998
			c-5.239,0.966-5.377,0.723-6.704,1.674c-1.327,0.951-2.707,2.306-3.449,2.259c-0.742-0.047-0.585-0.833-0.585-0.833
			s-1.149,0.54-1.529,0.009c-0.38-0.531,0.065-1.559,0.065-1.559s-0.994,0.393-1.271-0.306c-0.277-0.699,1.562-1.001,2.872-1.136
			c1.309-0.135,4.097-2.345,4.318-4.477c0,0-1,0.055-1.04-1.121c0,0-1.293-0.255-1.219-2.328c0,0-1.21-1.012-0.637-2.686
			c0,0-0.828-0.907-0.322-2.428c0,0-0.62-1.458-0.145-2.625c0,0-1.091-1.357-0.565-2.289c0.526-0.932,1.743,2.036,3.637,2.734
			c1.894,0.698,2.908,1.106,3.661,2.043c0,0-0.281-1.464,0.522-1.91c0,0-0.554-1.399,0.266-2.234c0,0-0.702-0.914-0.185-1.758
			c0,0-1.052-1.798-0.418-2.347c0.634-0.549,3.427,3.924,4.514,6.134c1.087,2.21-0.049,5.47,0.339,5.913
			c0,0,0.867,0.253,1.606-0.891C481.72,314.916,483.703,313.577,485.498,315.209z"/>
		<path style="clip-path:url(#SVGID_00000176039339871469522270000011530442906643511988_);fill:#284955;" d="M349.189,445.461
			c0,0,1.67,0.869,1.742,1.07c0.072,0.2-1.096,0.349-2.469,0.617c-1.374,0.268-2.475,0.664-4.045,2.586
			c-1.57,1.922-4.145,4.635-10.236,2.665c-6.091-1.97-6.099-2.306-8.046-2.058c-1.946,0.248-4.179,0.893-4.938,0.419
			s-0.143-1.215-0.143-1.215s-1.523-0.085-1.622-0.864c-0.099-0.779,0.958-1.611,0.958-1.611s-1.276-0.152-1.169-1.049
			s2.224-0.167,3.686,0.438c1.462,0.605,5.671-0.141,7.122-2.268c0,0-1.089-0.513-0.459-1.78c0,0-1.222-1.008,0.04-3.158
			c0,0-0.701-1.761,0.86-3.204c0,0-0.357-1.432,1.046-2.751c0,0,0.177-1.896,1.346-2.859c0,0-0.378-2.058,0.709-2.743
			c1.088-0.685,0.68,3.148,2.285,4.968c1.605,1.82,2.443,2.83,2.706,4.251c0,0,0.538-1.709,1.642-1.722c0,0,0.213-1.796,1.557-2.211
			c0,0-0.221-1.368,0.809-1.965c0,0-0.086-2.502,0.898-2.721c0.984-0.218,1.383,6.107,1.271,9.064
			c-0.112,2.958-3.176,5.756-3.018,6.446c0,0,0.772,0.763,2.207-0.025C345.361,442.993,348.222,442.71,349.189,445.461z"/>
		<path style="clip-path:url(#SVGID_00000176039339871469522270000011530442906643511988_);fill:#284955;" d="M80.347,344.422
			c0,0,1.348,0.798,1.399,0.967c0.051,0.17-0.926,0.241-2.079,0.401c-1.153,0.161-2.086,0.44-3.478,1.966
			c-1.391,1.526-3.653,3.664-8.625,1.752c-4.972-1.912-4.963-2.192-6.592-2.074c-1.628,0.118-3.513,0.553-4.121,0.126
			c-0.609-0.428-0.064-1.016-0.064-1.016s-1.262-0.14-1.309-0.791c-0.047-0.651,0.869-1.296,0.869-1.296s-1.053-0.184-0.924-0.925
			s1.856-0.038,3.043,0.53c1.187,0.569,4.718,0.139,6.02-1.563c0,0-0.882-0.475-0.301-1.5c0,0-0.97-0.892,0.176-2.622
			c0,0-0.503-1.494,0.859-2.623c0,0-0.232-1.206,0.993-2.238c0,0,0.233-1.567,1.247-2.315c0,0-0.221-1.727,0.713-2.247
			c0.935-0.52,0.423,2.646,1.674,4.231c1.251,1.585,1.902,2.462,2.056,3.654c0,0,0.525-1.396,1.442-1.356
			c0,0,0.258-1.482,1.393-1.767c0,0-0.122-1.147,0.76-1.596c0,0,0.042-2.083,0.869-2.22c0.828-0.137,0.873,5.136,0.646,7.588
			c-0.227,2.452-2.899,4.639-2.799,5.219c0,0,0.607,0.668,1.835,0.079C77.278,342.198,79.668,342.093,80.347,344.422z"/>
		<path style="clip-path:url(#SVGID_00000176039339871469522270000011530442906643511988_);fill:#284955;" d="M514.193,275.851
			c0,0,3.072,0.265,3.139,0.866c0.067,0.601-3.738,1.538-5.941,3.209c-2.202,1.671-5.404,6.28-11.68,8.288
			c-6.275,2.007-9.347,1.074-12.351,2.412c-3.004,1.337-5.139,4.477-6.541,4.411c-1.402-0.066-1.537-1.201-1.537-1.201
			s-0.734,0.935-2.07,0.202s-1.003-2.403-1.003-2.403s-1.135,0.535-1.803-0.466c-0.668-1.001,0.332-2.671,4.539-3.075
			c4.206-0.403,8.812-2.61,11.682-4.815c0,0-4.742-2.334-8.018-7.406c-3.275-5.073-3.813-10.481-3.079-10.949
			s1.202-0.001,1.202-0.001s-1.137-2.87-0.202-3.338c0.934-0.468,1.736-0.001,1.736-0.001s-0.671-4.941,0.597-5.409
			c1.268-0.468,2.07,0.867,2.07,0.867s-0.402-2.27,0.866-2.538s2.942,5.807,4.145,7.008c0,0-0.602-1.402,0.399-1.937
			c1.001-0.535,3.142,6.008,5.481,8.076c2.338,2.068,5.745,3.736,6.28,5.004c0,0,0.065-2.337,0.866-2.338s0.868,0.467,0.868,0.467
			s-0.135-2.404,0.8-2.605s1.336,0.333,1.336,0.333s0.533-2.204,1.534-2.338c1.001-0.134,1.603,0.6,1.603,0.6
			s0.399-2.471,1.668-2.138c1.269,0.333-0.799,3.272-1.132,5.276c-0.333,2.003-0.265,3.539-0.265,3.539
			S513.657,272.914,514.193,275.851z"/>
		<path style="clip-path:url(#SVGID_00000176039339871469522270000011530442906643511988_);fill:#284955;" d="M231.61,367.007
			c0,0,1.772,1.495,1.775,1.83c0.003,0.335-2.848,0.19-3.6,0.531c-0.752,0.341-2.811,4.883-8.929,4.848
			c-6.118-0.035-5.542-1.381-8.221-1.025c-2.679,0.356-10.256,6.618-11.429,6.711c-1.173,0.093-0.432-1.673-0.019-2.43
			c0,0-1.35-1.163-0.022-2.765c0,0-1.184-1.332,0.065-2.347c0,0-1.094-0.578-0.264-1.59c0.83-1.012,6.287,0.118,8.872-1.495
			c0,0-4.46-2.228-6.83-5.31c-2.371-3.082-3.061-5.842-2.606-6.433c0.455-0.59,1.13-0.009,1.13-0.009s-1.893-3.84-1.302-4.432
			c0.592-0.591,1.267-0.01,1.267-0.01s-0.771-2.173,0.146-2.767c0.917-0.594,1.258,0.158,1.258,0.158s-1.032-3.344,0.975-3.947
			c2.007-0.603,2.446,1.908,2.446,1.908s0.409-1.26,1.584-1.018c1.175,0.242,0.636,6.281,2.67,9.114s4.393,4.407,4.393,4.407
			s0.758-4.699,1.742-4.875c0.984-0.175,0.828,1.251,0.828,1.251s0.986-2.522,2.576-2.87c1.59-0.348,1.098,1.081,1.098,1.081
			s2.996-2.705,4.422-2.549c1.426,0.156,1.1,1.332,1.1,1.332s3.592-1.537,4.523-0.287c0.932,1.25-3.419,2.206-4.816,5.737
			c-1.397,3.531-0.132,4.527,0.456,4.69C227.485,364.609,229.817,362.831,231.61,367.007z"/>
		<path style="clip-path:url(#SVGID_00000176039339871469522270000011530442906643511988_);fill:#284955;" d="M86.995,175.36
			c0,0,2.305-0.246,2.549-0.016c0.244,0.23-1.833,2.189-2.106,2.967c-0.273,0.779,1.583,5.408-2.674,9.802
			c-4.257,4.395-4.831,3.048-6.426,5.229c-1.595,2.182-2.314,11.985-3.057,12.896c-0.744,0.911-1.507-0.845-1.769-1.667
			c0,0-1.774,0.171-2.013-1.897c0,0-1.781-0.066-1.65-1.671c0,0-1.174,0.391-1.331-0.909c-0.157-1.3,4.433-4.459,5.056-7.442
			c0,0-4.693,1.68-8.559,1.261c-3.866-0.419-6.337-1.83-6.449-2.567c-0.111-0.737,0.775-0.823,0.775-0.823s-4.083-1.289-4.101-2.125
			c-0.018-0.836,0.869-0.922,0.869-0.922s-2.103-0.946-1.898-2.019c0.205-1.073,0.984-0.8,0.984-0.8s-3.129-1.567-2.177-3.433
			c0.953-1.866,3.07-0.447,3.07-0.447s-0.627-1.167,0.36-1.849c0.988-0.681,4.976,3.884,8.43,4.375
			c3.453,0.491,6.221-0.125,6.221-0.125s-2.87-3.797-2.316-4.629c0.554-0.832,1.476,0.267,1.476,0.267s-1.14-2.456-0.291-3.845
			c0.848-1.389,1.54-0.046,1.54-0.046s0.118-4.035,1.217-4.957c1.099-0.922,1.723,0.127,1.723,0.127s1.374-3.657,2.921-3.466
			c1.547,0.191-0.771,3.995,0.813,7.446c1.584,3.451,3.178,3.226,3.703,2.914C82.41,176.681,82.739,173.766,86.995,175.36z"/>
		<path style="clip-path:url(#SVGID_00000176039339871469522270000011530442906643511988_);fill:#284955;" d="M325.181,288.429
			c0,0,1.335,0.894,1.41,1.05c0.075,0.156-1.398,0.288-1.943,0.486c-0.545,0.198-2.259,0.894-2.837,1.556
			c-0.578,0.662,1.065,2.881,2.191,3.492c1.126,0.611,1.08,3.578,2.184,5.607s1.35,2.808,0.676,3.004
			c-0.674,0.196-1.969-1.166-1.969-1.166s-0.426,0.845-1.298,0.496c-0.872-0.349-1.324-1.156-1.324-1.156s-0.678,0.454-1.519-0.23
			c-0.841-0.684-1.16-1.747-1.16-1.747s-0.443,0.277-1.284-0.407c-0.841-0.684-1.135-1.695-1.135-1.695s-0.878,0.038-1.382-0.744
			c-0.504-0.782-0.588-2.022-0.588-2.022s-1.361-0.434-2.588,0.476s-2.593,2.463-3.413,2.089c-0.82-0.374-0.7-1.456-0.7-1.456
			s-0.961,0.398-1.494-0.178c-0.533-0.576-0.209-1.5-0.209-1.5s-1.471,0.003-1.428-1.106c0.043-1.109,2.276-0.326,3.959-0.687
			c1.683-0.361,2.71-1.687,2.71-1.687s-1.409-0.667-1.335-2.111c0,0-1.43-0.977-1.075-2.236c0,0-1.451-1.287-0.807-2.877
			c0,0-0.964-1.073-0.538-1.918c0,0-0.971-2.286-0.545-3.131c0.426-0.845,3.058,2.499,5.295,3.023
			c2.237,0.525,3.567,1.294,4.115,2.567c0.548,1.273,1.45,3.016,1.883,3.384c0.433,0.368,2.074-0.613,3.805-0.741
			C324.57,286.739,325.181,288.429,325.181,288.429z"/>
		<path style="clip-path:url(#SVGID_00000176039339871469522270000011530442906643511988_);fill:#284955;" d="M40.211,400.611
			c0,0,1.336,0.894,1.411,1.05c0.075,0.156-1.398,0.288-1.943,0.486c-0.545,0.198-2.259,0.894-2.837,1.556
			c-0.578,0.662,1.065,2.881,2.191,3.492c1.126,0.611,1.08,3.578,2.184,5.607c1.104,2.03,1.35,2.808,0.676,3.004
			c-0.674,0.196-1.969-1.166-1.969-1.166s-0.426,0.845-1.298,0.496c-0.872-0.349-1.324-1.156-1.324-1.156s-0.678,0.454-1.519-0.23
			c-0.841-0.684-1.16-1.747-1.16-1.747s-0.443,0.277-1.284-0.407c-0.841-0.684-1.135-1.695-1.135-1.695s-0.878,0.038-1.382-0.744
			c-0.504-0.782-0.588-2.022-0.588-2.022s-1.361-0.434-2.588,0.476c-1.227,0.91-2.593,2.463-3.413,2.089
			c-0.82-0.374-0.7-1.456-0.7-1.456s-0.961,0.398-1.494-0.178c-0.533-0.576-0.209-1.5-0.209-1.5s-1.471,0.003-1.428-1.106
			c0.043-1.109,2.276-0.326,3.959-0.687c1.683-0.361,2.71-1.687,2.71-1.687s-1.409-0.667-1.335-2.111c0,0-1.43-0.977-1.075-2.236
			c0,0-1.451-1.287-0.807-2.877c0,0-0.964-1.073-0.538-1.918c0,0-0.971-2.286-0.545-3.131c0.426-0.845,3.058,2.499,5.295,3.023
			c2.237,0.525,3.567,1.294,4.115,2.567c0.548,1.273,1.45,3.016,1.883,3.384c0.433,0.368,2.074-0.613,3.805-0.741
			C39.599,398.92,40.211,400.611,40.211,400.611z"/>
		<path style="clip-path:url(#SVGID_00000176039339871469522270000011530442906643511988_);fill:#284955;" d="M469.668,161.01
			c0,0,1.369-0.208,1.508-0.153s-0.721,0.996-0.952,1.439c-0.231,0.443-0.916,1.882-0.898,2.639
			c0.018,0.757,2.353,1.212,3.424,0.945c1.071-0.267,2.768,1.646,4.65,2.294c1.883,0.648,2.492,1,2.177,1.516
			c-0.314,0.517-1.93,0.404-1.93,0.404s0.221,0.785-0.536,1.07s-1.514,0.035-1.514,0.035s-0.167,0.683-1.099,0.737
			c-0.932,0.054-1.754-0.436-1.754-0.436s-0.12,0.434-1.053,0.488c-0.932,0.055-1.707-0.417-1.707-0.417s-0.536,0.535-1.311,0.331
			c-0.775-0.204-1.55-0.943-1.55-0.943s-1.117,0.516-1.368,1.808c-0.251,1.292-0.216,3.074-0.954,3.313
			c-0.739,0.239-1.292-0.518-1.292-0.518s-0.379,0.812-1.053,0.756c-0.674-0.056-1.005-0.832-1.005-0.832s-0.933,0.858-1.551,0.128
			s1.257-1.531,2.117-2.74c0.86-1.209,0.741-2.649,0.741-2.649s-1.284,0.396-2.077-0.565c0,0-1.477,0.211-1.984-0.796
			c0,0-1.671,0.026-2.187-1.359c0,0-1.237-0.121-1.458-0.906c0,0-1.947-0.888-2.168-1.673c-0.221-0.785,3.397-0.19,5.125-1.158
			c1.727-0.968,3.02-1.252,4.109-0.762c1.089,0.49,2.676,1.074,3.165,1.056c0.489-0.018,0.962-1.596,1.988-2.684
			C468.296,160.29,469.668,161.01,469.668,161.01z"/>
		<path style="clip-path:url(#SVGID_00000176039339871469522270000011530442906643511988_);fill:#284955;" d="M329.972,81.641
			c0,0,0.85,0.887,0.88,1.016c0.03,0.129-1.091-0.015-1.53,0.044c-0.439,0.058-1.833,0.296-2.373,0.696
			c-0.54,0.399,0.322,2.325,1.062,2.966c0.74,0.641,0.219,2.848,0.709,4.545c0.491,1.697,0.546,2.318,0.011,2.353
			c-0.535,0.036-1.278-1.194-1.278-1.194s-0.457,0.561-1.05,0.157c-0.594-0.404-0.798-1.08-0.798-1.08s-0.581,0.228-1.096-0.421
			c-0.515-0.649-0.579-1.494-0.579-1.494s-0.376,0.134-0.892-0.515c-0.515-0.649-0.569-1.452-0.569-1.452s-0.662-0.116-0.909-0.782
			c-0.248-0.667-0.107-1.606-0.107-1.606s-0.945-0.547-2.01-0.07c-1.065,0.478-2.34,1.413-2.891,0.999
			c-0.551-0.414-0.283-1.202-0.283-1.202s-0.783,0.139-1.086-0.378c-0.303-0.517,0.09-1.154,0.09-1.154s-1.099-0.239-0.884-1.06
			c0.214-0.821,1.753,0.131,3.068,0.137c1.316,0.007,2.3-0.814,2.3-0.814s-0.942-0.729-0.65-1.795c0,0-0.907-0.964-0.435-1.846
			c0,0-0.872-1.199-0.13-2.28c0,0-0.543-0.959-0.087-1.52c0,0-0.349-1.866,0.107-2.427c0.457-0.561,1.872,2.368,3.456,3.127
			c1.584,0.759,2.45,1.552,2.65,2.592c0.2,1.04,0.587,2.489,0.85,2.835c0.263,0.346,1.649-0.117,2.962,0.072
			C329.793,80.279,329.972,81.641,329.972,81.641z"/>
		<path style="clip-path:url(#SVGID_00000176039339871469522270000011530442906643511988_);fill:#284955;" d="M137.475,368.893
			c0,0,0.413,1.553,0.366,1.72c-0.047,0.167-1.24-0.706-1.78-0.917c-0.54-0.211-2.287-0.819-3.158-0.703
			c-0.871,0.116-1.101,2.867-0.659,4.069c0.443,1.202-1.55,3.4-2.06,5.654c-0.51,2.254-0.839,3-1.475,2.703
			c-0.636-0.298-0.71-2.175-0.71-2.175s-0.878,0.354-1.302-0.484c-0.425-0.838-0.232-1.742-0.232-1.742s-0.809-0.106-0.989-1.175
			c-0.18-1.069,0.282-2.078,0.282-2.078s-0.516-0.084-0.696-1.153c-0.18-1.069,0.266-2.022,0.266-2.022s-0.685-0.551-0.547-1.471
			c0.137-0.92,0.893-1.907,0.893-1.907s-0.736-1.224-2.258-1.35c-1.522-0.126-3.573,0.139-3.942-0.683
			c-0.369-0.822,0.435-1.556,0.435-1.556s-0.985-0.335-1.005-1.12c-0.02-0.784,0.833-1.265,0.833-1.265s-1.107-0.968-0.343-1.773
			c0.764-0.805,1.925,1.257,3.427,2.097s3.149,0.521,3.149,0.521s-0.618-1.431,0.39-2.467c0,0-0.429-1.678,0.668-2.389
			c0,0-0.241-1.924,1.293-2.694c0,0-0.016-1.442,0.862-1.796c0,0,0.779-2.358,1.657-2.712c0.878-0.354,0.648,3.895,1.982,5.766
			c1.334,1.871,1.826,3.326,1.397,4.644c-0.429,1.318-0.901,3.223-0.819,3.785c0.082,0.562,1.963,0.908,3.347,1.954
			C138.131,367.219,137.475,368.893,137.475,368.893z"/>
		<path style="clip-path:url(#SVGID_00000176039339871469522270000011530442906643511988_);fill:#284955;" d="M117.613,456.489
			c0,0,1.369,1.329,1.164,1.893c0,0-1.426-0.647-2.244-0.472c-0.818,0.175-2.32,0.75-4.089,0.876
			c-1.233,0.088-3.283,3.649-7.386,4.175c-4.102,0.526-6.482,0.286-8.694,1.73s-3.406,4.23-4.219,3.973
			c-0.814-0.258-0.753-1.373-0.753-1.373s-0.962,1.273-2.086,0.429c-1.124-0.844-0.504-2.969-0.504-2.969s-1.535,0.285-2.139-0.97
			c-0.604-1.255,1.119-2.021,1.119-2.021s-1.662-0.349-1.566-1.631c0.096-1.281,3.612-1.497,5.458-1.196
			c1.846,0.301,2.795,0.327,3.748-0.08c0.953-0.407,2.331-1.593,2.331-1.593s-1.654-1.215-3.094-3.861
			c-1.44-2.646-0.969-8.187-0.969-8.187s-1.435,0.219-2.025-0.686c-0.591-0.905-0.936-1.325-0.936-1.325s-1.832,0.049-2.594-0.458
			c-0.761-0.507-1.12-1.277-1.12-1.277s-2.157-0.887-2.48-1.823c-0.324-0.936,5.31,0.335,9.023,0.421
			c3.713,0.086,6.543,0.247,7.711,1.708c1.168,1.46,0.5,3.403,1.498,5.261c0.998,1.858,2.183,3.236,2.183,3.236
			s2.696-8.285,4.174-9.536c1.478-1.251,3.569,1.184,6.386,0.995c2.817-0.189,5.568-0.479,5.542,0.471
			c-0.026,0.949-2.567,1.89-2.567,1.89s0.293,0.669-0.778,1.225c-1.071,0.556-3.079-0.213-3.079-0.213s-0.178,4.562-1.752,7.095
			C112.875,452.196,117.979,451.446,117.613,456.489z"/>
		<path style="clip-path:url(#SVGID_00000176039339871469522270000011530442906643511988_);fill:#284955;" d="M45.893,144.423
			c0,0,1.369,1.329,1.164,1.893c0,0-1.426-0.647-2.244-0.472c-0.818,0.175-2.32,0.75-4.089,0.876
			c-1.233,0.088-3.284,3.649-7.386,4.175c-4.102,0.526-6.482,0.286-8.694,1.73c-2.213,1.444-3.406,4.23-4.219,3.973
			c-0.814-0.258-0.753-1.373-0.753-1.373s-0.962,1.273-2.086,0.429c-1.124-0.844-0.504-2.97-0.504-2.97s-1.535,0.285-2.139-0.97
			c-0.604-1.255,1.119-2.021,1.119-2.021s-1.662-0.349-1.566-1.631c0.096-1.281,3.612-1.497,5.458-1.196
			c1.846,0.301,2.795,0.327,3.748-0.08c0.953-0.407,2.331-1.593,2.331-1.593s-1.654-1.215-3.093-3.861s-0.969-8.187-0.969-8.187
			s-1.434,0.219-2.025-0.686c-0.591-0.905-0.936-1.325-0.936-1.325s-1.833,0.049-2.594-0.458c-0.761-0.507-1.12-1.277-1.12-1.277
			s-2.157-0.887-2.481-1.823c-0.324-0.936,5.31,0.335,9.023,0.421c3.713,0.086,6.543,0.247,7.711,1.708
			c1.168,1.46,0.5,3.403,1.497,5.261c0.998,1.859,2.184,3.236,2.184,3.236s2.696-8.285,4.174-9.536
			c1.478-1.251,3.569,1.184,6.386,0.995c2.817-0.189,5.568-0.478,5.542,0.471c-0.026,0.949-2.567,1.89-2.567,1.89
			s0.293,0.669-0.778,1.225c-1.071,0.556-3.079-0.213-3.079-0.213s-0.178,4.562-1.752,7.095
			C41.155,140.129,46.259,139.38,45.893,144.423z"/>
		<path style="clip-path:url(#SVGID_00000176039339871469522270000011530442906643511988_);fill:#284955;" d="M252.486,451.173
			c0,0,1.492,0.565,1.573,0.726c0.081,0.161-0.887,0.403-2.017,0.766s-2.017,0.807-3.146,2.581
			c-1.129,1.775-3.025,4.316-8.349,3.267c-5.324-1.049-5.364-1.331-6.978-0.928c-1.613,0.403-3.428,1.17-4.114,0.847
			c-0.686-0.323-0.242-1.008-0.242-1.008s-1.291,0.081-1.452-0.565c-0.161-0.645,0.645-1.452,0.645-1.452s-1.089,0-1.089-0.766
			c0-0.766,1.855-0.363,3.146,0c1.291,0.363,4.759-0.686,5.768-2.622c0,0-0.968-0.323-0.565-1.452c0,0-1.129-0.726-0.282-2.662
			c0,0-0.766-1.412,0.403-2.783c0,0-0.444-1.17,0.605-2.42c0,0-0.04-1.613,0.847-2.541c0,0-0.524-1.694,0.323-2.38
			s0.887,2.581,2.42,3.953c1.533,1.371,2.339,2.138,2.702,3.307c0,0,0.282-1.492,1.21-1.613c0,0,0-1.533,1.089-2.017
			c0,0-0.323-1.129,0.484-1.734c0,0-0.323-2.097,0.484-2.38c0.807-0.282,1.775,5.001,1.976,7.502
			c0.202,2.501-2.097,5.163-1.896,5.727c0,0,0.726,0.565,1.855-0.242C249.017,449.479,251.397,448.955,252.486,451.173z"/>
		<path style="clip-path:url(#SVGID_00000176039339871469522270000011530442906643511988_);fill:#284955;" d="M298.547,369.677
			c0,0,2.572,0.222,2.628,0.725c0.056,0.503-3.13,1.288-4.974,2.687c-1.844,1.399-4.525,5.258-9.779,6.939
			c-5.254,1.681-7.827,0.9-10.342,2.02c-2.515,1.12-4.302,3.749-5.477,3.693c-1.174-0.055-1.286-1.005-1.286-1.005
			s-0.615,0.783-1.733,0.169c-1.119-0.614-0.84-2.012-0.84-2.012s-0.95,0.448-1.51-0.39c-0.56-0.838,0.278-2.236,3.8-2.574
			c3.522-0.338,7.379-2.185,9.781-4.032c0,0-3.971-1.954-6.713-6.201c-2.742-4.247-3.193-8.776-2.578-9.167
			c0.615-0.392,1.006-0.001,1.006-0.001s-0.952-2.404-0.17-2.795c0.783-0.392,1.454-0.001,1.454-0.001s-0.562-4.137,0.5-4.529
			c1.062-0.392,1.734,0.726,1.734,0.726s-0.337-1.901,0.725-2.125c1.062-0.224,2.463,4.862,3.47,5.868c0,0-0.504-1.174,0.334-1.622
			c0.838-0.448,2.631,5.03,4.589,6.762c1.958,1.732,4.81,3.128,5.258,4.19c0,0,0.055-1.957,0.726-1.957
			c0.671,0,0.727,0.391,0.727,0.391s-0.113-2.013,0.669-2.181c0.783-0.168,1.118,0.279,1.118,0.279s0.446-1.845,1.285-1.958
			c0.839-0.112,1.342,0.502,1.342,0.502s0.334-2.069,1.397-1.79c1.062,0.279-0.669,2.74-0.948,4.417
			c-0.278,1.678-0.222,2.963-0.222,2.963S298.098,367.217,298.547,369.677z"/>
		<path style="clip-path:url(#SVGID_00000176039339871469522270000011530442906643511988_);fill:#284955;" d="M333.833,223.025
			c0,0,1.554,0.486,1.52,0.803c-0.034,0.317-2.103,0.368-3.428,0.979c-1.326,0.611-3.501,2.624-6.965,2.946
			c-3.464,0.322-4.943-0.508-6.643-0.16c-1.701,0.348-3.159,1.725-3.875,1.531c-0.716-0.193-0.656-0.794-0.656-0.794
			s-0.485,0.399-1.09-0.131c-0.605-0.53-0.244-1.353-0.244-1.353s-0.646,0.147-0.877-0.445c-0.231-0.592,0.475-1.34,2.69-1.07
			s4.841-0.344,6.572-1.155c0,0-2.18-1.743-3.293-4.731c-1.112-2.988-0.775-5.838-0.343-5.996c0.432-0.158,0.62,0.136,0.62,0.136
			s-0.26-1.61,0.275-1.745c0.535-0.135,0.895,0.197,0.895,0.197s0.216-2.624,0.923-2.721c0.707-0.097,0.969,0.682,0.969,0.682
			s0.051-1.216,0.735-1.21c0.685,0.006,0.857,3.329,1.34,4.085c0,0-0.151-0.791,0.426-0.953c0.577-0.162,0.938,3.455,1.908,4.787
			c0.971,1.333,2.538,2.579,2.67,3.294c0,0,0.299-1.198,0.713-1.107c0.413,0.091,0.395,0.339,0.395,0.339s0.203-1.255,0.708-1.252
			c0.505,0.003,0.651,0.324,0.651,0.324s0.525-1.076,1.057-1.031c0.532,0.045,0.758,0.492,0.758,0.492s0.487-1.229,1.103-0.913
			c0.617,0.316-0.784,1.597-1.183,2.592s-0.539,1.795-0.539,1.795S333.891,221.449,333.833,223.025z"/>
		<path style="clip-path:url(#SVGID_00000176039339871469522270000011530442906643511988_);fill:#284955;" d="M122.547,47.677
			c0,0,2.572,0.222,2.628,0.725c0.056,0.503-3.13,1.288-4.974,2.687c-1.844,1.399-4.525,5.258-9.779,6.939
			c-5.254,1.681-7.827,0.9-10.342,2.02c-2.515,1.12-4.302,3.749-5.477,3.694c-1.174-0.055-1.286-1.006-1.286-1.006
			s-0.615,0.783-1.733,0.169c-1.119-0.614-0.84-2.012-0.84-2.012s-0.95,0.448-1.51-0.39c-0.56-0.838,0.278-2.236,3.8-2.574
			c3.522-0.338,7.379-2.185,9.781-4.032c0,0-3.971-1.954-6.713-6.201c-2.742-4.247-3.192-8.776-2.578-9.167
			c0.615-0.392,1.006-0.001,1.006-0.001s-0.952-2.403-0.17-2.795c0.783-0.392,1.454-0.001,1.454-0.001s-0.562-4.137,0.5-4.529
			c1.062-0.392,1.734,0.726,1.734,0.726s-0.337-1.901,0.725-2.125c1.062-0.224,2.463,4.862,3.47,5.868c0,0-0.504-1.174,0.334-1.622
			c0.838-0.448,2.631,5.03,4.589,6.762c1.958,1.732,4.81,3.128,5.258,4.19c0,0,0.055-1.957,0.726-1.957
			c0.671,0,0.727,0.391,0.727,0.391s-0.113-2.013,0.67-2.181c0.783-0.168,1.118,0.279,1.118,0.279s0.446-1.845,1.285-1.958
			c0.839-0.112,1.342,0.502,1.342,0.502s0.334-2.069,1.397-1.79c1.062,0.279-0.669,2.74-0.948,4.417
			c-0.278,1.677-0.222,2.963-0.222,2.963S122.098,45.217,122.547,47.677z"/>
		<path style="clip-path:url(#SVGID_00000176039339871469522270000011530442906643511988_);fill:#284955;" d="M26.099,238.04
			c0,0,2.772,0.239,2.832,0.781c0.061,0.542-3.373,1.388-5.36,2.895c-1.987,1.508-4.877,5.667-10.539,7.478
			c-5.662,1.811-8.434,0.969-11.145,2.176c-2.711,1.207-4.637,4.04-5.902,3.98c-1.265-0.059-1.386-1.084-1.386-1.084
			s-0.662,0.844-1.868,0.182c-1.205-0.662-0.905-2.168-0.905-2.168s-1.024,0.483-1.627-0.421c-0.603-0.903,0.3-2.41,4.095-2.774
			s7.951-2.355,10.541-4.345c0,0-4.279-2.106-7.234-6.683c-2.955-4.577-3.44-9.457-2.778-9.879c0.662-0.422,1.085-0.001,1.085-0.001
			s-1.026-2.59-0.183-3.012c0.843-0.422,1.566-0.001,1.566-0.001s-0.605-4.458,0.539-4.881c1.144-0.423,1.868,0.782,1.868,0.782
			s-0.363-2.048,0.782-2.29s2.654,5.24,3.74,6.324c0,0-0.543-1.265,0.36-1.747c0.903-0.483,2.835,5.421,4.945,7.287
			c2.11,1.866,5.184,3.371,5.667,4.515c0,0,0.059-2.109,0.782-2.109s0.784,0.421,0.784,0.421s-0.122-2.169,0.722-2.35
			c0.843-0.181,1.205,0.301,1.205,0.301s0.481-1.989,1.384-2.11c0.904-0.121,1.446,0.541,1.446,0.541s0.36-2.23,1.505-1.929
			c1.145,0.301-0.721,2.953-1.021,4.76c-0.3,1.808-0.239,3.193-0.239,3.193S25.616,235.389,26.099,238.04z"/>
		<path style="clip-path:url(#SVGID_00000176039339871469522270000011530442906643511988_);fill:#284955;" d="M177.987,328.139
			c0,0,1.905,0.166,1.946,0.538c0.041,0.373-2.319,0.952-3.685,1.987c-1.366,1.035-3.354,3.892-7.246,5.134
			c-3.892,1.242-5.797,0.663-7.66,1.491c-1.863,0.828-3.188,2.774-4.058,2.733c-0.87-0.041-0.952-0.745-0.952-0.745
			s-0.456,0.58-1.284,0.124c-0.828-0.455-0.621-1.491-0.621-1.491s-0.704,0.331-1.118-0.29c-0.414-0.621,0.207-1.656,2.816-1.905
			c2.609-0.248,5.466-1.615,7.246-2.981c0,0-2.94-1.449-4.969-4.596c-2.029-3.147-2.36-6.501-1.905-6.79c0.455-0.29,0.745,0,0.745,0
			s-0.704-1.781-0.124-2.07c0.58-0.29,1.076,0,1.076,0s-0.414-3.064,0.373-3.354c0.787-0.29,1.283,0.538,1.283,0.538
			s-0.248-1.408,0.538-1.573c0.787-0.166,1.822,3.602,2.567,4.348c0,0-0.373-0.87,0.248-1.201c0.621-0.331,1.946,3.727,3.395,5.01
			c1.449,1.284,3.561,2.319,3.892,3.105c0,0,0.041-1.449,0.538-1.449c0.497,0,0.538,0.29,0.538,0.29s-0.083-1.491,0.497-1.615
			c0.58-0.124,0.828,0.207,0.828,0.207s0.331-1.366,0.952-1.449c0.621-0.083,0.994,0.373,0.994,0.373s0.248-1.532,1.035-1.325
			c0.787,0.207-0.497,2.029-0.704,3.271c-0.207,1.242-0.166,2.194-0.166,2.194S177.656,326.317,177.987,328.139z"/>
	</g>
	<g>
		<text transform="matrix(1 0 0 1 205.0329 116.8178)" style="fill:#284955; font-family:'Amatic-Bold'; font-size:34.7401px;">flying bird</text>
	</g>
	<g>
		<text transform="matrix(1 0 0 1 205.0329 145.3754)" style="fill:#284955; font-family:'Amatic-Bold'; font-size:37.6638px;">silhouette</text>
	</g>
	<path style="fill:#284955;" d="M304.033,148.931c-16.858-0.646-33.826-0.07-50.695-0.017c-17.093,0.054-34.218-0.185-51.305,0.286
		c-0.529,0.015-0.529,0.806,0,0.82c17.087,0.471,34.212,0.233,51.305,0.287c16.869,0.053,33.837,0.629,50.695-0.017
		C304.909,150.257,304.909,148.965,304.033,148.931z"/>
	<path style="fill:#284955;" d="M202.293,91.207c16.858,0.646,33.826,0.07,50.695,0.017c17.093-0.054,34.218,0.185,51.305-0.286
		c0.529-0.015,0.529-0.806,0-0.82c-17.087-0.471-34.212-0.233-51.305-0.287c-16.869-0.053-33.837-0.629-50.695,0.017
		C201.417,89.882,201.417,91.174,202.293,91.207z"/>
</g>
<g id="BACKGROUND_2">
</g>
<g id="DESIGNED_BY_FREEPIK">
	<g>
		<g>
			<g>
				<path style="fill:#284955;" d="M178.014,481.549v-0.168c-0.228,0.26-0.453,0.474-0.675,0.636
					c-0.221,0.165-0.462,0.289-0.72,0.374c-0.259,0.085-0.541,0.128-0.848,0.128c-0.406,0-0.782-0.087-1.128-0.259
					c-0.345-0.171-0.645-0.418-0.897-0.736c-0.253-0.32-0.445-0.693-0.575-1.124c-0.131-0.431-0.196-0.897-0.196-1.398
					c0-1.061,0.259-1.888,0.777-2.48c0.518-0.592,1.199-0.888,2.045-0.888c0.488,0,0.901,0.084,1.235,0.25
					c0.336,0.168,0.663,0.426,0.983,0.774v-2.505c0-0.347,0.068-0.61,0.209-0.789c0.138-0.178,0.336-0.266,0.592-0.266
					c0.258,0,0.455,0.082,0.594,0.245c0.138,0.163,0.208,0.403,0.208,0.723v7.483c0,0.322-0.074,0.565-0.223,0.726
					c-0.149,0.161-0.342,0.243-0.579,0.243c-0.231,0-0.422-0.084-0.575-0.253C178.09,482.097,178.014,481.858,178.014,481.549z
					 M174.677,479.057c0,0.46,0.072,0.851,0.214,1.174c0.143,0.324,0.339,0.568,0.588,0.729c0.249,0.166,0.52,0.247,0.814,0.247
					c0.298,0,0.57-0.077,0.817-0.233c0.246-0.155,0.443-0.393,0.59-0.714c0.148-0.321,0.222-0.723,0.222-1.202
					c0-0.452-0.074-0.84-0.222-1.166c-0.147-0.325-0.344-0.573-0.596-0.746c-0.251-0.172-0.525-0.257-0.823-0.257
					c-0.311,0-0.588,0.089-0.833,0.265c-0.245,0.175-0.434,0.427-0.568,0.757C174.744,478.24,174.677,478.622,174.677,479.057z"/>
				<path style="fill:#284955;" d="M185.495,479.486h-3.318c0.004,0.384,0.081,0.724,0.233,1.018
					c0.15,0.295,0.352,0.516,0.602,0.665c0.251,0.15,0.527,0.222,0.83,0.222c0.203,0,0.388-0.022,0.557-0.07
					c0.167-0.049,0.33-0.122,0.488-0.223c0.156-0.101,0.302-0.211,0.433-0.327c0.133-0.117,0.305-0.273,0.516-0.474
					c0.087-0.074,0.211-0.111,0.374-0.111c0.173,0,0.314,0.049,0.421,0.143c0.107,0.096,0.162,0.231,0.162,0.404
					c0,0.154-0.06,0.332-0.18,0.538c-0.122,0.204-0.303,0.402-0.544,0.591c-0.243,0.187-0.547,0.343-0.914,0.469
					c-0.366,0.123-0.787,0.187-1.263,0.187c-1.09,0-1.937-0.313-2.542-0.934c-0.605-0.62-0.907-1.464-0.907-2.528
					c0-0.502,0.073-0.967,0.223-1.395c0.15-0.428,0.367-0.796,0.652-1.104c0.286-0.305,0.638-0.541,1.057-0.704
					c0.418-0.163,0.883-0.244,1.392-0.244c0.663,0,1.232,0.138,1.705,0.419c0.475,0.278,0.83,0.64,1.066,1.083
					c0.236,0.444,0.354,0.896,0.354,1.355c0,0.427-0.122,0.703-0.365,0.831C186.283,479.423,185.938,479.486,185.495,479.486z
					 M182.177,478.523h3.076c-0.042-0.581-0.199-1.016-0.47-1.302c-0.271-0.288-0.628-0.432-1.072-0.432
					c-0.422,0-0.77,0.145-1.041,0.438C182.399,477.517,182.236,477.951,182.177,478.523z"/>
				<path style="fill:#284955;" d="M193.225,480.298c0,0.47-0.114,0.87-0.342,1.204c-0.227,0.333-0.564,0.587-1.009,0.758
					c-0.446,0.172-0.988,0.259-1.625,0.259c-0.609,0-1.132-0.094-1.566-0.281c-0.436-0.187-0.756-0.42-0.963-0.698
					c-0.206-0.281-0.31-0.56-0.31-0.842c0-0.187,0.065-0.347,0.199-0.478c0.132-0.132,0.3-0.199,0.503-0.199
					c0.178,0,0.314,0.044,0.41,0.131c0.095,0.088,0.186,0.21,0.273,0.366c0.173,0.303,0.382,0.529,0.624,0.677
					c0.243,0.149,0.573,0.223,0.993,0.223c0.339,0,0.618-0.076,0.835-0.226c0.217-0.152,0.326-0.325,0.326-0.52
					c0-0.298-0.112-0.515-0.338-0.652c-0.226-0.137-0.598-0.267-1.116-0.392c-0.583-0.145-1.06-0.297-1.426-0.457
					c-0.367-0.159-0.66-0.37-0.879-0.63c-0.22-0.262-0.331-0.583-0.331-0.963c0-0.341,0.101-0.662,0.305-0.964
					c0.203-0.302,0.503-0.543,0.898-0.723c0.395-0.182,0.873-0.272,1.432-0.272c0.439,0,0.834,0.046,1.183,0.138
					c0.35,0.09,0.643,0.214,0.876,0.367c0.234,0.153,0.413,0.322,0.535,0.509c0.122,0.186,0.183,0.369,0.183,0.547
					c0,0.194-0.066,0.354-0.195,0.479c-0.131,0.123-0.315,0.186-0.557,0.186c-0.173,0-0.322-0.049-0.443-0.149
					c-0.122-0.099-0.262-0.248-0.421-0.447c-0.127-0.166-0.278-0.299-0.453-0.398c-0.173-0.1-0.41-0.149-0.708-0.149
					c-0.306,0-0.56,0.065-0.764,0.197c-0.203,0.128-0.305,0.292-0.305,0.487c0,0.178,0.076,0.325,0.223,0.438
					c0.15,0.114,0.35,0.209,0.604,0.282c0.251,0.074,0.599,0.165,1.044,0.273c0.526,0.129,0.954,0.282,1.289,0.46
					c0.333,0.177,0.586,0.388,0.758,0.631C193.139,479.712,193.225,479.988,193.225,480.298z"/>
				<path style="fill:#284955;" d="M194.958,474.832c-0.236,0-0.438-0.073-0.605-0.217c-0.168-0.145-0.253-0.35-0.253-0.617
					c0-0.24,0.087-0.437,0.258-0.593c0.173-0.156,0.372-0.233,0.6-0.233c0.22,0,0.414,0.071,0.583,0.211
					c0.17,0.142,0.255,0.347,0.255,0.615c0,0.261-0.083,0.466-0.249,0.613C195.383,474.757,195.186,474.832,194.958,474.832z
					 M195.796,476.583v4.902c0,0.339-0.081,0.598-0.242,0.771c-0.162,0.173-0.366,0.261-0.615,0.261
					c-0.25,0-0.452-0.089-0.607-0.267c-0.155-0.179-0.233-0.433-0.233-0.765v-4.852c0-0.336,0.078-0.588,0.233-0.759
					c0.155-0.168,0.357-0.255,0.607-0.255c0.249,0,0.453,0.087,0.615,0.255C195.716,476.045,195.796,476.281,195.796,476.583z"/>
				<path style="fill:#284955;" d="M203.228,476.863v4.928c0,0.564-0.061,1.047-0.182,1.454c-0.118,0.406-0.311,0.741-0.577,1.007
					c-0.264,0.265-0.611,0.461-1.04,0.59c-0.429,0.128-0.962,0.193-1.6,0.193c-0.583,0-1.106-0.082-1.566-0.245
					c-0.459-0.164-0.813-0.376-1.062-0.635c-0.249-0.259-0.374-0.525-0.374-0.798c0-0.206,0.071-0.376,0.211-0.505
					c0.14-0.131,0.311-0.195,0.51-0.195c0.248,0,0.466,0.11,0.653,0.328c0.09,0.112,0.184,0.226,0.282,0.339
					c0.098,0.113,0.205,0.211,0.323,0.292c0.117,0.079,0.26,0.14,0.425,0.181c0.166,0.038,0.358,0.057,0.573,0.057
					c0.439,0,0.78-0.06,1.022-0.182c0.243-0.123,0.413-0.294,0.51-0.514c0.096-0.217,0.154-0.454,0.171-0.704
					c0.017-0.251,0.028-0.654,0.037-1.21c-0.261,0.366-0.562,0.643-0.905,0.834c-0.34,0.19-0.748,0.286-1.219,0.286
					c-0.569,0-1.064-0.144-1.489-0.435c-0.425-0.29-0.752-0.697-0.979-1.218c-0.227-0.522-0.341-1.124-0.341-1.808
					c0-0.51,0.068-0.971,0.207-1.379c0.139-0.411,0.337-0.757,0.593-1.038c0.256-0.283,0.553-0.494,0.889-0.638
					c0.336-0.142,0.703-0.212,1.106-0.212c0.481,0,0.897,0.092,1.249,0.275c0.353,0.185,0.68,0.475,0.983,0.868v-0.231
					c0-0.293,0.071-0.521,0.217-0.684c0.145-0.161,0.331-0.243,0.559-0.243c0.327,0,0.544,0.109,0.652,0.321
					C203.173,476.154,203.228,476.461,203.228,476.863z M198.312,479.014c0,0.686,0.15,1.207,0.451,1.559
					c0.3,0.353,0.69,0.528,1.166,0.528c0.281,0,0.547-0.076,0.797-0.227c0.251-0.151,0.455-0.38,0.613-0.684
					c0.158-0.304,0.237-0.674,0.237-1.108c0-0.692-0.153-1.23-0.457-1.615c-0.305-0.387-0.706-0.58-1.204-0.58
					c-0.485,0-0.873,0.185-1.165,0.554C198.458,477.809,198.312,478.334,198.312,479.014z"/>
				<path style="fill:#284955;" d="M205.925,476.558v0.206c0.298-0.393,0.624-0.682,0.978-0.867
					c0.355-0.186,0.762-0.278,1.221-0.278c0.448,0,0.847,0.099,1.2,0.294c0.352,0.194,0.615,0.47,0.789,0.825
					c0.112,0.206,0.184,0.432,0.217,0.67c0.033,0.242,0.051,0.548,0.051,0.92v3.157c0,0.339-0.078,0.598-0.234,0.771
					c-0.155,0.173-0.356,0.261-0.605,0.261c-0.253,0-0.458-0.089-0.615-0.267c-0.158-0.179-0.236-0.433-0.236-0.765v-2.827
					c0-0.559-0.078-0.988-0.234-1.283c-0.155-0.297-0.464-0.444-0.928-0.444c-0.303,0-0.579,0.089-0.827,0.27
					c-0.249,0.182-0.432,0.428-0.547,0.743c-0.083,0.253-0.124,0.725-0.124,1.416v2.125c0,0.344-0.081,0.603-0.239,0.774
					c-0.16,0.172-0.366,0.259-0.618,0.259c-0.245,0-0.446-0.089-0.603-0.267c-0.158-0.179-0.237-0.433-0.237-0.765v-4.902
					c0-0.323,0.071-0.564,0.211-0.724c0.14-0.16,0.333-0.24,0.577-0.24c0.15,0,0.284,0.037,0.405,0.107
					c0.12,0.071,0.216,0.176,0.289,0.316C205.888,476.184,205.925,476.355,205.925,476.558z"/>
				<path style="fill:#284955;" d="M216.244,479.486h-3.318c0.004,0.384,0.082,0.724,0.233,1.018
					c0.151,0.295,0.352,0.516,0.603,0.665c0.249,0.15,0.526,0.222,0.829,0.222c0.203,0,0.388-0.022,0.557-0.07
					c0.167-0.049,0.33-0.122,0.487-0.223c0.158-0.101,0.301-0.211,0.436-0.327c0.132-0.117,0.304-0.273,0.515-0.474
					c0.087-0.074,0.211-0.111,0.374-0.111c0.173,0,0.314,0.049,0.422,0.143c0.107,0.096,0.161,0.231,0.161,0.404
					c0,0.154-0.06,0.332-0.179,0.538c-0.121,0.204-0.303,0.402-0.544,0.591c-0.243,0.187-0.547,0.343-0.913,0.469
					c-0.367,0.123-0.788,0.187-1.265,0.187c-1.09,0-1.937-0.313-2.543-0.934c-0.603-0.62-0.906-1.464-0.906-2.528
					c0-0.502,0.073-0.967,0.223-1.395c0.149-0.428,0.366-0.796,0.653-1.104c0.284-0.305,0.637-0.541,1.055-0.704
					c0.419-0.163,0.884-0.244,1.393-0.244c0.663,0,1.23,0.138,1.705,0.419c0.475,0.278,0.83,0.64,1.066,1.083
					c0.236,0.444,0.355,0.896,0.355,1.355c0,0.427-0.123,0.703-0.367,0.831C217.033,479.423,216.688,479.486,216.244,479.486z
					 M212.927,478.523h3.076c-0.042-0.581-0.198-1.016-0.469-1.302c-0.272-0.288-0.629-0.432-1.073-0.432
					c-0.422,0-0.77,0.145-1.041,0.438C213.149,477.517,212.984,477.951,212.927,478.523z"/>
				<path style="fill:#284955;" d="M223.16,481.549v-0.168c-0.227,0.26-0.453,0.474-0.675,0.636
					c-0.221,0.165-0.461,0.289-0.72,0.374c-0.259,0.085-0.541,0.128-0.847,0.128c-0.406,0-0.782-0.087-1.129-0.259
					c-0.346-0.171-0.645-0.418-0.897-0.736c-0.253-0.32-0.444-0.693-0.575-1.124c-0.131-0.431-0.195-0.897-0.195-1.398
					c0-1.061,0.259-1.888,0.776-2.48c0.518-0.592,1.2-0.888,2.045-0.888c0.49,0,0.901,0.084,1.236,0.25
					c0.336,0.168,0.663,0.426,0.982,0.774v-2.505c0-0.347,0.07-0.61,0.208-0.789c0.139-0.178,0.338-0.266,0.594-0.266
					c0.256,0,0.454,0.082,0.593,0.245c0.138,0.163,0.209,0.403,0.209,0.723v7.483c0,0.322-0.075,0.565-0.225,0.726
					c-0.149,0.161-0.341,0.243-0.577,0.243c-0.232,0-0.424-0.084-0.575-0.253C223.236,482.097,223.16,481.858,223.16,481.549z
					 M219.824,479.057c0,0.46,0.071,0.851,0.214,1.174c0.143,0.324,0.338,0.568,0.587,0.729c0.249,0.166,0.52,0.247,0.814,0.247
					c0.299,0,0.571-0.077,0.817-0.233c0.247-0.155,0.444-0.393,0.591-0.714c0.148-0.321,0.22-0.723,0.22-1.202
					c0-0.452-0.072-0.84-0.22-1.166c-0.146-0.325-0.345-0.573-0.596-0.746c-0.253-0.172-0.526-0.257-0.825-0.257
					c-0.31,0-0.587,0.089-0.831,0.265c-0.244,0.175-0.435,0.427-0.569,0.757C219.89,478.24,219.824,478.622,219.824,479.057z"/>
				<path style="fill:#284955;" d="M230.093,474.066v2.592c0.319-0.331,0.643-0.586,0.975-0.76c0.332-0.177,0.742-0.264,1.23-0.264
					c0.564,0,1.057,0.132,1.483,0.399c0.424,0.269,0.752,0.656,0.988,1.162c0.234,0.508,0.352,1.11,0.352,1.807
					c0,0.514-0.066,0.984-0.197,1.412c-0.131,0.428-0.32,0.801-0.569,1.116c-0.248,0.315-0.549,0.559-0.903,0.73
					c-0.355,0.172-0.746,0.259-1.172,0.259c-0.261,0-0.507-0.032-0.736-0.094c-0.231-0.062-0.426-0.143-0.588-0.245
					c-0.161-0.101-0.299-0.205-0.413-0.314c-0.114-0.107-0.265-0.27-0.451-0.485v0.168c0,0.319-0.077,0.56-0.231,0.723
					c-0.151,0.165-0.348,0.247-0.583,0.247c-0.24,0-0.432-0.082-0.575-0.247c-0.143-0.162-0.214-0.404-0.214-0.723v-7.408
					c0-0.343,0.07-0.604,0.206-0.779c0.14-0.177,0.334-0.264,0.582-0.264c0.261,0,0.463,0.083,0.603,0.25
					C230.023,473.517,230.093,473.755,230.093,474.066z M230.174,479.107c0,0.675,0.154,1.194,0.464,1.556
					c0.308,0.363,0.713,0.543,1.215,0.543c0.426,0,0.793-0.184,1.102-0.555c0.309-0.372,0.463-0.902,0.463-1.594
					c0-0.448-0.063-0.834-0.193-1.156c-0.128-0.322-0.31-0.574-0.546-0.748c-0.237-0.176-0.513-0.265-0.826-0.265
					c-0.324,0-0.612,0.089-0.864,0.265c-0.253,0.175-0.452,0.43-0.597,0.764C230.246,478.249,230.174,478.647,230.174,479.107z"/>
				<path style="fill:#284955;" d="M237.32,482.73l0.155-0.381l-2.088-5.256c-0.128-0.302-0.194-0.521-0.194-0.658
					c0-0.147,0.039-0.28,0.113-0.404c0.074-0.124,0.176-0.223,0.306-0.298c0.132-0.076,0.267-0.113,0.408-0.113
					c0.244,0,0.428,0.079,0.553,0.234c0.126,0.155,0.234,0.377,0.33,0.668l1.436,4.176l1.36-3.884
					c0.107-0.314,0.205-0.56,0.293-0.738c0.087-0.18,0.18-0.3,0.276-0.361c0.098-0.061,0.236-0.094,0.414-0.094
					c0.13,0,0.251,0.034,0.37,0.104c0.117,0.068,0.209,0.161,0.273,0.277c0.064,0.116,0.097,0.238,0.097,0.365
					c-0.017,0.079-0.044,0.19-0.082,0.337c-0.037,0.144-0.082,0.292-0.137,0.441l-2.212,5.792c-0.19,0.509-0.376,0.908-0.559,1.199
					c-0.183,0.289-0.422,0.514-0.724,0.668c-0.301,0.156-0.706,0.233-1.215,0.233c-0.497,0-0.87-0.054-1.118-0.161
					c-0.249-0.109-0.374-0.305-0.374-0.591c0-0.194,0.06-0.345,0.178-0.451c0.117-0.105,0.293-0.16,0.524-0.16
					c0.092,0,0.181,0.013,0.267,0.039c0.109,0.024,0.201,0.038,0.28,0.038c0.194,0,0.348-0.029,0.46-0.089
					c0.112-0.057,0.212-0.156,0.301-0.302C237.101,483.217,237.204,483.006,237.32,482.73z"/>
			</g>
			<g>
				<path style="fill:#284955;" d="M261.895,475.767h0.404v-0.509c0-0.532,0.065-0.953,0.2-1.268
					c0.134-0.313,0.364-0.539,0.685-0.682c0.322-0.143,0.762-0.215,1.319-0.215c0.995,0,1.487,0.242,1.487,0.73
					c0,0.156-0.051,0.29-0.156,0.403c-0.1,0.11-0.225,0.167-0.365,0.167c-0.065,0-0.183-0.013-0.345-0.04
					c-0.156-0.021-0.297-0.036-0.408-0.036c-0.305,0-0.502,0.093-0.591,0.272c-0.085,0.179-0.128,0.437-0.128,0.775v0.403h0.414
					c0.648,0,0.968,0.194,0.968,0.586c0,0.275-0.083,0.452-0.256,0.526c-0.171,0.076-0.409,0.112-0.712,0.112h-0.414v4.495
					c0,0.335-0.079,0.59-0.243,0.765c-0.158,0.178-0.361,0.266-0.617,0.266c-0.239,0-0.439-0.088-0.601-0.266
					c-0.159-0.176-0.238-0.431-0.238-0.765v-4.495h-0.468c-0.254,0-0.447-0.055-0.585-0.171c-0.137-0.112-0.205-0.263-0.205-0.443
					C261.041,475.968,261.326,475.767,261.895,475.767"/>
				<path style="fill:#284955;" d="M267.448,480.069v1.417c0,0.343-0.087,0.602-0.244,0.773c-0.161,0.173-0.365,0.259-0.613,0.259
					c-0.25,0-0.45-0.087-0.607-0.262c-0.155-0.173-0.236-0.43-0.236-0.769v-4.724c0-0.763,0.275-1.145,0.824-1.145
					c0.284,0,0.487,0.089,0.611,0.267c0.125,0.178,0.193,0.441,0.208,0.791c0.2-0.35,0.408-0.613,0.62-0.791
					c0.219-0.178,0.499-0.267,0.857-0.267c0.359,0,0.702,0.089,1.038,0.267c0.337,0.178,0.504,0.416,0.504,0.711
					c0,0.205-0.072,0.378-0.212,0.51c-0.144,0.137-0.298,0.204-0.463,0.204c-0.065,0-0.216-0.042-0.454-0.118
					c-0.238-0.073-0.449-0.112-0.63-0.112c-0.248,0-0.452,0.067-0.609,0.194c-0.159,0.134-0.281,0.326-0.369,0.581
					c-0.085,0.259-0.144,0.566-0.178,0.918C267.463,479.126,267.448,479.56,267.448,480.069"/>
				<path style="fill:#284955;" d="M275.248,479.484h-3.32c0.006,0.386,0.081,0.726,0.233,1.021c0.153,0.29,0.353,0.514,0.604,0.664
					c0.251,0.15,0.525,0.222,0.829,0.222c0.205,0,0.388-0.021,0.557-0.072c0.166-0.045,0.331-0.121,0.487-0.222
					c0.159-0.101,0.302-0.209,0.436-0.327c0.132-0.116,0.305-0.273,0.516-0.471c0.087-0.074,0.212-0.113,0.371-0.113
					c0.176,0,0.316,0.049,0.425,0.144c0.11,0.096,0.159,0.231,0.159,0.404c0,0.155-0.057,0.332-0.174,0.537
					c-0.123,0.206-0.303,0.403-0.546,0.593c-0.245,0.186-0.549,0.344-0.916,0.466c-0.365,0.124-0.787,0.188-1.263,0.188
					c-1.092,0-1.94-0.31-2.543-0.931c-0.604-0.623-0.91-1.466-0.91-2.531c0-0.502,0.075-0.968,0.226-1.396
					c0.146-0.431,0.365-0.796,0.654-1.104c0.284-0.309,0.635-0.543,1.053-0.707c0.419-0.162,0.883-0.244,1.394-0.244
					c0.66,0,1.229,0.139,1.704,0.422c0.474,0.277,0.834,0.639,1.066,1.082c0.238,0.447,0.355,0.896,0.355,1.357
					c0,0.425-0.124,0.701-0.369,0.829C276.034,479.42,275.691,479.484,275.248,479.484 M271.928,478.52h3.076
					c-0.042-0.579-0.195-1.014-0.468-1.299c-0.273-0.29-0.627-0.432-1.073-0.432c-0.422,0-0.77,0.143-1.041,0.437
					C272.15,477.517,271.984,477.948,271.928,478.52"/>
				<path style="fill:#284955;" d="M282.305,479.484h-3.318c0.002,0.386,0.082,0.726,0.231,1.021
					c0.151,0.29,0.353,0.514,0.603,0.664c0.251,0.15,0.526,0.222,0.831,0.222c0.202,0,0.388-0.021,0.553-0.072
					c0.17-0.045,0.331-0.121,0.491-0.222c0.159-0.101,0.3-0.209,0.435-0.327c0.129-0.116,0.303-0.273,0.515-0.471
					c0.089-0.074,0.212-0.113,0.372-0.113c0.176,0,0.316,0.049,0.426,0.144c0.107,0.096,0.155,0.231,0.155,0.404
					c0,0.155-0.056,0.332-0.177,0.537c-0.116,0.206-0.299,0.403-0.545,0.593c-0.242,0.186-0.549,0.344-0.912,0.466
					c-0.364,0.124-0.79,0.188-1.266,0.188c-1.09,0-1.936-0.31-2.544-0.931c-0.603-0.623-0.908-1.466-0.908-2.531
					c0-0.502,0.077-0.968,0.228-1.396c0.148-0.431,0.366-0.796,0.652-1.104c0.284-0.309,0.636-0.543,1.056-0.707
					c0.416-0.162,0.883-0.244,1.393-0.244c0.659,0,1.229,0.139,1.71,0.422c0.47,0.277,0.828,0.639,1.06,1.082
					c0.236,0.447,0.357,0.896,0.357,1.357c0,0.425-0.125,0.701-0.367,0.829C283.09,479.42,282.747,479.484,282.305,479.484
					 M278.987,478.52h3.074c-0.04-0.579-0.198-1.014-0.467-1.299c-0.275-0.29-0.629-0.432-1.074-0.432
					c-0.422,0-0.77,0.143-1.041,0.437C279.208,477.517,279.042,477.948,278.987,478.52"/>
				<path style="fill:#284955;" d="M286.021,476.571v0.203c0.319-0.392,0.651-0.681,0.997-0.867
					c0.339-0.184,0.731-0.278,1.166-0.278c0.52,0,1.005,0.135,1.444,0.404c0.441,0.271,0.784,0.665,1.039,1.182
					c0.256,0.52,0.384,1.132,0.384,1.841c0,0.521-0.073,1.002-0.221,1.439c-0.145,0.438-0.35,0.803-0.607,1.1
					c-0.256,0.295-0.559,0.525-0.908,0.685c-0.355,0.158-0.729,0.238-1.132,0.238c-0.482,0-0.891-0.098-1.22-0.293
					c-0.328-0.192-0.643-0.481-0.944-0.854v2.546c0,0.743-0.272,1.119-0.813,1.119c-0.321,0-0.53-0.096-0.636-0.288
					c-0.099-0.195-0.154-0.474-0.154-0.845v-7.323c0-0.325,0.07-0.563,0.21-0.724c0.14-0.158,0.336-0.239,0.58-0.239
					c0.241,0,0.435,0.082,0.586,0.245C285.947,476.028,286.021,476.26,286.021,476.571 M289.347,479.036
					c0-0.447-0.07-0.832-0.205-1.152c-0.137-0.322-0.327-0.569-0.568-0.739c-0.241-0.172-0.512-0.26-0.807-0.26
					c-0.466,0-0.862,0.187-1.183,0.553c-0.322,0.371-0.484,0.913-0.484,1.631c0,0.671,0.16,1.199,0.481,1.575
					c0.319,0.375,0.71,0.56,1.185,0.56c0.281,0,0.544-0.082,0.785-0.242c0.243-0.167,0.435-0.411,0.577-0.738
					C289.274,479.897,289.347,479.5,289.347,479.036"/>
				<path style="fill:#284955;" d="M292.759,474.827c-0.237,0-0.437-0.074-0.603-0.219c-0.17-0.145-0.253-0.349-0.253-0.614
					c0-0.239,0.084-0.438,0.258-0.594c0.172-0.154,0.371-0.233,0.598-0.233c0.222,0,0.416,0.071,0.585,0.21
					c0.171,0.143,0.256,0.349,0.256,0.618c0,0.262-0.083,0.466-0.246,0.613C293.186,474.753,292.99,474.827,292.759,474.827
					 M293.6,476.58v4.909c0,0.337-0.081,0.593-0.242,0.767c-0.164,0.176-0.369,0.262-0.617,0.262c-0.25,0-0.448-0.088-0.608-0.266
					c-0.153-0.182-0.231-0.436-0.231-0.763v-4.86c0-0.333,0.078-0.585,0.231-0.756c0.16-0.173,0.358-0.256,0.608-0.256
					c0.248,0,0.453,0.083,0.617,0.256C293.519,476.044,293.6,476.28,293.6,476.58"/>
				<path style="fill:#284955;" d="M299.069,481.742l-1.494-2.465l-0.922,0.87v1.35c0,0.327-0.087,0.578-0.26,0.753
					c-0.167,0.178-0.369,0.266-0.593,0.266c-0.26,0-0.467-0.087-0.614-0.262c-0.149-0.173-0.225-0.43-0.225-0.769v-7.238
					c0-0.375,0.073-0.66,0.215-0.859c0.148-0.199,0.356-0.297,0.624-0.297c0.262,0,0.466,0.09,0.623,0.27
					c0.153,0.177,0.231,0.441,0.231,0.786v4.117l1.907-2.004c0.238-0.244,0.414-0.417,0.542-0.508
					c0.124-0.09,0.275-0.137,0.452-0.137c0.214,0,0.388,0.067,0.532,0.203c0.139,0.134,0.21,0.304,0.21,0.505
					c0,0.248-0.231,0.582-0.691,0.995l-0.9,0.826l1.741,2.737c0.126,0.205,0.221,0.356,0.276,0.461
					c0.055,0.104,0.087,0.209,0.087,0.303c0,0.27-0.076,0.48-0.225,0.638c-0.147,0.155-0.342,0.232-0.58,0.232
					c-0.206,0-0.367-0.055-0.479-0.168C299.413,482.235,299.258,482.033,299.069,481.742"/>
				<path style="fill:#284955;" d="M302.755,482.517c-0.255,0-0.475-0.083-0.664-0.25c-0.184-0.164-0.28-0.395-0.28-0.697
					c0-0.251,0.09-0.469,0.269-0.651c0.179-0.183,0.398-0.273,0.659-0.273c0.26,0,0.481,0.09,0.669,0.27
					c0.182,0.181,0.276,0.4,0.276,0.654c0,0.297-0.094,0.53-0.276,0.693C303.22,482.434,303.003,482.517,302.755,482.517"/>
				<path style="fill:#284955;" d="M311.194,480.417c0,0.209-0.064,0.437-0.19,0.676c-0.126,0.242-0.32,0.47-0.579,0.687
					c-0.259,0.216-0.583,0.394-0.978,0.526c-0.394,0.132-0.839,0.2-1.329,0.2c-1.051,0-1.87-0.308-2.458-0.917
					c-0.585-0.613-0.88-1.433-0.88-2.461c0-0.697,0.134-1.312,0.405-1.847c0.266-0.534,0.657-0.947,1.166-1.238
					c0.509-0.294,1.123-0.44,1.827-0.44c0.441,0,0.842,0.065,1.212,0.193c0.366,0.128,0.675,0.295,0.933,0.497
					c0.253,0.206,0.448,0.421,0.581,0.648c0.135,0.231,0.201,0.447,0.201,0.647c0,0.2-0.074,0.374-0.225,0.515
					c-0.154,0.14-0.337,0.211-0.548,0.211c-0.144,0-0.26-0.036-0.354-0.107c-0.094-0.075-0.199-0.191-0.314-0.355
					c-0.207-0.314-0.422-0.551-0.651-0.706c-0.225-0.16-0.512-0.238-0.859-0.238c-0.499,0-0.907,0.195-1.213,0.588
					c-0.306,0.389-0.46,0.929-0.46,1.604c0,0.321,0.042,0.615,0.121,0.883c0.076,0.267,0.19,0.494,0.339,0.684
					c0.151,0.188,0.33,0.33,0.541,0.428c0.212,0.099,0.444,0.146,0.696,0.146c0.34,0,0.631-0.078,0.875-0.236
					c0.244-0.159,0.459-0.397,0.645-0.721c0.104-0.19,0.214-0.339,0.332-0.448c0.121-0.105,0.268-0.162,0.443-0.162
					c0.206,0,0.378,0.082,0.514,0.238C311.124,480.07,311.194,480.24,311.194,480.417"/>
				<path style="fill:#284955;" d="M318.516,479.069c0,0.502-0.081,0.971-0.233,1.398c-0.162,0.428-0.387,0.793-0.687,1.1
					c-0.298,0.306-0.656,0.542-1.067,0.706c-0.418,0.162-0.883,0.247-1.399,0.247c-0.514,0-0.978-0.084-1.388-0.251
					c-0.408-0.164-0.766-0.402-1.064-0.708c-0.3-0.311-0.529-0.676-0.687-1.098c-0.149-0.42-0.229-0.885-0.229-1.393
					c0-0.515,0.082-0.986,0.234-1.412c0.159-0.428,0.384-0.793,0.68-1.095c0.296-0.303,0.649-0.535,1.067-0.699
					c0.421-0.164,0.884-0.245,1.388-0.245c0.514,0,0.98,0.082,1.399,0.25c0.419,0.163,0.775,0.402,1.075,0.706
					c0.3,0.31,0.525,0.674,0.681,1.094C318.436,478.092,318.516,478.557,318.516,479.069 M316.813,479.069
					c0-0.693-0.154-1.232-0.456-1.616c-0.304-0.389-0.713-0.58-1.227-0.58c-0.332,0-0.625,0.086-0.879,0.258
					c-0.254,0.17-0.444,0.425-0.582,0.76c-0.137,0.337-0.206,0.729-0.206,1.178c0,0.444,0.068,0.829,0.203,1.16
					c0.135,0.335,0.33,0.587,0.58,0.763c0.253,0.174,0.547,0.264,0.885,0.264c0.514,0,0.923-0.193,1.227-0.582
					C316.659,480.286,316.813,479.75,316.813,479.069"/>
				<path style="fill:#284955;" d="M324.988,479.193v2.255c0,0.357-0.079,0.621-0.243,0.803c-0.163,0.178-0.374,0.267-0.638,0.267
					c-0.258,0-0.469-0.089-0.623-0.267c-0.162-0.182-0.244-0.447-0.244-0.803v-2.704c0-0.426-0.013-0.759-0.04-0.996
					c-0.031-0.232-0.111-0.43-0.237-0.577c-0.129-0.155-0.333-0.231-0.61-0.231c-0.557,0-0.919,0.19-1.098,0.576
					c-0.173,0.377-0.265,0.925-0.265,1.639v2.293c0,0.352-0.079,0.619-0.236,0.801c-0.164,0.178-0.372,0.27-0.632,0.27
					c-0.259,0-0.469-0.092-0.632-0.27c-0.163-0.182-0.245-0.449-0.245-0.801v-4.853c0-0.321,0.072-0.564,0.22-0.728
					c0.149-0.169,0.343-0.25,0.581-0.25c0.233,0,0.426,0.081,0.584,0.232c0.154,0.158,0.232,0.371,0.232,0.645v0.161
					c0.297-0.35,0.61-0.609,0.943-0.773c0.339-0.171,0.708-0.253,1.122-0.253c0.426,0,0.792,0.085,1.097,0.255
					c0.308,0.171,0.558,0.428,0.759,0.77c0.287-0.347,0.594-0.604,0.922-0.773c0.328-0.168,0.691-0.253,1.088-0.253
					c0.463,0,0.866,0.094,1.2,0.275c0.335,0.182,0.585,0.444,0.751,0.781c0.144,0.309,0.216,0.792,0.216,1.451v3.312
					c0,0.357-0.079,0.621-0.24,0.803c-0.161,0.178-0.376,0.267-0.64,0.267c-0.259,0-0.467-0.092-0.632-0.27
					c-0.164-0.182-0.245-0.449-0.245-0.801v-2.854c0-0.366-0.015-0.655-0.046-0.875c-0.03-0.221-0.115-0.405-0.249-0.553
					c-0.139-0.15-0.348-0.226-0.624-0.226c-0.223,0-0.435,0.069-0.637,0.201c-0.2,0.13-0.358,0.311-0.471,0.531
					C325.051,477.961,324.988,478.466,324.988,479.193"/>
			</g>
			<g>
				<path style="fill:#284955;" d="M246.019,478.658c-0.001-0.004-0.001-0.006-0.001-0.006S246.018,478.654,246.019,478.658z"/>
				<path style="fill:#284955;" d="M246.104,479.199c0.001,0,0.001,0,0.001,0c-0.032-0.155-0.057-0.308-0.077-0.459
					C246.048,478.893,246.074,479.047,246.104,479.199z"/>
				<path style="fill:#284955;" d="M246.664,480.774c-0.004-0.006-0.006-0.015-0.01-0.022
					C246.658,480.759,246.661,480.768,246.664,480.774z"/>
				<path style="fill:#284955;" d="M246.612,480.669c-0.015-0.028-0.029-0.059-0.043-0.087
					C246.583,480.613,246.597,480.641,246.612,480.669z"/>
				<path style="fill:#284955;" d="M246.262,479.806c0.083,0.263,0.183,0.516,0.299,0.758c-0.118-0.248-0.216-0.503-0.297-0.758
					C246.263,479.806,246.263,479.806,246.262,479.806z"/>
				<path style="fill:#284955;" d="M252.585,472.156c0.328,0,0.57,0.027,0.847,0.073l0.078-0.498c0,0-0.765-0.237-1.772-0.154
					l-0.079-0.272c0.314-0.065,0.548-0.343,0.548-0.676c0-0.381-0.31-0.69-0.691-0.69c-0.382,0-0.691,0.309-0.691,0.69
					c0,0.333,0.234,0.612,0.547,0.676l0.088,0.303c-1.069,0.146-1.92,0.565-1.92,0.565l0.15,0.461
					c0.647-0.216,1.207-0.347,1.716-0.402C251.904,472.179,252.28,472.156,252.585,472.156z"/>
				<path style="fill:#284955;" d="M246.652,474.682l0.004-0.006c0.026-0.032,0.05-0.063,0.074-0.093l-0.205-0.148l-0.319-0.233
					c-0.018,0.024-0.52,0.487-0.917,1.34c-0.016-0.027-0.037-0.054-0.059-0.079c-0.118-0.129-0.284-0.195-0.497-0.192
					c-0.002,0-0.005,0-0.01,0c-0.129,0-0.22-0.044-0.278-0.096c0.057-0.074,0.094-0.169,0.094-0.27c0-0.242-0.198-0.438-0.438-0.438
					c-0.242,0-0.437,0.197-0.437,0.438s0.195,0.437,0.437,0.437c0.038,0,0.073-0.006,0.109-0.013
					c0.109,0.118,0.278,0.225,0.529,0.218c0.13-0.001,0.223,0.032,0.287,0.101c0.072,0.079,0.096,0.194,0.104,0.28
					c-0.001,0.001-0.001,0.004-0.003,0.004c-0.284,0.779-0.203,1.747-0.203,1.747l0.691,0.027c0.015-0.352,0.066-0.969,0.243-1.459
					C246.204,475.298,246.635,474.705,246.652,474.682z"/>
				<path style="fill:#284955;" d="M258.604,472.735c-0.242,0-0.44,0.195-0.44,0.437c0,0.038,0.006,0.073,0.016,0.109
					c-0.12,0.109-0.223,0.281-0.22,0.531c0.001,0.128-0.032,0.222-0.101,0.284c-0.056,0.05-0.125,0.076-0.193,0.093
					c-0.515-0.721-1.15-1.162-1.15-1.162l-0.496,0.533c0.376,0.339,0.758,0.768,1.13,1.301c0.258,0.369,0.524,0.845,0.743,1.317
					l0.67-0.317c0,0-0.306-0.756-0.737-1.434c0.076-0.026,0.151-0.066,0.217-0.125c0.132-0.118,0.195-0.286,0.192-0.496
					c-0.001-0.137,0.044-0.229,0.098-0.289c0.073,0.056,0.167,0.093,0.27,0.093c0.241,0,0.438-0.197,0.438-0.438
					C259.042,472.93,258.845,472.735,258.604,472.735z"/>
				<path style="fill:#284955;" d="M256.866,478.755c-0.923,0.449-2.439,1.043-4.437,1.322c-0.784,0.108-1.544,0.148-2.244,0.148
					c-0.909,0-1.713-0.067-2.33-0.145c-0.704-0.089-1.254-0.198-1.591-0.273c0.081,0.255,0.178,0.51,0.297,0.758
					c0.003,0.006,0.005,0.013,0.009,0.018c0.013,0.028,0.028,0.059,0.043,0.087c0.013,0.029,0.028,0.057,0.043,0.083
					c0.004,0.007,0.006,0.016,0.01,0.022c0.199,0.372,0.437,0.717,0.708,1.013c0.942,1.031,1.902,1.193,1.91,1.195l0.016,0.003
					l0.013,0.005c0.008,0.002,0.859,0.277,2.153,0.277c1.273,0,2.521-0.258,3.712-0.763c0.881-0.45,1.715-1.136,2.129-1.747
					c0.32-0.473,0.551-0.978,0.687-1.5c0.072-0.28,0.129-0.725,0.096-1.195C257.83,478.236,257.42,478.485,256.866,478.755z"/>
				<path style="fill:#284955;" d="M246.949,474.899c-0.027,0.039-0.427,0.605-0.742,1.475c-0.237,0.652-0.227,1.599-0.227,1.61
					v0.001c0,0.222,0.012,0.443,0.038,0.66c0,0,0,0.009,0.001,0.012c0.002,0.028,0.007,0.055,0.01,0.083
					c0.02,0.151,0.045,0.304,0.077,0.459c0.459,0.117,3.192,0.754,6.246,0.328c1.916-0.266,3.369-0.831,4.252-1.26
					c0.734-0.357,1.205-0.679,1.388-0.811c-0.181-0.673-0.681-1.727-1.139-2.385c-1.313-1.875-2.728-2.356-3.455-2.476
					c-0.277-0.045-0.498-0.071-0.813-0.071c-0.293,0-0.656,0.022-1.14,0.073c-0.486,0.051-1.028,0.18-1.656,0.391
					c-0.883,0.294-1.68,0.758-2.308,1.34l-0.021,0.02C247.366,474.435,247.172,474.616,246.949,474.899z M254.976,474.463
					c0.629,0,1.14,0.51,1.14,1.14c0,0.63-0.512,1.141-1.14,1.141c-0.629,0-1.14-0.512-1.14-1.141
					C253.836,474.973,254.348,474.463,254.976,474.463z M249.583,474.418c1.019,0,1.843,0.825,1.843,1.842
					c0,1.019-0.824,1.842-1.843,1.842c-1.017,0-1.842-0.823-1.842-1.842C247.741,475.243,248.566,474.418,249.583,474.418z"/>
			</g>
		</g>
	</g>
</g>
</svg>
